<svg width="16" height="16" viewBox="0 0 16 16" fill="none" xmlns="http://www.w3.org/2000/svg">
<path fill-rule="evenodd" clip-rule="evenodd" d="M13 8C13 8.08839 12.9624 8.17317 12.8954 8.23567C12.8284 8.29817 12.7376 8.33329 12.6429 8.33329L4.21985 8.33329L6.46756 10.4303C6.53462 10.4929 6.57229 10.5778 6.57229 10.6663C6.57229 10.7548 6.53462 10.8397 6.46756 10.9023C6.4005 10.9648 6.30955 11 6.21472 11C6.11988 11 6.02894 10.9648 5.96188 10.9023L3.10492 8.23597C3.07166 8.20501 3.04527 8.16823 3.02727 8.12774C3.00927 8.08725 3 8.04384 3 8C3 7.95616 3.00927 7.91275 3.02727 7.87226C3.04527 7.83177 3.07166 7.79499 3.10492 7.76403L5.96188 5.09774C6.02894 5.03516 6.11988 5 6.21472 5C6.30955 5 6.4005 5.03516 6.46756 5.09774C6.53462 5.16032 6.57229 5.2452 6.57229 5.33371C6.57229 5.42221 6.53462 5.50709 6.46756 5.56967L4.21985 7.66671L12.6429 7.66671C12.7376 7.66671 12.8284 7.70183 12.8954 7.76433C12.9624 7.82683 13 7.91161 13 8Z" fill="black"/>
</svg>
