<svg width="40" height="40" viewBox="0 0 40 40" fill="none" xmlns="http://www.w3.org/2000/svg">
<path d="M39.3137 14.8249C42.1718 25.4916 35.8418 36.4557 25.175 39.3137C14.5084 42.1718 3.54441 35.8418 0.686278 25.175C-2.17185 14.5084 4.15822 3.54442 14.8249 0.686277C25.4916 -2.17185 36.4557 4.15822 39.3137 14.8249Z" fill="#19191B"/>
<path fill-rule="evenodd" clip-rule="evenodd" d="M29.3891 14.3897C29.5309 13.9169 29.3885 13.5694 28.712 13.5689L26.4746 13.5673C25.9057 13.5669 25.6436 13.8668 25.5018 14.1977C25.5018 14.1977 24.366 16.963 22.7554 18.7586C22.2344 19.2784 21.9975 19.4437 21.713 19.4435C21.5708 19.4434 21.3648 19.2778 21.3645 18.805L21.3613 14.3838C21.3608 13.8164 21.1955 13.5633 20.7215 13.563L17.2057 13.5605C16.8502 13.5602 16.6365 13.8234 16.6368 14.073C16.6372 14.6109 17.4431 14.7355 17.5272 16.2487L17.5297 19.535C17.5302 20.2555 17.3999 20.3861 17.1154 20.3859C16.3569 20.3853 14.51 17.6055 13.4134 14.4252C13.1985 13.8072 12.9832 13.5573 12.4114 13.5569L10.1741 13.5552C9.53485 13.5548 9.40725 13.8548 9.40747 14.1859C9.4079 14.7769 10.1686 17.7092 12.9447 21.5885C14.7954 24.2377 17.4012 25.6752 19.7715 25.677C21.1936 25.6778 21.3694 25.3593 21.369 24.8101L21.3676 22.8089C21.367 22.1712 21.5018 22.0441 21.9519 22.0444C22.2838 22.0446 22.8529 22.2105 24.1811 23.4881C25.6993 25.0024 25.9498 25.6815 26.8031 25.682L29.0404 25.6837C29.6796 25.6842 29.999 25.3655 29.8141 24.7364C29.6119 24.1091 28.887 23.1988 27.9252 22.1197C27.4032 21.5046 26.6207 20.8421 26.3833 20.5109C26.0511 20.0851 26.1458 19.896 26.3825 19.5179C26.3825 19.5179 29.1056 15.6898 29.3891 14.3897Z" fill="#FFFCF0"/>
</svg>
