<svg width="40" height="40" viewBox="0 0 40 40" fill="none" xmlns="http://www.w3.org/2000/svg">
<path d="M39.0598 14.8249C41.6745 25.4916 35.2611 36.4557 24.7348 39.3137C14.2088 42.1718 3.55601 35.8418 0.941286 25.175C-1.67343 14.5084 4.74003 3.54442 15.2662 0.686277C25.7924 -2.17185 36.4452 4.15822 39.0598 14.8249Z" fill="#19191B"/>
<path d="M10.8001 29.9726L12.2129 24.6296C11.3401 23.0622 10.8817 21.2841 10.8838 19.4747C10.8861 13.7893 15.3527 9.16406 20.8416 9.16406C23.5051 9.16546 26.0052 10.2391 27.8855 12.1881C29.7657 14.1371 30.8002 16.7278 30.7993 19.483C30.7968 25.1679 26.3295 29.794 20.8414 29.794H20.8371C19.1707 29.7933 17.5333 29.3603 16.0788 28.5388L10.8001 29.9726Z" fill="#FFFCF0"/>
<path d="M20.8438 10.9058C16.2785 10.9058 12.5658 14.7501 12.5642 19.4753C12.5619 21.0888 13.0006 22.6701 13.8295 24.0362L14.0264 24.3605L13.1901 27.5228L16.3226 26.672L16.6251 26.8576C17.8955 27.6386 19.3522 28.0515 20.8376 28.0524H20.8407C25.4025 28.0524 29.1152 24.2077 29.117 19.4822C29.1204 18.3559 28.9081 17.24 28.4924 16.1993C28.0767 15.1585 27.4658 14.2136 26.6951 13.419C25.9287 12.6201 25.0169 11.9867 24.0125 11.5553C23.0082 11.1239 21.9311 10.9031 20.8438 10.9058Z" fill="#FFFCF0"/>
<path fill-rule="evenodd" clip-rule="evenodd" d="M18.3525 15.1646C18.166 14.7355 17.9698 14.7268 17.7926 14.7194L17.3157 14.7134C17.1498 14.7134 16.8802 14.7779 16.6523 15.0358C16.4244 15.2937 15.7814 15.9171 15.7814 17.1851C15.7814 18.4531 16.673 19.6783 16.7972 19.8505C16.9215 20.0226 18.5184 22.7076 21.0475 23.7406C23.1491 24.5991 23.5768 24.4283 24.0331 24.3855C24.4895 24.3426 25.5052 23.762 25.7124 23.1602C25.9196 22.5584 25.9197 22.0428 25.8576 21.935C25.7955 21.8272 25.6296 21.7631 25.3806 21.6342C25.1315 21.5052 23.9085 20.8818 23.6804 20.7957C23.4524 20.7097 23.2866 20.6669 23.1206 20.9248C22.9545 21.1828 22.4783 21.763 22.333 21.935C22.1878 22.107 22.0429 22.1286 21.7939 21.9998C21.5448 21.871 20.7436 21.5987 19.793 20.7207C19.0534 20.0376 18.5542 19.194 18.4088 18.9362C18.2635 18.6784 18.3934 18.5388 18.5182 18.4103C18.6298 18.2948 18.7669 18.1094 18.8916 17.9589C19.0162 17.8085 19.0572 17.701 19.14 17.5293C19.2229 17.3576 19.1816 17.2067 19.1193 17.0779C19.0571 16.9491 18.5736 15.6745 18.3525 15.1648" fill="#19191B"/>
</svg>
