<svg width="40" height="40" viewBox="0 0 40 40" fill="none" xmlns="http://www.w3.org/2000/svg">
<path d="M39.3137 14.8249C42.1718 25.4916 35.8418 36.4557 25.175 39.3137C14.5084 42.1718 3.54441 35.8418 0.686278 25.175C-2.17185 14.5084 4.15822 3.54442 14.8249 0.686277C25.4916 -2.17185 36.4557 4.15822 39.3137 14.8249Z" fill="#19191B"/>
<path d="M14.7344 22.4279L17.7421 27.0935C17.9599 27.4186 18.4332 27.4381 18.6539 27.1126L22.5004 21.6558C22.5004 21.6558 16.6983 21.0103 16.7276 21.1206C16.7742 21.2409 14.7344 22.4279 14.7344 22.4279Z" fill="#FFFCF0"/>
<path d="M25.2146 9.20626C22.3111 11.3618 12.9982 18.4296 9.47379 21.118C9.01168 21.4763 9.23742 22.208 9.81974 22.2428L14.7289 22.4697L17.7465 27.0897C17.8701 27.2766 18.0676 27.3558 18.2706 27.3456C18.4287 27.3326 17.5562 23.1509 17.5562 23.1509C17.5562 23.1509 23.2567 25.3955 25.9529 26.4637C26.6251 26.7241 27.3217 26.2003 27.279 25.493C27.0213 21.8509 26.3897 12.7643 26.1585 9.65782C26.1195 9.18422 25.5816 8.93206 25.2146 9.20626Z" fill="#FFFCF0"/>
<path d="M18.2697 27.3457C18.4283 27.3327 17.5531 23.1407 17.5531 23.1407L23.4196 13.7057C23.4599 13.6361 23.3691 13.5721 23.3251 13.628L14.7344 22.468L17.7614 27.0993C17.868 27.2766 18.0661 27.3558 18.2697 27.3457Z" fill="#616161"/>
</svg>
