<svg width="9" height="14" viewBox="0 0 9 14" fill="none" xmlns="http://www.w3.org/2000/svg">
<path d="M1.36486 0.491426L8.14757 6.59799C8.2667 6.70525 8.33337 6.84911 8.33337 6.99889C8.33337 7.14868 8.2667 7.29253 8.14757 7.39979L1.36486 13.5087C1.30936 13.5587 1.24302 13.5984 1.16973 13.6256C1.09644 13.6527 1.0177 13.6667 0.938155 13.6667C0.858609 13.6667 0.779867 13.6527 0.70658 13.6256C0.633293 13.5984 0.566946 13.5587 0.511454 13.5087C0.397289 13.4061 0.333374 13.2684 0.333374 13.125C0.333374 12.9816 0.397289 12.8439 0.511454 12.7413L6.88972 6.99889L0.511454 1.25762C0.39768 1.15509 0.334013 1.01764 0.334013 0.874522C0.334013 0.731409 0.39768 0.593951 0.511454 0.491426C0.566946 0.441407 0.633293 0.401651 0.70658 0.374505C0.779867 0.34736 0.858609 0.333374 0.938155 0.333374C1.0177 0.333374 1.09644 0.34736 1.16973 0.374505C1.24302 0.401651 1.30936 0.441407 1.36486 0.491426Z" fill="#19191B"/>
</svg>
