<svg width="9" height="14" viewBox="0 0 9 14" fill="none" xmlns="http://www.w3.org/2000/svg">
<path d="M7.63521 0.491426L0.852487 6.59799C0.733359 6.70525 0.666687 6.84911 0.666687 6.99889C0.666687 7.14868 0.733359 7.29253 0.852487 7.39979L7.63521 13.5087C7.6907 13.5587 7.75704 13.5984 7.83033 13.6256C7.90362 13.6527 7.98236 13.6667 8.06191 13.6667C8.14145 13.6667 8.22019 13.6527 8.29348 13.6256C8.36677 13.5984 8.43312 13.5587 8.48861 13.5087C8.60277 13.4061 8.66669 13.2684 8.66669 13.125C8.66669 12.9816 8.60277 12.8439 8.48861 12.7413L2.11034 6.99889L8.48861 1.25762C8.60238 1.15509 8.66605 1.01764 8.66605 0.874522C8.66605 0.731409 8.60238 0.593951 8.48861 0.491426C8.43312 0.441407 8.36677 0.401651 8.29348 0.374505C8.22019 0.34736 8.14145 0.333374 8.06191 0.333374C7.98236 0.333374 7.90362 0.34736 7.83033 0.374505C7.75704 0.401651 7.6907 0.441407 7.63521 0.491426Z" fill="#19191B"/>
</svg>
