<svg width="1200" height="198" viewBox="0 0 1200 198" fill="none" xmlns="http://www.w3.org/2000/svg">
<path d="M-141.824 118.155C-125.073 131.721 -106.804 142.742 -88.4556 153.968C-72.0706 163.993 -54.0556 172.564 -35.9284 178.974C-25.6453 182.611 -14.8402 184.389 -4.27224 186.971C12.3619 191.036 28.3832 194.617 45.5829 195.615C72.1272 197.154 98.5538 197.446 125.024 195.632C146.927 194.13 168.838 189.595 189.63 181.903C207.287 175.371 226.054 163.615 238.296 149.113C245.845 140.169 251.943 127.726 256.295 116.93C262.666 101.124 267.963 88.1204 266.795 71.0803C266.601 68.256 266.135 64.8843 265.329 61.3364C262.764 50.0474 255.199 40.213 244.791 35.143V35.143C232.561 29.1848 218.157 33.9731 211.448 44.9177C207.819 52.1728 208.197 56.7862 208.731 64.5758C209.005 68.5694 211.343 77.0409 213.875 80.316C217.04 84.411 221.456 88.4671 225.917 91.1028C241.378 100.238 261.556 98.5775 278.613 97.4083C303.821 95.6803 334.929 63.1468 334.929 63.1468M1204.77 168.484C1201.43 171.051 1196.38 172.126 1192.33 173.723C1183.24 177.304 1170.87 176.19 1161.33 176.844C1119.37 179.721 1075.94 175.498 1036.37 160.292C1010.3 150.277 980.429 139.858 968.454 112.219C963.806 101.489 961.713 89.7578 960.918 78.1478C960.223 68.0076 958.952 57.7297 961.08 47.6857C964.269 32.6346 970.186 21.2954 986.7 20.1633C1002.46 19.0831 1018.6 26.57 1019.8 44.1587C1020.47 53.8238 1021.07 62.4886 1018.81 71.9865C1015.87 84.3701 1007.7 101.46 998.969 110.127C978.8 130.151 955.542 132.647 926.842 132.614C908.41 132.593 889.046 122.01 875.301 110.331C861.216 98.3623 848.908 85.8147 833.041 76.0489C823.447 70.1438 809.99 59.4422 797.834 60.0223C780.915 60.8296 761.855 61.1927 747.533 71.1454V71.1454C724.024 87.4825 701.538 106.975 673.423 112.372C669.286 113.167 664.982 113.792 660.414 114.246C645.837 115.696 629.921 116.551 616.024 110.91C589.136 99.9944 566.326 70.8439 556.777 44.0521V44.0521C548.383 20.4992 520.032 6.10894 495.299 2.43779C419.624 -8.79479 357.25 35.6493 334.916 63.0393" stroke="#FFE167" stroke-linecap="round" stroke-dasharray="10 10"/>
</svg>
