<svg width="1160" height="328" viewBox="0 0 1160 328" fill="none" xmlns="http://www.w3.org/2000/svg">
<mask id="mask0_142_87" style="mask-type:alpha" maskUnits="userSpaceOnUse" x="0" y="0" width="1160" height="328">
<rect width="1160" height="328" rx="30" fill="#E8E8E8"/>
</mask>
<g mask="url(#mask0_142_87)">
<rect width="1160" height="328" rx="30" fill="white"/>
<path fill-rule="evenodd" clip-rule="evenodd" d="M195.41 193.093C190.453 201.833 185.626 209.876 182.064 216.569C184.802 222.848 189.399 232.358 194.618 242.417C211.811 276.774 233.944 321.137 218.08 330.153L216.447 331.147L214.769 330.835C202.251 329.553 189.82 327.526 177.543 324.766C156.56 320.858 131.52 316.194 120.609 314.162C114.015 320.723 107.875 327.724 102.232 335.114C85.0523 355.857 65.9286 379.266 49.0557 371.941C32.1829 364.615 34.7612 293.268 35.1385 270.261L35.4241 268.728C29.6182 262.598 9.73824 259.761 -7.73761 257.227C-17.1861 256.23 -26.5413 254.488 -35.7151 252.016L-43.227 249.607L-48.2614 244.775C-45.9591 227.752 -27.0822 212.662 -11.8716 204.822C-7.52342 202.458 -4.11838 200.496 -1.18498 198.735C4.71118 195.002 10.9682 191.867 17.4926 189.377C19.6552 174.431 21.0568 159.383 21.6923 144.294C23.2464 119.631 24.7269 97.6948 34.5625 94.6228L35.4018 94.7792C50.5069 91.3907 68.8391 103.315 87.425 115.431C103.167 125.719 119.241 135.78 127.314 134.399C130.014 133.892 136.041 131.842 143.57 129.494C171.067 120.192 215.441 106.534 226.777 121.05L230.412 125.621L228.483 131.319C219.065 152.657 208.202 173.331 195.97 193.197" fill="#FFE167"/>
<path fill-rule="evenodd" clip-rule="evenodd" d="M971.118 -39.0947C973.801 -35.3791 976.22 -31.8504 978.318 -29.1015C981.437 -29.0276 986.246 -29.1012 991.4 -29.3258C1008.88 -29.8327 1031.45 -30.4589 1032.18 -22.1965L1032.28 -21.3335L1031.84 -20.7018C1028.94 -15.7896 1025.75 -11.0557 1022.28 -6.52561C1016.69 1.37165 1010.03 10.7957 1007.12 14.9022C1008.59 18.8753 1010.33 22.745 1012.32 26.4849C1017.67 37.5341 1023.75 49.8949 1017.52 55.4445C1011.29 60.9941 982.226 46.2732 972.768 41.7134L972.186 41.3021C968.549 42.5208 963.613 50.1686 959.258 56.8839C957.058 60.5861 954.567 64.107 951.807 67.4136L949.389 70.0475L946.435 71.1967C939.819 66.9892 937.138 56.3228 936.768 48.5549C936.612 46.3109 936.443 44.5324 936.268 42.9866C935.837 39.8426 935.722 36.6644 935.925 33.4996C930.142 29.7472 924.174 26.2891 918.044 23.1386C908.122 17.7769 899.315 12.9675 899.903 8.32696L900.126 8.01108C901.58 1.13876 909.987 -4.13169 918.522 -9.47006C925.761 -13.9866 932.969 -18.6832 933.924 -22.2739C934.225 -23.4832 934.515 -26.359 934.967 -29.9108C936.315 -43.0205 939.051 -63.9182 947.208 -65.8101L949.79 -66.4328L951.785 -64.5468C958.842 -56.5816 965.351 -48.1483 971.267 -39.3052" fill="#FFE167"/>
<path fill-rule="evenodd" clip-rule="evenodd" d="M1083.29 57.9219C1083.11 59.4087 1082.91 60.7922 1082.81 61.9173C1083.54 62.6256 1084.71 63.6725 1086 64.7595C1090.32 68.5083 1095.88 73.353 1094.22 75.501L1094.06 75.7312L1093.81 75.7841C1092.03 76.3228 1090.21 76.754 1088.38 77.0754C1085.29 77.7362 1081.6 78.5246 1079.99 78.8682C1079.46 80.1486 1079.02 81.4634 1078.68 82.8035C1077.51 86.6416 1076.24 90.958 1073.51 90.9133C1070.79 90.8686 1067.06 80.8961 1065.8 77.7063L1065.75 77.4788C1064.61 76.9664 1061.73 77.7116 1059.19 78.3612C1057.85 78.7638 1056.47 79.0584 1055.07 79.2421L1053.91 79.3396L1052.94 78.9619C1052.28 76.4861 1054 73.3295 1055.63 71.3807C1056.09 70.8068 1056.45 70.3421 1056.75 69.9319C1057.34 69.0809 1058.01 68.2917 1058.76 67.5761C1058.2 65.3942 1057.54 63.242 1056.76 61.1277C1055.56 57.6426 1054.51 54.5372 1055.68 53.5522L1055.8 53.5258C1057.67 52.196 1060.86 52.7907 1064.09 53.3971C1066.83 53.9144 1069.61 54.3815 1070.63 53.7301C1070.97 53.506 1071.68 52.8793 1072.57 52.1258C1075.8 49.2737 1081.08 44.8574 1083.46 46.2086L1084.22 46.6304L1084.28 47.5254C1084.21 51.0019 1083.91 54.4696 1083.37 57.9042" fill="#FFE167"/>
</g>
</svg>
