<svg width="166" height="95" viewBox="0 0 166 95" fill="none" xmlns="http://www.w3.org/2000/svg">
<path d="M9.0317 73.783L10.0534 80.2907L15.3908 76.4199L11.512 81.7524L18.0155 82.786L11.5083 83.8196L15.3683 89.1521L10.0445 85.2813L8.99977 91.7891L7.97809 85.2813L2.64065 89.1521L6.51949 83.8196L0.0159601 82.786L6.52316 81.7524L2.66322 76.4199L7.98694 80.2907L9.0317 73.783Z" fill="#19191B"/>
<path d="M151.888 74.2204L154.878 80.093L158.752 74.7636L156.718 81.0324L163.223 80.0064L157.356 82.9992L162.68 86.8776L156.417 84.8413L157.442 91.3521L154.452 85.4795L150.577 90.8089L152.612 84.5401L146.107 85.5661L151.974 82.5733L146.65 78.6949L152.913 80.7312L151.888 74.2204Z" fill="#19191B"/>
<path d="M14.2655 64.7202L16.5563 65.4036L16.6883 64.9601L15.3828 64.5707C14.7916 64.3943 14.6412 64.269 14.8173 63.6777L16.475 58.11C16.651 57.5187 16.8454 57.4962 17.4366 57.6726L18.7421 58.062L18.8742 57.6185L16.5833 56.9352L16.2569 58.0315L8.49774 55.717C7.90656 55.5407 7.75248 55.4276 7.92851 54.8364L8.06054 54.3929L7.9497 54.3598L6.16363 60.3588L6.27448 60.3918L6.35516 60.1208C6.61189 59.2586 6.69049 59.1747 7.55262 59.4319L10.0528 60.1777C12.5001 60.9211 14.0104 62.7396 14.5186 63.8703L14.2655 64.7202ZM14.922 62.5153C14.0179 61.5884 12.3035 60.5003 9.85258 59.7692L6.84743 58.8728L7.55892 56.4831L15.9709 58.9923L14.922 62.5153Z" fill="#19191B"/>
<path d="M19.5579 51.3456C20.7533 48.7691 19.8406 46.2472 17.2649 45.0499C14.7008 43.8581 12.187 44.7872 10.9916 47.3638C9.78532 49.9637 10.698 52.4855 13.2621 53.6774C15.8378 54.8747 18.3516 53.9455 19.5579 51.3456ZM19.3643 51.2132C18.3528 53.3933 16.3201 53.8658 13.5229 52.5656C11.0171 51.4008 10.1952 49.6298 11.1797 47.5079C12.1804 45.351 14.2302 44.8724 17.0157 46.1672C19.5332 47.3373 20.3434 49.1029 19.3643 51.2132Z" fill="#19191B"/>
<path d="M22.1181 46.1468L23.5085 44.0925L23.4127 44.0276L23.1534 44.4108C22.7572 44.9962 22.5753 45.0127 22.32 44.8395C22.2562 44.7963 22.1783 44.7279 22.0898 44.6523L16.6852 40.5993C16.5009 40.4588 16.4265 40.4084 16.3307 40.3434L16.3596 40.3009C16.3915 40.3225 16.608 40.4383 16.8856 40.4867L25.0494 41.9075L25.1455 41.9261L25.1599 41.9048L25.1071 41.8223L20.6731 34.6385C20.5145 34.3912 20.3841 34.1941 20.3522 34.1724L20.3954 34.1086C20.5124 34.1879 20.672 34.2961 20.8707 34.4153L26.6207 38.0038C26.6952 38.0543 26.759 38.0976 26.8122 38.1336C27.0675 38.3067 27.166 38.4822 26.777 39.057L26.5176 39.4402L26.6133 39.5051L28.4936 36.7271L28.3978 36.6621L28.2393 36.8963C27.8431 37.4817 27.6438 37.4552 27.023 37.0654L20.911 33.278C20.7974 33.2165 20.7017 33.1516 20.6166 33.0939C20.3081 32.8847 20.199 32.702 20.552 32.1805L20.7969 31.8186L20.7012 31.7537L19.6206 33.3502L23.85 40.2401C23.9592 40.4228 24.1428 40.656 24.2066 40.6993L24.1706 40.7525C24.1067 40.7092 23.8827 40.6505 23.6051 40.602L15.644 39.2256L14.585 40.7902L14.6808 40.8551L14.9689 40.4294C15.2787 39.9717 15.4283 39.98 15.6623 40.1386C15.7368 40.1891 15.8113 40.2396 15.8857 40.2901L21.829 44.7395C22.4031 45.1754 22.505 45.3687 22.1376 45.9116L22.0224 46.0819L22.1181 46.1468Z" fill="#19191B"/>
<path d="M29.0107 36.6072L30.3704 35.1337L26.7022 26.7713L32.1758 31.8318C32.6287 32.2506 32.7173 32.42 32.2989 32.8734L32.0636 33.1284L32.1485 33.2069L34.3014 30.8739L34.2165 30.7954L33.9027 31.1354C33.4843 31.5888 33.3086 31.5139 32.8556 31.0951L27.4104 26.0607C26.9574 25.6419 26.8689 25.4725 27.2873 25.0192L27.6011 24.6791L27.5161 24.6006L26.1477 26.0835L29.8158 34.446L24.3423 29.3854C23.8893 28.9666 23.8095 28.7878 24.2279 28.3345L24.4545 28.0889L24.3696 28.0103L22.2254 30.3339L22.3103 30.4124L22.6154 30.0818C23.0338 29.6285 23.2095 29.7034 23.6625 30.1222L29.1077 35.1565C29.5606 35.5753 29.6492 35.7447 29.2308 36.1981L28.9257 36.5287L29.0107 36.6072Z" fill="#19191B"/>
<path d="M35.6015 29.8566L38.1167 27.7554L38.0427 27.6666L37.6974 27.955C37.224 28.3505 37.1154 28.3407 36.6545 27.7879L33.7573 24.3132L33.8757 24.2143C35.2467 23.069 36.4596 24.0822 37.6298 25.0641C38.6468 25.9226 39.5964 26.7203 40.5532 25.9211C40.7998 25.7151 40.9772 25.3659 41.0476 24.8884L41.0853 24.6727L40.9685 24.653L40.9308 24.8687C40.8685 25.1553 40.7518 25.3364 40.6137 25.4518C40.0318 25.938 39.4343 25.382 38.6855 24.6845C37.6009 23.6647 36.3517 22.5479 34.4789 23.4928L34.4361 23.4615L34.35 20.1673C34.3281 19.298 34.7981 18.6374 35.2321 18.2749L35.3504 18.176L35.2764 18.0872L33.0965 19.9082L33.1706 19.997L33.2593 19.9228C33.5651 19.6674 33.8463 19.5832 34.0027 19.7708C34.0768 19.8596 34.1246 20.0374 34.1297 20.2843L34.2091 23.5506C34.2093 23.7514 34.0383 23.9277 33.6832 24.2244L31.8313 22.0033C31.4363 21.5295 31.4543 21.4307 31.9278 21.0352L32.0165 20.9611L31.9425 20.8722L29.6837 22.7591L29.7577 22.848L30.103 22.5596C30.5764 22.1641 30.6669 22.1722 31.062 22.646L35.8851 28.4306C36.346 28.9834 36.3461 29.0838 35.8727 29.4793L35.5274 29.7677L35.6015 29.8566Z" fill="#19191B"/>
<path d="M42.3897 24.4688L44.0817 23.3931L42.6788 14.3702L46.673 20.6642C47.0035 21.1851 47.0457 21.3715 46.5251 21.7025L46.2323 21.8887L46.2942 21.9864L48.9732 20.2831L48.9112 20.1855L48.5207 20.4337C48.0001 20.7647 47.8495 20.6473 47.5189 20.1264L43.5454 13.8649C43.2149 13.344 43.1727 13.1576 43.6933 12.8266L44.0837 12.5784L44.0218 12.4807L42.319 13.5633L43.7218 22.5862L39.7277 16.2922C39.3971 15.7713 39.3658 15.578 39.8864 15.247L40.1684 15.0677L40.1064 14.9701L37.4383 16.6664L37.5003 16.7641L37.8799 16.5227C38.4005 16.1917 38.5511 16.3092 38.8817 16.8301L42.8552 23.0915C43.1857 23.6124 43.2279 23.7988 42.7073 24.1298L42.3277 24.3712L42.3897 24.4688Z" fill="#19191B"/>
<path d="M56.3956 11.4443L57.0117 11.2205C58.111 10.8211 59.318 11.5859 59.8482 13.0479C60.3784 14.5098 59.8616 15.5728 58.6536 16.0117C58.0737 16.2224 57.2042 16.2375 56.4635 15.8913L56.3711 16.0889C57.1777 16.4659 58.0922 16.4618 58.7324 16.2292C60.3995 15.6235 61.2888 14.1927 60.7542 12.7187C60.2941 11.45 58.917 10.5556 57.6641 10.833L57.6598 10.8209C58.3924 10.3907 58.8479 9.15855 58.5236 8.26445C58.138 7.20119 56.8527 6.8614 55.5118 7.34858C55.0814 7.51867 54.5574 7.84578 54.2541 8.2158C54.175 8.29924 54.098 8.46396 54.0804 8.56609L54.0398 8.56717L53.8645 8.08388L53.7558 8.12338L54.5401 10.2861L54.7455 10.2115L54.6009 9.8128C54.3808 9.01758 54.4673 7.97425 55.6028 7.56168C56.5571 7.21494 57.411 7.53373 57.7834 8.56073C58.169 9.62399 57.7301 10.7133 56.7516 11.0688L56.3168 11.2268L56.3956 11.4443Z" fill="#19191B"/>
<path d="M67.3337 8.84126L66.3574 9.06903C64.3423 9.53917 63.2479 10.9031 63.6093 12.4553C63.8979 13.6945 65.1012 14.2716 66.4529 13.9562C67.3541 13.746 68.0578 13.0275 68.0835 11.4378L68.2086 11.4086C68.2553 11.6089 68.3628 11.9006 68.4982 12.1989C68.6541 12.5849 68.8283 12.9929 68.8983 13.2934L68.9216 13.3935C69.2458 13.1991 69.623 13.0055 70.2092 12.8027L70.183 12.6901L69.9731 12.7522C69.9731 12.7522 69.8008 12.8056 69.7257 12.8232C69.3502 12.9108 69.2806 12.7818 69.164 12.2811L67.724 6.09747C67.418 4.78313 66.4007 4.26819 64.7861 4.64488C64.0351 4.82009 63.5081 5.2202 63.1871 5.59863C63.1141 5.68166 63.0577 5.89278 63.0539 5.93325L62.9605 5.92866C62.9651 5.8352 62.9455 5.69458 62.9172 5.51642L62.8003 4.84423L62.6751 4.87343L63.2254 7.85969L63.4507 7.80713L63.295 7.0252C63.1206 6.04967 63.612 5.15637 64.8511 4.86728C65.8023 4.64535 66.4621 5.09852 66.7099 6.16251L67.3337 8.84126ZM67.3861 9.06658L67.7359 10.5687C68.1528 12.3587 67.4006 13.3788 66.5244 13.5832C65.6608 13.7847 64.9402 13.2402 64.6982 12.2012C64.3659 10.7742 65.0706 9.6068 66.4724 9.27975L67.3861 9.06658Z" fill="#19191B"/>
<path d="M72.4588 12.6725L75.6048 12.3584L75.5934 12.2433L75.2609 12.2765C74.647 12.3378 74.5524 12.1664 74.4912 11.5525L73.6883 3.49539L77.1925 3.14553L77.9954 11.2027C78.0566 11.8165 78.0105 12.002 77.3966 12.0633L77.0513 12.0977L77.0628 12.2128L80.2216 11.8975L80.2101 11.7824L79.7497 11.8283C79.1359 11.8896 79.0541 11.717 78.9929 11.1031L78.2576 3.72376C78.1964 3.10989 78.2425 2.92445 78.8563 2.86316L79.3167 2.8172L79.3053 2.7021L71.5424 3.47714L71.5539 3.59224L72.0015 3.54755C72.6154 3.48626 72.6972 3.65893 72.7583 4.27281L73.4937 11.6521C73.5549 12.266 73.5088 12.4514 72.8949 12.5127L72.4473 12.5574L72.4588 12.6725Z" fill="#19191B"/>
<path d="M86.5419 7.46265L85.5399 7.43232C83.4716 7.36972 82.0646 8.40724 82.0167 10.0002C81.9784 11.272 82.9939 12.1386 84.3813 12.1806C85.3063 12.2086 86.1704 11.6947 86.6021 10.1647L86.7306 10.1686C86.7244 10.3742 86.7537 10.6836 86.8083 11.0068C86.8601 11.4198 86.9241 11.8589 86.9148 12.1672L86.9117 12.27C87.2749 12.1653 87.6891 12.0749 88.3076 12.0294L88.3111 11.9137L88.0923 11.92C88.0923 11.92 87.9121 11.9274 87.835 11.9251C87.4496 11.9134 87.4153 11.7709 87.4308 11.257L87.6216 4.9108C87.6622 3.5619 86.8106 2.80321 85.1534 2.75305C84.3826 2.72972 83.7707 2.98122 83.3636 3.26464C83.2718 3.32615 83.1632 3.51574 83.1492 3.55389L83.06 3.52548C83.0884 3.43633 83.1055 3.29541 83.1238 3.11594L83.1828 2.43624L83.0543 2.43235L82.8218 5.45988L83.0531 5.46688L83.1027 4.67116C83.1839 3.68353 83.8875 2.94618 85.1593 2.98468C86.1357 3.01423 86.6575 3.6215 86.6246 4.71347L86.5419 7.46265ZM86.535 7.69389L86.4886 9.23549C86.4334 11.0726 85.4452 11.8656 84.5459 11.8384C83.6595 11.8115 83.1023 11.1003 83.1343 10.034C83.1784 8.56953 84.1584 7.62196 85.5972 7.66551L86.535 7.69389Z" fill="#19191B"/>
<path d="M91.6035 12.6647L95.8449 13.3261L95.8627 13.2118L94.923 13.0653C94.3134 12.9702 94.2598 12.8968 94.3547 12.2872L95.6178 4.17224L96.3543 4.2871C97.5734 4.47721 97.9423 4.78187 97.8414 6.01489L97.7965 6.55421L98.029 6.56445L98.2951 3.60116L98.1535 3.59207L98.1043 4.32585L92.1866 3.40302L92.352 2.67437L92.227 2.64186L91.5779 5.55845L91.7899 5.61752L91.9237 5.09206C92.1769 3.8828 92.6462 3.70884 93.8653 3.89895L94.6273 4.01777L93.3642 12.1328C93.2693 12.7424 93.1959 12.796 92.5864 12.7009L91.6213 12.5504L91.6035 12.6647Z" fill="#19191B"/>
<path d="M101.727 9.59556L108.735 11.6837C108.945 11.7461 109.161 11.6497 109.224 11.4403L109.242 11.3787C109.905 9.14887 108.554 7.11012 106.41 6.47155C103.676 5.65683 101.33 6.91596 100.528 9.61387C99.7148 12.3487 101.106 14.7482 103.693 15.5189C105.43 16.0363 107.029 15.7082 108.167 14.6792L108.022 14.4886C106.949 15.483 105.446 15.7999 103.796 15.3081C101.69 14.6806 100.804 12.7 101.683 9.74339C101.698 9.69411 101.712 9.64483 101.727 9.59556ZM101.793 9.37381C102.618 7.00459 104.189 6.05106 106.295 6.67862C108.032 7.19608 108.772 8.94544 108.146 11.052C108.124 11.1259 108.076 11.1519 108.014 11.1335L101.793 9.37381Z" fill="#19191B"/>
<path d="M108.689 17.1996L111.564 18.5165L111.612 18.4113L111.308 18.2721C110.747 18.0152 110.752 17.8194 111.008 17.2584L112.601 13.7753L115.803 15.2421L114.21 18.7252C113.953 19.2862 113.82 19.4231 113.259 19.1662L112.944 19.0216L112.896 19.1268L115.782 20.4491L115.83 20.3439L115.409 20.1512C114.848 19.8942 114.865 19.7038 115.121 19.1428L118.205 12.3986C118.462 11.8376 118.595 11.7007 119.156 11.9577L119.577 12.1504L119.625 12.0452L116.739 10.7229L116.691 10.8281L116.995 10.9673C117.555 11.2242 117.551 11.42 117.294 11.981L115.899 15.0317L112.697 13.5649L114.093 10.5142C114.349 9.9532 114.494 9.82168 115.055 10.0786L115.359 10.2178L115.407 10.1126L112.532 8.79572L112.484 8.90091L112.893 9.08828C113.454 9.34524 113.438 9.53564 113.181 10.0967L110.097 16.8408C109.841 17.4019 109.707 17.5387 109.146 17.2818L108.737 17.0944L108.689 17.1996Z" fill="#19191B"/>
<path d="M118.063 21.9435L121.702 24.221L121.763 24.1229L120.957 23.6183C120.434 23.291 120.413 23.2024 120.74 22.6792L125.092 15.714L125.724 16.1095C126.769 16.7642 126.989 17.1895 126.411 18.2836L126.158 18.7619L126.368 18.8628L127.777 16.2426L127.651 16.1785L127.317 16.8339L122.24 13.6563L122.679 13.0513L122.576 12.9722L120.833 15.3988L121.005 15.5365L121.334 15.106C122.043 14.0937 122.542 14.1184 123.588 14.773L124.242 15.1822L119.89 22.1473C119.564 22.6705 119.475 22.6909 118.952 22.3636L118.124 21.8454L118.063 21.9435Z" fill="#19191B"/>
<path d="M128.07 29.351C130.244 31.1791 132.914 30.9564 134.74 28.7808C136.558 26.6152 136.317 23.9438 134.143 22.1156C131.95 20.2709 129.279 20.4936 127.461 22.6593C125.635 24.8348 125.876 27.5062 128.07 29.351ZM128.248 29.1986C126.409 27.6517 126.483 25.5644 128.466 23.2018C130.243 21.0854 132.165 20.7541 133.955 22.2597C135.775 23.7901 135.703 25.8955 133.728 28.2482C131.943 30.3745 130.029 30.6959 128.248 29.1986Z" fill="#19191B"/>
<path d="M133.951 34.656L133.97 34.6388C134.187 34.6504 134.383 34.5607 134.603 34.363L140.117 29.4036C140.336 29.2059 140.456 29.012 140.468 28.7941L140.477 28.7855L141.173 29.5601C142.023 30.5069 142.082 31.6118 141.308 32.308C140.553 32.987 139.468 32.8563 138.713 32.0147L138.369 31.6322L138.207 31.7783L138.662 32.2852C139.727 33.471 139.669 35.0614 138.522 36.0928C137.433 37.0727 135.994 36.9321 134.929 35.7462L133.951 34.656ZM132.499 33.3857L134.912 36.0731C136.243 37.5555 138.075 37.9992 139.269 36.9248C140.244 36.0481 140.475 34.2849 139.444 32.9643L139.483 32.9299C140.397 33.698 141.512 33.5937 142.057 33.1037C142.917 32.3302 142.684 30.8973 141.465 29.5393L139.37 27.2058L139.284 27.2831L139.584 27.6179C139.996 28.0769 139.992 28.1677 139.533 28.5803L133.847 33.6944C133.389 34.107 133.298 34.1022 132.886 33.6431L132.585 33.3084L132.499 33.3857Z" fill="#19191B"/>
<path d="M144.553 41.0584L143.981 40.2351C142.8 38.5358 141.129 38.0232 139.821 38.9337C138.777 39.6607 138.685 40.9929 139.478 42.1328C140.006 42.8928 140.933 43.281 142.418 42.7165L142.492 42.822C142.323 42.9395 142.092 43.1474 141.865 43.3838C141.564 43.6715 141.249 43.9845 140.996 44.1607L140.912 44.2195C141.212 44.4489 141.531 44.7279 141.936 45.1978L142.031 45.1318L141.895 44.9597C141.895 44.9597 141.782 44.8192 141.738 44.7559C141.518 44.4393 141.612 44.3268 142.034 44.0331L147.245 40.4057C148.353 39.6347 148.455 38.4984 147.509 37.1369C147.069 36.5036 146.503 36.1617 146.033 36.0034C145.929 35.9662 145.712 35.9919 145.673 36.0034L145.643 35.9148C145.731 35.8845 145.855 35.8143 146.01 35.7221L146.591 35.3646L146.517 35.259L143.947 36.8759L144.079 37.0658L144.748 36.6317C145.59 36.1085 146.601 36.2347 147.327 37.2796C147.884 38.0818 147.707 38.8628 146.81 39.487L144.553 41.0584ZM144.363 41.1905L143.097 42.0717C141.589 43.1217 140.364 42.8001 139.85 42.0612C139.344 41.333 139.584 40.4615 140.459 39.852C141.662 39.0149 143.006 39.2379 143.828 40.42L144.363 41.1905Z" fill="#19191B"/>
<path d="M142.889 47.2456L144.342 50.0533L144.445 50L144.291 49.7033C144.008 49.1554 144.132 49.0041 144.68 48.7201L148.079 46.9566L149.698 50.0839L146.299 51.8474C145.751 52.1314 145.562 52.1572 145.278 51.6094L145.119 51.3012L145.016 51.3544L146.475 54.1736L146.578 54.1203L146.365 53.7095C146.082 53.1616 146.212 53.0217 146.759 52.7376L153.343 49.3231C153.89 49.0391 154.079 49.0133 154.363 49.5611L154.576 49.972L154.678 49.9188L153.219 47.0996L153.116 47.1529L153.27 47.4496C153.554 47.9975 153.429 48.1488 152.882 48.4329L149.904 49.9774L148.285 46.8501L151.263 45.3055C151.81 45.0215 152.005 45.0071 152.289 45.555L152.443 45.8517L152.545 45.7985L151.092 42.9907L150.989 43.044L151.196 43.4435C151.479 43.9913 151.349 44.1312 150.802 44.4153L144.219 47.8298C143.671 48.1138 143.482 48.1396 143.198 47.5918L142.991 47.1923L142.889 47.2456Z" fill="#19191B"/>
<path d="M149.145 61.8472L150.215 64.9449L150.324 64.907L150.177 64.4819C149.976 63.8988 149.999 63.8091 150.582 63.6073L157.809 61.1056C158.392 60.9038 158.466 60.9599 158.667 61.543L158.814 61.9681L158.948 61.9219L157.877 58.8242L157.768 58.8621L157.915 59.2872C158.116 59.8703 158.089 59.9479 157.506 60.1497L150.255 62.6597C149.672 62.8615 149.602 62.8176 149.401 62.2345L149.254 61.8094L149.145 61.8472ZM147.008 55.664L148.024 58.6038C148.666 60.4624 149.993 61.3903 151.341 60.9236C152.689 60.4569 153.16 58.9067 152.518 57.0481L152.199 56.1249L155.672 54.9224C156.255 54.7206 156.353 54.7683 156.555 55.3514L156.702 55.7765L156.811 55.7387L155.741 52.641L155.631 52.6789L155.778 53.104C155.98 53.6871 155.952 53.7647 155.369 53.9665L148.143 56.4681C147.56 56.6699 147.478 56.6302 147.277 56.0471L147.13 55.622L147.008 55.664ZM151.992 56.1964L152.232 56.8888C152.739 58.3587 152.3 59.4085 150.976 59.8668C149.652 60.325 148.671 59.7671 148.163 58.2973L147.852 57.3983L147.877 57.3899C148.073 57.4852 148.288 57.4787 148.567 57.382L151.992 56.1964Z" fill="#19191B"/>
</svg>
