<svg width="166" height="94" viewBox="0 0 166 94" fill="none" xmlns="http://www.w3.org/2000/svg">
<path d="M8.57019 73.5512L11.3074 79.5243L15.3407 74.3539L13.0926 80.5314L19.5659 79.7547L13.6496 82.5181L18.7709 86.59L12.6519 84.3204L13.4213 90.8557L10.6841 84.8827L6.65083 90.0531L8.89886 83.8755L2.42555 84.6523L8.34193 81.8889L3.22058 77.817L9.33957 80.0865L8.57019 73.5512Z" fill="#19191B"/>
<path d="M152.579 73.5512L155.316 79.5243L159.349 74.3539L157.101 80.5314L163.575 79.7547L157.658 82.5181L162.78 86.59L156.661 84.3204L157.43 90.8557L154.693 84.8827L150.659 90.0531L152.907 83.8755L146.434 84.6523L152.351 81.8889L147.229 77.817L153.348 80.0865L152.579 73.5512Z" fill="#19191B"/>
<path d="M17.0254 64.1785L17.9799 61.1643L17.8698 61.1288L17.7689 61.4474C17.5827 62.0355 17.3882 62.0538 16.8011 61.8643L9.09546 59.3772L10.1586 56.0199L17.8642 58.507C18.4513 58.6965 18.6031 58.813 18.4169 59.4012L18.3121 59.732L18.4222 59.7675L19.3806 56.7411L19.2705 56.7055L19.1308 57.1466C18.9446 57.7348 18.754 57.7408 18.1669 57.5513L11.1095 55.2734C10.5224 55.0839 10.3706 54.9674 10.5568 54.3793L10.6965 53.9382L10.5864 53.9026L8.23121 61.3401L8.34129 61.3756L8.47709 60.9467C8.66333 60.3586 8.85397 60.3526 9.44106 60.5421L16.4984 62.82C17.0855 63.0095 17.2374 63.126 17.0511 63.7141L16.9153 64.143L17.0254 64.1785Z" fill="#19191B"/>
<path d="M23.5275 48.2522C24.8801 45.7546 24.1319 43.169 21.6452 41.7963C19.1697 40.4299 16.6098 41.1895 15.2572 43.6872C13.8923 46.2074 14.6406 48.7931 17.116 50.1595C19.6027 51.5321 22.1626 50.7725 23.5275 48.2522ZM23.3433 48.1065C22.1988 50.2199 20.1465 50.5551 17.446 49.0645C15.0268 47.7291 14.3213 45.9011 15.4353 43.8442C16.5675 41.7534 18.6372 41.4132 21.3265 42.8976C23.7569 44.2391 24.4511 46.061 23.3433 48.1065Z" fill="#19191B"/>
<path d="M21.9091 33.5484L21.9979 33.6225L22.1771 33.4038C22.7474 32.708 22.852 32.6614 23.5425 33.2382L25.5448 34.9109C27.4995 36.5606 28.0495 38.728 28.086 39.981L29.2194 39.9566C29.2129 38.8291 28.1535 36.6547 25.5199 34.4547L23.1132 32.4442L25.0196 30.1181L31.2337 35.3092C31.7072 35.7047 31.8045 35.8698 31.4135 36.3469L31.1935 36.6153L31.2823 36.6895L33.2946 34.2342L33.2058 34.16L32.9125 34.5179C32.5215 34.995 32.3426 34.9294 31.8692 34.5338L26.1778 29.7795C25.7044 29.384 25.607 29.2189 25.9981 28.7418L26.2914 28.3839L26.2026 28.3098L24.842 29.9698L22.6098 32.6935L21.9091 33.5484Z" fill="#19191B"/>
<path d="M36.4746 31.0116L38.8785 28.958L38.8042 28.8693L38.5501 29.0864C38.0811 29.4871 37.9069 29.3993 37.5106 28.9265L35.0503 25.9911L37.7279 23.7037L40.1881 26.6391C40.5844 27.1119 40.6511 27.2915 40.1821 27.6922L39.9182 27.9176L39.9925 28.0063L42.4062 25.9443L42.3319 25.8557L41.9801 26.1562C41.5111 26.5569 41.3466 26.4607 40.9503 25.9879L36.1867 20.3044C35.7904 19.8316 35.7237 19.652 36.1927 19.2512L36.5445 18.9507L36.4702 18.8621L34.0565 20.9241L34.1308 21.0127L34.3849 20.7957C34.854 20.3949 35.0282 20.4828 35.4245 20.9556L37.5792 23.5264L34.9017 25.8138L32.7469 23.243C32.3506 22.7701 32.2937 22.5822 32.7627 22.1814L33.0168 21.9644L32.9425 21.8757L30.5386 23.9294L30.6129 24.018L30.9549 23.7259C31.4239 23.3251 31.5884 23.4213 31.9847 23.8941L36.7483 29.5776C37.1446 30.0504 37.2114 30.2301 36.7423 30.6308L36.4003 30.923L36.4746 31.0116Z" fill="#19191B"/>
<path d="M51.7293 20.0873L54.5809 18.4718L54.5247 18.3707L54.1333 18.5924C53.5965 18.8965 53.5045 18.8896 53.2047 18.3504L49.4895 11.6663C49.1898 11.1271 49.2319 11.0441 49.7687 10.74L50.1601 10.5183L50.0914 10.3947L47.2398 12.0102L47.296 12.1113L47.6874 11.8896C48.2242 11.5855 48.3051 11.5987 48.6048 12.138L52.3325 18.8445C52.6322 19.3837 52.6013 19.4603 52.0645 19.7644L51.6731 19.9862L51.7293 20.0873ZM46.0374 23.3119L48.7436 21.7788C50.4545 20.8095 51.1331 19.332 50.44 18.085C49.7469 16.8381 48.1442 16.653 46.4333 17.6223L45.5834 18.1038L43.7976 14.8909C43.4979 14.3517 43.5275 14.2463 44.0643 13.9422L44.4557 13.7204L44.3995 13.6193L41.5479 15.2348L41.6041 15.3359L41.9955 15.1142C42.5323 14.8101 42.6131 14.8234 42.9129 15.3626L46.6281 22.0467C46.9278 22.5859 46.9031 22.6737 46.3663 22.9778L45.9749 23.1996L46.0374 23.3119ZM45.6895 18.2947L46.3269 17.9336C47.68 17.1671 48.7865 17.4117 49.4671 18.6362C50.1477 19.8607 49.7718 20.9304 48.4187 21.6969L47.5912 22.1657L47.5787 22.1433C47.638 21.9324 47.594 21.721 47.4504 21.4627L45.6895 18.2947Z" fill="#19191B"/>
<path d="M58.6526 16.795L60.5537 16.158L61.4016 7.0499L63.7297 14.1315C63.9223 14.7175 63.9176 14.9089 63.3326 15.1049L63.0036 15.2151L63.0397 15.325L66.0498 14.3164L66.0137 14.2065L65.575 14.3535C64.99 14.5496 64.8729 14.399 64.6802 13.813L62.3642 6.76803C62.1716 6.18197 62.1763 5.99062 62.7612 5.79461L63.2 5.64761L63.1638 5.53773L61.2506 6.17881L60.4026 15.2869L58.0746 8.20537C57.8819 7.61931 57.8988 7.42388 58.4838 7.22788L58.8006 7.12171L58.7645 7.01182L55.7666 8.01633L55.8027 8.12622L56.2293 7.9833C56.8142 7.7873 56.9313 7.93782 57.124 8.52388L59.44 15.5688C59.6327 16.1549 59.6279 16.3462 59.043 16.5422L58.6164 16.6852L58.6526 16.795ZM57.2377 5.08359C57.4986 5.87722 58.4427 6.23861 59.381 5.92419C60.3072 5.61386 60.8621 4.75021 60.6012 3.95658L60.1504 4.06696C60.3712 4.73849 59.9912 5.47575 59.3088 5.70442C58.6141 5.93717 57.8851 5.57149 57.6644 4.89996L57.2377 5.08359Z" fill="#19191B"/>
<path d="M78.8477 12.177L82.1238 12.0868L82.1207 11.9711L81.671 11.9835C81.0543 12.0005 80.9752 11.9255 80.9557 11.2061L80.8335 6.68366L80.9877 6.67941C82.7735 6.63023 83.0982 8.17702 83.4086 9.67278C83.6752 10.9769 83.9266 12.1914 85.1729 12.1571C85.494 12.1482 85.8496 11.9842 86.2007 11.6531L86.3639 11.5071L86.2843 11.4193L86.1211 11.5652C85.8948 11.7515 85.6909 11.8214 85.5111 11.8263C84.7531 11.8472 84.6284 11.0406 84.4725 10.0292C84.2527 8.55666 83.9638 6.90602 81.9082 6.48691L81.894 6.43588L83.867 3.79722C84.3882 3.10142 85.1663 2.87427 85.7316 2.85871L85.8858 2.85446L85.8827 2.73883L83.0433 2.81703L83.0465 2.93266L83.1621 2.92947C83.5604 2.9185 83.8333 3.0267 83.8399 3.27081C83.843 3.38644 83.7704 3.55558 83.6215 3.75255L81.6606 6.36516C81.5363 6.52287 81.2929 6.55529 80.8304 6.56803L80.7523 3.67728C80.7356 3.06059 80.811 2.99422 81.4277 2.97724L81.5433 2.97406L81.5402 2.85843L78.5981 2.93945L78.6012 3.05508L79.0509 3.0427C79.6675 3.02571 79.7335 3.08818 79.7502 3.70488L79.9536 11.2337C79.9731 11.9531 79.9109 12.032 79.2942 12.049L78.8446 12.0614L78.8477 12.177Z" fill="#19191B"/>
<path d="M94.9836 13.0708C97.7885 13.5186 99.9592 11.9519 100.399 9.14568C100.836 6.35219 99.2502 4.18579 96.4453 3.73804C93.615 3.28624 91.4443 4.85295 91.0068 7.64644C90.5673 10.4526 92.1533 12.619 94.9836 13.0708ZM95.0575 12.8483C92.6841 12.4695 91.6695 10.6416 92.1468 7.59415C92.5743 4.86415 94.0488 3.58976 96.3587 3.95849C98.7067 4.3333 99.732 6.17593 99.2567 9.21067C98.8272 11.9534 97.3547 13.2151 95.0575 12.8483Z" fill="#19191B"/>
<path d="M103.901 14.8504L106.213 15.7506L106.254 15.6425L105.823 15.4746C105.164 15.2181 105.107 15.044 105.217 14.7559C105.244 14.6839 105.293 14.5925 105.346 14.4891L108.054 8.30265C108.149 8.09121 108.181 8.00717 108.222 7.89912L108.27 7.91777C108.256 7.95379 108.193 8.19123 108.209 8.47332L108.685 16.7688L108.689 16.8668L108.713 16.8762L108.781 16.8061L114.751 10.8693C114.955 10.6592 115.117 10.4877 115.13 10.4517L115.202 10.4797C115.152 10.6118 115.083 10.7919 115.012 11.0126L112.834 17.433C112.802 17.517 112.775 17.5891 112.752 17.6491C112.642 17.9372 112.493 18.0727 111.847 17.8208L111.416 17.6529L111.374 17.7609L114.5 18.9783L114.541 18.8703L114.278 18.7676C113.619 18.5111 113.6 18.3104 113.837 17.6167L116.126 10.7982C116.16 10.6735 116.201 10.5654 116.238 10.4694C116.371 10.1212 116.524 9.97376 117.111 10.2023L117.518 10.3609L117.559 10.2528L115.763 9.55319L110.032 15.2245C109.879 15.3719 109.695 15.6034 109.667 15.6754L109.607 15.6521C109.635 15.5801 109.641 15.348 109.625 15.0659L109.152 6.97848L107.391 6.29282L107.35 6.40087L107.829 6.58744C108.344 6.78801 108.37 6.93606 108.269 7.20018C108.237 7.28422 108.205 7.36827 108.173 7.45231L105.202 14.2537C104.909 14.9121 104.745 15.0548 104.134 14.8169L103.942 14.7423L103.901 14.8504Z" fill="#19191B"/>
<path d="M117.875 20.989L120.537 22.6958L120.598 22.5979L120.317 22.4175C119.798 22.0844 119.829 21.8905 120.157 21.3683L124.469 14.515L127.434 16.416L123.122 23.2694C122.793 23.7915 122.643 23.9092 122.124 23.5761L121.832 23.3888L121.77 23.4867L124.442 25.2004L124.504 25.1025L124.114 24.8527C123.595 24.5197 123.637 24.3327 123.965 23.8106L127.915 17.5338C128.243 17.0116 128.393 16.894 128.912 17.227L129.302 17.4768L129.364 17.3789L122.796 13.1675L122.735 13.2654L123.114 13.5082C123.633 13.8412 123.591 14.0282 123.263 14.5504L119.313 20.8272C118.985 21.3493 118.835 21.4669 118.316 21.1339L117.937 20.8911L117.875 20.989Z" fill="#19191B"/>
<path d="M134.941 21.8699L134.863 21.9555L135.07 22.1478C135.73 22.7597 135.77 22.8676 135.165 23.533L133.408 25.4624C131.677 27.3451 129.505 27.7842 128.264 27.7543L128.23 28.8981C129.346 28.9515 131.551 27.9993 133.861 25.4616L135.972 23.1424L138.177 25.1879L132.726 31.1758C132.311 31.6321 132.143 31.7214 131.691 31.3018L131.436 31.0658L131.358 31.1514L133.686 33.3105L133.764 33.2249L133.424 32.9102C132.972 32.4907 133.046 32.3139 133.461 31.8577L138.453 26.3735C138.868 25.9172 139.037 25.8279 139.489 26.2475L139.828 26.5621L139.906 26.4766L138.333 25.0168L135.751 22.6217L134.941 21.8699Z" fill="#19191B"/>
<path d="M141.458 34.7009L145.819 40.5712C145.95 40.7466 146.18 40.7979 146.354 40.666L146.405 40.6272C148.26 39.2229 148.391 36.7701 147.057 34.9749C145.356 32.6846 142.733 32.3008 140.489 33.9999C138.214 35.7223 137.901 38.4904 139.511 40.6569C140.591 42.1116 142.065 42.8016 143.585 42.6499L143.583 42.4098C142.134 42.5717 140.745 41.9307 139.718 40.5482C138.408 38.784 138.876 36.6561 141.335 34.794C141.376 34.7629 141.417 34.7319 141.458 34.7009ZM141.642 34.5612C143.71 33.1411 145.531 33.3091 146.842 35.0733C147.923 36.528 147.475 38.3823 145.723 39.709C145.662 39.7556 145.608 39.7479 145.57 39.6963L141.642 34.5612Z" fill="#19191B"/>
<path d="M144.171 47.6651L145.634 50.5982L145.737 50.5458L145.536 50.1433C145.261 49.5911 145.295 49.4872 145.937 49.1612L149.97 47.1119L150.039 47.25C150.836 48.8488 149.576 49.8063 148.355 50.729C147.29 51.5299 146.299 52.2785 146.855 53.3942C146.998 53.6818 147.296 53.934 147.743 54.1105L147.944 54.196L147.99 54.0862L147.789 54.0007C147.526 53.8752 147.377 53.7203 147.296 53.5592C146.958 52.8806 147.634 52.4218 148.482 51.8469C149.719 51.0163 151.088 50.0468 150.601 48.0025L150.641 47.9677L153.856 48.6264C154.704 48.801 155.237 49.4095 155.489 49.9156L155.558 50.0536L155.661 50.0012L154.394 47.4592L154.291 47.5116L154.342 47.6151C154.52 47.9717 154.537 48.2656 154.32 48.3762C154.217 48.4286 154.033 48.4353 153.792 48.3846L150.606 47.7257C150.411 47.6805 150.28 47.4736 150.073 47.0595L152.651 45.7496C153.201 45.4702 153.293 45.5101 153.568 46.0622L153.62 46.1658L153.723 46.1134L152.41 43.4793L152.307 43.5317L152.508 43.9343C152.783 44.4864 152.754 44.573 152.204 44.8524L145.49 48.264C144.848 48.59 144.75 48.5674 144.475 48.0153L144.275 47.6127L144.171 47.6651Z" fill="#19191B"/>
<path d="M149.192 59.0668L150.46 63.1679L150.571 63.1332L150.29 62.2245C150.108 61.6352 150.15 61.5544 150.738 61.369L158.571 58.9001L158.791 59.6123C159.156 60.7911 159.044 61.2574 157.894 61.7142L157.391 61.9134L157.484 62.1266L160.258 61.05L160.204 60.9188L159.525 61.2004L157.755 55.4785L158.481 55.3035L158.456 55.1769L155.555 55.889L155.595 56.1055L156.125 55.9923C157.321 55.6828 157.683 56.0269 158.047 57.2057L158.275 57.9424L150.442 60.4112C149.854 60.5967 149.773 60.5546 149.591 59.9652L149.303 59.0321L149.192 59.0668Z" fill="#19191B"/>
</svg>
