<svg width="300" height="630" viewBox="0 0 300 630" fill="none" xmlns="http://www.w3.org/2000/svg">
<mask id="mask0_231_2402" style="mask-type:alpha" maskUnits="userSpaceOnUse" x="0" y="0" width="300" height="630">
<rect width="300" height="630" rx="8" fill="#E8E8E8"/>
</mask>
<g mask="url(#mask0_231_2402)">
<rect width="300" height="630" fill="white"/>
<path fill-rule="evenodd" clip-rule="evenodd" d="M305.413 343.364C302.733 348.085 300.124 352.43 298.198 356.045C299.679 359.438 302.166 364.576 304.989 370.011C314.291 388.574 326.264 412.543 317.686 417.412L316.803 417.949L315.895 417.78C309.126 417.086 302.403 415.99 295.764 414.498C284.416 412.384 270.875 409.862 264.975 408.763C261.409 412.307 258.09 416.088 255.039 420.08C245.751 431.285 235.412 443.93 226.287 439.97C217.162 436.011 218.549 397.466 218.75 385.037L218.905 384.209C215.764 380.897 205.014 379.362 195.563 377.991C190.453 377.452 185.394 376.509 180.433 375.173L176.371 373.871L173.648 371.26C174.891 362.064 185.097 353.913 193.322 349.679C195.673 348.403 197.514 347.343 199.1 346.392C202.289 344.376 205.672 342.683 209.2 341.339C210.368 333.264 211.124 325.135 211.466 316.983C212.304 303.659 213.103 291.809 218.421 290.15L218.875 290.235C227.043 288.405 236.958 294.849 247.01 301.397C255.524 306.956 264.217 312.393 268.582 311.648C270.042 311.375 273.301 310.268 277.373 309C292.241 303.978 316.236 296.603 322.368 304.446L324.334 306.916L323.291 309.995C318.2 321.521 312.328 332.689 305.715 343.42" fill="#FFE167"/>
<path fill-rule="evenodd" clip-rule="evenodd" d="M240.806 21.3297C242.258 23.3418 243.568 25.2527 244.704 26.7414C246.393 26.7812 248.997 26.7411 251.788 26.6192C261.257 26.3438 273.476 26.0034 273.873 30.478L273.928 30.9454L273.686 31.2876C272.116 33.948 270.388 36.5119 268.511 38.9655C265.484 43.2428 261.873 48.3469 260.299 50.5711C261.095 52.7227 262.036 54.8184 263.116 56.8437C266.009 62.8274 269.301 69.5213 265.929 72.5272C262.557 75.533 246.817 67.5621 241.695 65.0931L241.38 64.8705C239.41 65.5307 236.737 69.6728 234.378 73.3098C233.186 75.3149 231.837 77.2219 230.342 79.0128L229.032 80.4394L227.433 81.062C223.85 78.7837 222.399 73.0072 222.199 68.8002C222.114 67.585 222.023 66.6218 221.929 65.7846C221.695 64.082 221.633 62.3608 221.743 60.6468C218.612 58.6149 215.38 56.7424 212.061 55.0364C206.688 52.1332 201.919 49.5291 202.237 47.0158L202.359 46.8448C203.146 43.1228 207.699 40.268 212.321 37.3765C216.242 34.93 220.145 32.3861 220.663 30.4414C220.826 29.7864 220.983 28.229 221.228 26.3054C221.959 19.2054 223.442 7.88768 227.859 6.86263L229.257 6.52523L230.337 7.54652C234.159 11.8599 237.683 16.4268 240.886 21.2157" fill="#FFE167"/>
<path fill-rule="evenodd" clip-rule="evenodd" d="M300.975 73.6017C300.886 74.4097 300.785 75.1614 300.733 75.773C301.123 76.1605 301.747 76.7337 302.432 77.3291C304.728 79.3819 307.686 82.0348 306.819 83.1976L306.731 83.3222L306.601 83.3501C305.658 83.6373 304.699 83.8658 303.729 84.0346C302.095 84.3838 300.146 84.8006 299.296 84.9821C299.022 85.6767 298.794 86.3903 298.614 87.118C298.011 89.2015 297.35 91.5447 295.908 91.5114C294.466 91.4782 292.461 86.0426 291.782 84.3038L291.756 84.1799C291.149 83.8975 289.627 84.2934 288.289 84.6383C287.577 84.8529 286.848 85.0086 286.111 85.1039L285.495 85.1531L284.983 84.9446C284.627 83.596 285.525 81.8849 286.382 80.8305C286.623 80.5199 286.808 80.2683 286.966 80.0462C287.276 79.5854 287.632 79.1584 288.026 78.7716C287.723 77.5833 287.362 76.4106 286.945 75.2583C286.299 73.359 285.733 71.6668 286.348 71.1349L286.413 71.121C287.399 70.404 289.088 70.7378 290.8 71.0782C292.252 71.3684 293.72 71.6315 294.26 71.2806C294.44 71.1599 294.811 70.8214 295.283 70.4145C296.981 68.874 299.762 66.4896 301.026 67.2322L301.428 67.4641L301.464 67.951C301.44 69.8414 301.291 71.7262 301.019 73.5924" fill="#FFE167"/>
</g>
</svg>
