<svg width="166" height="135" viewBox="0 0 166 135" fill="none" xmlns="http://www.w3.org/2000/svg">
<path d="M9.0317 73.783L10.0534 80.2907L15.3908 76.4199L11.512 81.7524L18.0155 82.786L11.5083 83.8196L15.3683 89.1521L10.0445 85.2813L8.99977 91.7891L7.97809 85.2813L2.64065 89.1521L6.51949 83.8196L0.0159601 82.786L6.52316 81.7524L2.66322 76.4199L7.98694 80.2907L9.0317 73.783Z" fill="#19191B"/>
<path d="M151.888 74.2204L154.878 80.093L158.752 74.7636L156.718 81.0324L163.223 80.0064L157.356 82.9992L162.68 86.8776L156.417 84.8413L157.442 91.3521L154.452 85.4795L150.577 90.8089L152.612 84.5401L146.107 85.5661L151.974 82.5733L146.65 78.6949L152.913 80.7312L151.888 74.2204Z" fill="#19191B"/>
<path d="M14.2655 64.7202L16.5563 65.4036L16.6883 64.9601L15.3828 64.5707C14.7916 64.3943 14.6412 64.269 14.8173 63.6777L16.475 58.11C16.651 57.5187 16.8454 57.4962 17.4366 57.6726L18.7421 58.062L18.8742 57.6185L16.5833 56.9352L16.2569 58.0315L8.49774 55.717C7.90656 55.5407 7.75248 55.4276 7.92851 54.8364L8.06054 54.3929L7.9497 54.3598L6.16363 60.3588L6.27448 60.3918L6.35516 60.1208C6.61189 59.2586 6.69049 59.1747 7.55262 59.4319L10.0528 60.1777C12.5001 60.9211 14.0104 62.7396 14.5186 63.8703L14.2655 64.7202ZM14.922 62.5153C14.0179 61.5884 12.3035 60.5003 9.85258 59.7692L6.84743 58.8728L7.55892 56.4831L15.9709 58.9923L14.922 62.5153Z" fill="#19191B"/>
<path d="M19.5579 51.3456C20.7533 48.7691 19.8406 46.2472 17.2649 45.0499C14.7008 43.8581 12.187 44.7872 10.9916 47.3638C9.78532 49.9637 10.698 52.4855 13.2621 53.6774C15.8378 54.8747 18.3516 53.9455 19.5579 51.3456ZM19.3643 51.2132C18.3528 53.3933 16.3201 53.8658 13.5229 52.5656C11.0171 51.4008 10.1952 49.6298 11.1797 47.5079C12.1804 45.351 14.2302 44.8724 17.0157 46.1672C19.5332 47.3373 20.3434 49.1029 19.3643 51.2132Z" fill="#19191B"/>
<path d="M22.1181 46.1468L23.5085 44.0925L23.4127 44.0276L23.1534 44.4108C22.7572 44.9962 22.5753 45.0127 22.32 44.8395C22.2562 44.7963 22.1783 44.7279 22.0898 44.6523L16.6852 40.5993C16.5009 40.4588 16.4265 40.4084 16.3307 40.3434L16.3596 40.3009C16.3915 40.3225 16.608 40.4383 16.8856 40.4867L25.0494 41.9075L25.1455 41.9261L25.1599 41.9048L25.1071 41.8223L20.6731 34.6385C20.5145 34.3912 20.3841 34.1941 20.3522 34.1724L20.3954 34.1086C20.5124 34.1879 20.672 34.2961 20.8707 34.4153L26.6207 38.0038C26.6952 38.0543 26.759 38.0976 26.8122 38.1336C27.0675 38.3067 27.166 38.4822 26.777 39.057L26.5176 39.4402L26.6133 39.5051L28.4936 36.7271L28.3978 36.6621L28.2393 36.8963C27.8431 37.4817 27.6438 37.4552 27.023 37.0654L20.911 33.278C20.7974 33.2165 20.7017 33.1516 20.6166 33.0939C20.3081 32.8847 20.199 32.702 20.552 32.1805L20.7969 31.8186L20.7012 31.7537L19.6206 33.3502L23.85 40.2401C23.9592 40.4228 24.1428 40.656 24.2066 40.6993L24.1706 40.7525C24.1067 40.7092 23.8827 40.6505 23.6051 40.602L15.644 39.2256L14.585 40.7902L14.6808 40.8551L14.9689 40.4294C15.2787 39.9717 15.4283 39.98 15.6623 40.1386C15.7368 40.1891 15.8113 40.2396 15.8857 40.2901L21.829 44.7395C22.4031 45.1754 22.505 45.3687 22.1376 45.9116L22.0224 46.0819L22.1181 46.1468Z" fill="#19191B"/>
<path d="M29.0107 36.6072L30.3704 35.1337L26.7022 26.7713L32.1758 31.8318C32.6287 32.2506 32.7173 32.42 32.2989 32.8734L32.0636 33.1284L32.1485 33.2069L34.3014 30.8739L34.2165 30.7954L33.9027 31.1354C33.4843 31.5888 33.3086 31.5139 32.8556 31.0951L27.4104 26.0607C26.9574 25.6419 26.8689 25.4725 27.2873 25.0192L27.6011 24.6791L27.5161 24.6006L26.1477 26.0835L29.8158 34.446L24.3423 29.3854C23.8893 28.9666 23.8095 28.7878 24.2279 28.3345L24.4545 28.0889L24.3696 28.0103L22.2254 30.3339L22.3103 30.4124L22.6154 30.0818C23.0338 29.6285 23.2095 29.7034 23.6625 30.1222L29.1077 35.1565C29.5606 35.5753 29.6492 35.7447 29.2308 36.1981L28.9257 36.5287L29.0107 36.6072Z" fill="#19191B"/>
<path d="M35.6015 29.8566L38.1167 27.7554L38.0427 27.6666L37.6974 27.955C37.224 28.3505 37.1154 28.3407 36.6545 27.7879L33.7573 24.3132L33.8757 24.2143C35.2467 23.069 36.4596 24.0822 37.6298 25.0641C38.6468 25.9226 39.5964 26.7203 40.5532 25.9211C40.7998 25.7151 40.9772 25.3659 41.0476 24.8884L41.0853 24.6727L40.9685 24.653L40.9308 24.8687C40.8685 25.1553 40.7518 25.3364 40.6137 25.4518C40.0318 25.938 39.4343 25.382 38.6855 24.6845C37.6009 23.6647 36.3517 22.5479 34.4789 23.4928L34.4361 23.4615L34.35 20.1673C34.3281 19.298 34.7981 18.6374 35.2321 18.2749L35.3504 18.176L35.2764 18.0872L33.0965 19.9082L33.1706 19.997L33.2593 19.9228C33.5651 19.6674 33.8463 19.5832 34.0027 19.7708C34.0768 19.8596 34.1246 20.0374 34.1297 20.2843L34.2091 23.5506C34.2093 23.7514 34.0383 23.9277 33.6832 24.2244L31.8313 22.0033C31.4363 21.5295 31.4543 21.4307 31.9278 21.0352L32.0165 20.9611L31.9425 20.8722L29.6837 22.7591L29.7577 22.848L30.103 22.5596C30.5764 22.1641 30.6669 22.1722 31.062 22.646L35.8851 28.4306C36.346 28.9834 36.3461 29.0838 35.8727 29.4793L35.5274 29.7677L35.6015 29.8566Z" fill="#19191B"/>
<path d="M42.3897 24.4688L44.0817 23.3931L42.6788 14.3702L46.673 20.6642C47.0035 21.1851 47.0457 21.3715 46.5251 21.7025L46.2323 21.8887L46.2942 21.9864L48.9732 20.2831L48.9112 20.1855L48.5207 20.4337C48.0001 20.7647 47.8495 20.6473 47.5189 20.1264L43.5454 13.8649C43.2149 13.344 43.1727 13.1576 43.6933 12.8266L44.0837 12.5784L44.0218 12.4807L42.319 13.5633L43.7218 22.5862L39.7277 16.2922C39.3971 15.7713 39.3658 15.578 39.8864 15.247L40.1684 15.0677L40.1064 14.9701L37.4383 16.6664L37.5003 16.7641L37.8799 16.5227C38.4005 16.1917 38.5511 16.3092 38.8817 16.8301L42.8552 23.0915C43.1857 23.6124 43.2279 23.7988 42.7073 24.1298L42.3277 24.3712L42.3897 24.4688Z" fill="#19191B"/>
<path d="M56.3956 11.4443L57.0117 11.2205C58.111 10.8211 59.318 11.5859 59.8482 13.0479C60.3784 14.5098 59.8616 15.5728 58.6536 16.0117C58.0737 16.2224 57.2042 16.2375 56.4635 15.8913L56.3711 16.0889C57.1777 16.4659 58.0922 16.4618 58.7324 16.2292C60.3995 15.6235 61.2888 14.1927 60.7542 12.7187C60.2941 11.45 58.917 10.5556 57.6641 10.833L57.6598 10.8209C58.3924 10.3907 58.8479 9.15855 58.5236 8.26445C58.138 7.20119 56.8527 6.8614 55.5118 7.34858C55.0814 7.51867 54.5574 7.84578 54.2541 8.2158C54.175 8.29924 54.098 8.46396 54.0804 8.56609L54.0398 8.56717L53.8645 8.08388L53.7558 8.12338L54.5401 10.2861L54.7455 10.2115L54.6009 9.8128C54.3808 9.01758 54.4673 7.97425 55.6028 7.56168C56.5571 7.21494 57.411 7.53373 57.7834 8.56073C58.169 9.62399 57.7301 10.7133 56.7516 11.0688L56.3168 11.2268L56.3956 11.4443Z" fill="#19191B"/>
<path d="M67.3337 8.84126L66.3574 9.06903C64.3423 9.53917 63.2479 10.9031 63.6093 12.4553C63.8979 13.6945 65.1012 14.2716 66.4529 13.9562C67.3541 13.746 68.0578 13.0275 68.0835 11.4378L68.2086 11.4086C68.2553 11.6089 68.3628 11.9006 68.4982 12.1989C68.6541 12.5849 68.8283 12.9929 68.8983 13.2934L68.9216 13.3935C69.2458 13.1991 69.623 13.0055 70.2092 12.8027L70.183 12.6901L69.9731 12.7522C69.9731 12.7522 69.8008 12.8056 69.7257 12.8232C69.3502 12.9108 69.2806 12.7818 69.164 12.2811L67.724 6.09747C67.418 4.78313 66.4007 4.26819 64.7861 4.64488C64.0351 4.82009 63.5081 5.2202 63.1871 5.59863C63.1141 5.68166 63.0577 5.89278 63.0539 5.93325L62.9605 5.92866C62.9651 5.8352 62.9455 5.69458 62.9172 5.51642L62.8003 4.84423L62.6751 4.87343L63.2254 7.85969L63.4507 7.80713L63.295 7.0252C63.1206 6.04967 63.612 5.15637 64.8511 4.86728C65.8023 4.64535 66.4621 5.09852 66.7099 6.16251L67.3337 8.84126ZM67.3861 9.06658L67.7359 10.5687C68.1528 12.3587 67.4006 13.3788 66.5244 13.5832C65.6608 13.7847 64.9402 13.2402 64.6982 12.2012C64.3659 10.7742 65.0706 9.6068 66.4724 9.27975L67.3861 9.06658Z" fill="#19191B"/>
<path d="M72.4588 12.6725L75.6048 12.3584L75.5934 12.2433L75.2609 12.2765C74.647 12.3378 74.5524 12.1664 74.4912 11.5525L73.6883 3.49539L77.1925 3.14553L77.9954 11.2027C78.0566 11.8165 78.0105 12.002 77.3966 12.0633L77.0513 12.0977L77.0628 12.2128L80.2216 11.8975L80.2101 11.7824L79.7497 11.8283C79.1359 11.8896 79.0541 11.717 78.9929 11.1031L78.2576 3.72376C78.1964 3.10989 78.2425 2.92445 78.8563 2.86316L79.3167 2.8172L79.3053 2.7021L71.5424 3.47714L71.5539 3.59224L72.0015 3.54755C72.6154 3.48626 72.6972 3.65893 72.7583 4.27281L73.4937 11.6521C73.5549 12.266 73.5088 12.4514 72.8949 12.5127L72.4473 12.5574L72.4588 12.6725Z" fill="#19191B"/>
<path d="M86.5419 7.46265L85.5399 7.43232C83.4716 7.36972 82.0646 8.40724 82.0167 10.0002C81.9784 11.272 82.9939 12.1386 84.3813 12.1806C85.3063 12.2086 86.1704 11.6947 86.6021 10.1647L86.7306 10.1686C86.7244 10.3742 86.7537 10.6836 86.8083 11.0068C86.8601 11.4198 86.9241 11.8589 86.9148 12.1672L86.9117 12.27C87.2749 12.1653 87.6891 12.0749 88.3076 12.0294L88.3111 11.9137L88.0923 11.92C88.0923 11.92 87.9121 11.9274 87.835 11.9251C87.4496 11.9134 87.4153 11.7709 87.4308 11.257L87.6216 4.9108C87.6622 3.5619 86.8106 2.80321 85.1534 2.75305C84.3826 2.72972 83.7707 2.98122 83.3636 3.26464C83.2718 3.32615 83.1632 3.51574 83.1492 3.55389L83.06 3.52548C83.0884 3.43633 83.1055 3.29541 83.1238 3.11594L83.1828 2.43624L83.0543 2.43235L82.8218 5.45988L83.0531 5.46688L83.1027 4.67116C83.1839 3.68353 83.8875 2.94618 85.1593 2.98468C86.1357 3.01423 86.6575 3.6215 86.6246 4.71347L86.5419 7.46265ZM86.535 7.69389L86.4886 9.23549C86.4334 11.0726 85.4452 11.8656 84.5459 11.8384C83.6595 11.8115 83.1023 11.1003 83.1343 10.034C83.1784 8.56953 84.1584 7.62196 85.5972 7.66551L86.535 7.69389Z" fill="#19191B"/>
<path d="M91.6035 12.6647L95.8449 13.3261L95.8627 13.2118L94.923 13.0653C94.3134 12.9702 94.2598 12.8968 94.3547 12.2872L95.6178 4.17224L96.3543 4.2871C97.5734 4.47721 97.9423 4.78187 97.8414 6.01489L97.7965 6.55421L98.029 6.56445L98.2951 3.60116L98.1535 3.59207L98.1043 4.32585L92.1866 3.40302L92.352 2.67437L92.227 2.64186L91.5779 5.55845L91.7899 5.61752L91.9237 5.09206C92.1769 3.8828 92.6462 3.70884 93.8653 3.89895L94.6273 4.01777L93.3642 12.1328C93.2693 12.7424 93.1959 12.796 92.5864 12.7009L91.6213 12.5504L91.6035 12.6647Z" fill="#19191B"/>
<path d="M101.727 9.59556L108.735 11.6837C108.945 11.7461 109.161 11.6497 109.224 11.4403L109.242 11.3787C109.905 9.14887 108.554 7.11012 106.41 6.47155C103.676 5.65683 101.33 6.91596 100.528 9.61387C99.7148 12.3487 101.106 14.7482 103.693 15.5189C105.43 16.0363 107.029 15.7082 108.167 14.6792L108.022 14.4886C106.949 15.483 105.446 15.7999 103.796 15.3081C101.69 14.6806 100.804 12.7 101.683 9.74339C101.698 9.69411 101.712 9.64483 101.727 9.59556ZM101.793 9.37381C102.618 7.00459 104.189 6.05106 106.295 6.67862C108.032 7.19608 108.772 8.94544 108.146 11.052C108.124 11.1259 108.076 11.1519 108.014 11.1335L101.793 9.37381Z" fill="#19191B"/>
<path d="M108.689 17.1996L111.564 18.5165L111.612 18.4113L111.308 18.2721C110.747 18.0152 110.752 17.8194 111.008 17.2584L112.601 13.7753L115.803 15.2421L114.21 18.7252C113.953 19.2862 113.82 19.4231 113.259 19.1662L112.944 19.0216L112.896 19.1268L115.782 20.4491L115.83 20.3439L115.409 20.1512C114.848 19.8942 114.865 19.7038 115.121 19.1428L118.205 12.3986C118.462 11.8376 118.595 11.7007 119.156 11.9577L119.577 12.1504L119.625 12.0452L116.739 10.7229L116.691 10.8281L116.995 10.9673C117.555 11.2242 117.551 11.42 117.294 11.981L115.899 15.0317L112.697 13.5649L114.093 10.5142C114.349 9.9532 114.494 9.82168 115.055 10.0786L115.359 10.2178L115.407 10.1126L112.532 8.79572L112.484 8.90091L112.893 9.08828C113.454 9.34524 113.438 9.53564 113.181 10.0967L110.097 16.8408C109.841 17.4019 109.707 17.5387 109.146 17.2818L108.737 17.0944L108.689 17.1996Z" fill="#19191B"/>
<path d="M118.063 21.9435L121.702 24.221L121.763 24.1229L120.957 23.6183C120.434 23.291 120.413 23.2024 120.74 22.6792L125.092 15.714L125.724 16.1095C126.769 16.7642 126.989 17.1895 126.411 18.2836L126.158 18.7619L126.368 18.8628L127.777 16.2426L127.651 16.1785L127.317 16.8339L122.24 13.6563L122.679 13.0513L122.576 12.9722L120.833 15.3988L121.005 15.5365L121.334 15.106C122.043 14.0937 122.542 14.1184 123.588 14.773L124.242 15.1822L119.89 22.1473C119.564 22.6705 119.475 22.6909 118.952 22.3636L118.124 21.8454L118.063 21.9435Z" fill="#19191B"/>
<path d="M128.07 29.351C130.244 31.1791 132.914 30.9564 134.74 28.7808C136.558 26.6152 136.317 23.9438 134.143 22.1156C131.95 20.2709 129.279 20.4936 127.461 22.6593C125.635 24.8348 125.876 27.5062 128.07 29.351ZM128.248 29.1986C126.409 27.6517 126.483 25.5644 128.466 23.2018C130.243 21.0854 132.165 20.7541 133.955 22.2597C135.775 23.7901 135.703 25.8955 133.728 28.2482C131.943 30.3745 130.029 30.6959 128.248 29.1986Z" fill="#19191B"/>
<path d="M133.951 34.656L133.97 34.6388C134.187 34.6504 134.383 34.5607 134.603 34.363L140.117 29.4036C140.336 29.2059 140.456 29.012 140.468 28.7941L140.477 28.7855L141.173 29.5601C142.023 30.5069 142.082 31.6118 141.308 32.308C140.553 32.987 139.468 32.8563 138.713 32.0147L138.369 31.6322L138.207 31.7783L138.662 32.2852C139.727 33.471 139.669 35.0614 138.522 36.0928C137.433 37.0727 135.994 36.9321 134.929 35.7462L133.951 34.656ZM132.499 33.3857L134.912 36.0731C136.243 37.5555 138.075 37.9992 139.269 36.9248C140.244 36.0481 140.475 34.2849 139.444 32.9643L139.483 32.9299C140.397 33.698 141.512 33.5937 142.057 33.1037C142.917 32.3302 142.684 30.8973 141.465 29.5393L139.37 27.2058L139.284 27.2831L139.584 27.6179C139.996 28.0769 139.992 28.1677 139.533 28.5803L133.847 33.6944C133.389 34.107 133.298 34.1022 132.886 33.6431L132.585 33.3084L132.499 33.3857Z" fill="#19191B"/>
<path d="M144.553 41.0584L143.981 40.2351C142.8 38.5358 141.129 38.0232 139.821 38.9337C138.777 39.6607 138.685 40.9929 139.478 42.1328C140.006 42.8928 140.933 43.281 142.418 42.7165L142.492 42.822C142.323 42.9395 142.092 43.1474 141.865 43.3838C141.564 43.6715 141.249 43.9845 140.996 44.1607L140.912 44.2195C141.212 44.4489 141.531 44.7279 141.936 45.1978L142.031 45.1318L141.895 44.9597C141.895 44.9597 141.782 44.8192 141.738 44.7559C141.518 44.4393 141.612 44.3268 142.034 44.0331L147.245 40.4057C148.353 39.6347 148.455 38.4984 147.509 37.1369C147.069 36.5036 146.503 36.1617 146.033 36.0034C145.929 35.9662 145.712 35.9919 145.673 36.0034L145.643 35.9148C145.731 35.8845 145.855 35.8143 146.01 35.7221L146.591 35.3646L146.517 35.259L143.947 36.8759L144.079 37.0658L144.748 36.6317C145.59 36.1085 146.601 36.2347 147.327 37.2796C147.884 38.0818 147.707 38.8628 146.81 39.487L144.553 41.0584ZM144.363 41.1905L143.097 42.0717C141.589 43.1217 140.364 42.8001 139.85 42.0612C139.344 41.333 139.584 40.4615 140.459 39.852C141.662 39.0149 143.006 39.2379 143.828 40.42L144.363 41.1905Z" fill="#19191B"/>
<path d="M142.889 47.2456L144.342 50.0533L144.445 50L144.291 49.7033C144.008 49.1554 144.132 49.0041 144.68 48.7201L148.079 46.9566L149.698 50.0839L146.299 51.8474C145.751 52.1314 145.562 52.1572 145.278 51.6094L145.119 51.3012L145.016 51.3544L146.475 54.1736L146.578 54.1203L146.365 53.7095C146.082 53.1616 146.212 53.0217 146.759 52.7376L153.343 49.3231C153.89 49.0391 154.079 49.0133 154.363 49.5611L154.576 49.972L154.678 49.9188L153.219 47.0996L153.116 47.1529L153.27 47.4496C153.554 47.9975 153.429 48.1488 152.882 48.4329L149.904 49.9774L148.285 46.8501L151.263 45.3055C151.81 45.0215 152.005 45.0071 152.289 45.555L152.443 45.8517L152.545 45.7985L151.092 42.9907L150.989 43.044L151.196 43.4435C151.479 43.9913 151.349 44.1312 150.802 44.4153L144.219 47.8298C143.671 48.1138 143.482 48.1396 143.198 47.5918L142.991 47.1923L142.889 47.2456Z" fill="#19191B"/>
<path d="M149.145 61.8472L150.215 64.9449L150.324 64.907L150.177 64.4819C149.976 63.8988 149.999 63.8091 150.582 63.6073L157.809 61.1056C158.392 60.9038 158.466 60.9599 158.667 61.543L158.814 61.9681L158.948 61.9219L157.877 58.8242L157.768 58.8621L157.915 59.2872C158.116 59.8703 158.089 59.9479 157.506 60.1497L150.255 62.6597C149.672 62.8615 149.602 62.8176 149.401 62.2345L149.254 61.8094L149.145 61.8472ZM147.008 55.664L148.024 58.6038C148.666 60.4624 149.993 61.3903 151.341 60.9236C152.689 60.4569 153.16 58.9067 152.518 57.0481L152.199 56.1249L155.672 54.9224C156.255 54.7206 156.353 54.7683 156.555 55.3514L156.702 55.7765L156.811 55.7387L155.741 52.641L155.631 52.6789L155.778 53.104C155.98 53.6871 155.952 53.7647 155.369 53.9665L148.143 56.4681C147.56 56.6699 147.478 56.6302 147.277 56.0471L147.13 55.622L147.008 55.664ZM151.992 56.1964L152.232 56.8888C152.739 58.3587 152.3 59.4085 150.976 59.8668C149.652 60.325 148.671 59.7671 148.163 58.2973L147.852 57.3983L147.877 57.3899C148.073 57.4852 148.288 57.4787 148.567 57.382L151.992 56.1964Z" fill="#19191B"/>
<g clip-path="url(#clip0_746_45709)">
<path d="M60.112 134.744C60.112 133.989 59.2597 132.911 60.8999 132.847C60.8915 132.97 60.8915 133.094 60.8999 133.217L62.0255 133.587V133.989L60.4175 134.744H60.112Z" fill="#C7C0B3"/>
<path d="M47.2318 115.175L46.6851 114.757V113.599L47.5855 112.361C48.5504 113.454 47.8107 114.307 47.2318 115.175Z" fill="#C7C0B3"/>
<path d="M100.779 71.292L98.9456 73.7684L98.4953 72.8196L100.907 67.1433L102.065 65.069L101.358 64.7956L100.65 66.9825L99.6692 68.2689C98.8009 68.3493 98.3828 67.9795 98.4793 67.0951L99.2672 65.4871L99.7978 64.4901C102.017 60.8881 104.204 57.2862 106.455 53.7003C107.114 52.6712 107.934 51.7385 108.674 50.7576L109.864 51.5456C110.041 50.9024 111.231 50.1627 109.864 49.3908L109.703 48.6029L110.845 48.2331L111.311 47.5255C111.91 47.0035 112.335 46.3114 112.531 45.5415C112.726 44.7715 112.682 43.9604 112.405 43.216C112.373 43.1167 112.373 43.0098 112.405 42.9105L112.614 42.412L114.222 40.595H114.752L115.203 42.5085L113.836 47.0753C112.432 48.2281 111.481 49.8399 111.15 51.626L111.006 52.0923C110.427 52.5265 109.768 53.4269 109.317 53.3305C107.468 52.9445 107.854 54.1666 107.709 55.1314L106.632 57.0932C105.329 57.5917 106.246 58.46 106.278 59.1836L104.751 62.8178L103.882 64.4258L103.737 64.7795C102.435 65.2941 102.548 66.3876 102.596 67.481L101.76 69.7805L100.779 71.292ZM102.66 62.0459L101.599 64.1203C103.014 63.8951 102.596 62.866 102.805 62.1263L103.866 60.8399L103.384 60.5183L102.66 62.0459ZM104.107 58.8299H103.995C103.98 58.8824 103.98 58.9382 103.995 58.9907H104.204L104.107 58.8299Z" fill="#776049"/>
<path d="M89.3297 83.722L90.5196 82.516C91.5809 82.516 91.9025 81.8084 91.9186 80.908L92.7065 81.3421L93.1085 80.9401H93.8643L94.6522 82.5481L94.4914 84.0758L94.202 84.9923L93.4301 85.5712C92.3045 85.5712 92.2723 86.0215 92.7869 86.8094L92.2563 87.9028V88.6747V89.3822L90.6482 90.9902C89.8121 90.9902 89.0402 91.151 89.2171 92.2606C89.2328 92.378 89.2328 92.4969 89.2171 92.6143L87.2553 93.3379L86.4996 92.952L86.1136 92.1641C86.1057 92.0356 86.1057 91.9067 86.1136 91.7782L86.4996 90.6204V89.8485C87.8181 89.3179 87.2232 88.4013 86.9337 87.5651C86.9178 87.4693 86.9178 87.3715 86.9337 87.2757L88.0111 86.0054L88.7829 84.5421L89.3297 83.722ZM90.4231 88.546L89.8764 89.543L90.198 89.6716L90.5035 88.6104L90.8251 87.8063L91.2111 86.3752L92.3849 84.0436C92.4002 83.9208 92.4002 83.7966 92.3849 83.6737L92.7226 82.3873C92.4492 82.6768 92.1598 82.9662 91.9025 83.2717C91.8353 83.3752 91.7863 83.4894 91.7578 83.6094C90.3749 84.0436 91.2271 85.1049 91.0985 85.8928C89.9407 86.1983 89.6352 86.8255 90.3427 87.8385L90.4231 88.546Z" fill="#776049"/>
<path d="M64.3733 104.948L65.6114 103.34L66.7049 104.08L67.2677 104.851V105.945C66.9461 106.17 66.3833 106.363 66.3511 106.62C66.2947 107.563 66.2947 108.508 66.3511 109.45C66.2304 110.331 66.2304 111.223 66.3511 112.104C67.0104 114.451 67.8466 116.735 68.6184 119.05L67.927 118.31L65.8366 113.969C65.8816 113.783 65.8889 113.59 65.858 113.401C65.8271 113.212 65.7586 113.031 65.6567 112.87C65.5547 112.708 65.4214 112.568 65.2644 112.458C65.1075 112.349 64.9303 112.272 64.7431 112.232V111.766L64.3733 109.386L64.0677 108.582L63.1672 105.527C63.1582 105.404 63.1582 105.28 63.1672 105.157L64.3733 104.948Z" fill="#978A76"/>
<path d="M76.4495 124.951C75.2434 124.099 74.5842 123.102 75.5329 121.735L75.8867 120.304L76.4334 118.696L77.8324 116.091L78.9258 115.721H79.6494L80.0675 116.461L80.4695 118.069V119.179L80.2765 119.934V120.417L78.3148 122.025L79.0866 118.793L78.556 118.568C77.9288 119.79 77.2856 121.012 76.6907 122.25C76.6103 122.443 76.6907 122.732 76.6907 122.974L77.4303 122.7L78.1218 122.427L78.5077 124.035L77.8324 124.887L76.4495 124.951Z" fill="#776049"/>
<path d="M88.9437 84.4777L88.1719 85.941L86.8855 85.8606L87.0463 84.7672L87.3679 84.0114C87.3759 83.8883 87.3759 83.7647 87.3679 83.6416L87.6895 82.8376C87.4483 81.728 87.3679 81.6476 86.9659 82.0979C86.1297 83.0627 85.3579 84.124 84.586 85.137L83.3478 86.2305L81.7398 86.5199L81.6273 84.9119L83.6694 82.8858L84.393 82.2748L84.7951 81.728L87.7377 80.2004C88.9759 80.0396 88.8312 81.0687 88.9437 81.728C89.0155 82.3531 89.0155 82.9843 88.9437 83.6094V84.4777Z" fill="#8A7865"/>
<path d="M66.6245 103.999L65.531 103.259C65.9813 102.23 66.3511 101.153 66.8817 100.156C67.4514 98.9939 68.1241 97.8853 68.8918 96.8434C69.5934 96.054 70.3628 95.3276 71.1912 94.6726L72.1078 95.959L71.7219 96.6987L71.3199 97.0364L70.2264 97.4545L70.8053 97.8886L69.1973 99.7539L68.8918 100.574C68.4644 100.763 68.1148 101.093 67.9011 101.508C67.6875 101.924 67.6228 102.4 67.7179 102.857L66.9943 103.259L66.6245 103.999Z" fill="#B3A99A"/>
<path d="M67.8787 127.959L67.1551 128.28L66.8496 128.135L67.0908 128.344L65.4828 129.743L64.3572 129.004L63.5532 127.396V127.219L63.3602 126.19L62.7331 127.122H62.0738L61.6396 126.72L61.3019 125.225C61.6557 124.935 62.91 125.9 62.4115 124.437L61.9451 123.231L64.3733 123.938V125.547L64.6466 125.868C65.6597 127.476 66.0295 125.868 66.6566 125.466L67.4606 125.868V126.624L67.2998 126.817L67.5089 126.656H67.8948L67.8787 127.959Z" fill="#A09A8B"/>
<path d="M47.2318 115.175C47.8107 114.306 48.5504 113.454 47.5855 112.393V111.315L47.875 110.624L48.4378 109.836H48.6629L49.7403 109.434V110.56L50.1423 114.435V114.789V115.625C50.1262 115.732 50.1262 115.84 50.1423 115.947L49.3061 116.349H47.4569L47.2318 115.175Z" fill="#A09A8B"/>
<path d="M88.9437 118.278C87.4483 120.787 84.8755 120.931 82.383 121.285V120.449L84.5378 119.677C86.7247 119.565 87.2714 119.05 87.384 117.04L88.992 115.705L89.6673 115.126L90.8412 115.93L90.1015 116.686C88.8633 116.606 88.8151 117.378 88.9437 118.278Z" fill="#806B56"/>
<path d="M64.3732 104.948L63.2798 105.157C62.1381 104.53 61.0125 103.935 60.0638 105.511L58.9864 106.701H58.1824L57.4266 105.929V105.125L57.8125 104.594L58.2145 103.822C59.4728 103.481 60.7509 103.218 62.0416 103.034C63.328 102.89 63.7783 104.015 64.3732 104.948Z" fill="#B3A99A"/>
<path d="M92.7387 81.3422L91.9507 80.9081L95.3276 73.5594L96.1959 73.2539L96.5658 73.6237V74.3795V74.7333L97.7557 75.5534C97.7557 75.682 97.7557 75.7946 97.7557 75.9232L95.4562 76.2931V75.5373C95.5688 75.28 95.6653 75.0227 95.7617 74.7654C95.7617 74.7654 95.6653 74.7654 95.617 74.6529L95.4562 75.5373L94.3145 78.2388L93.9286 79.0267L93.1728 80.9563L92.7387 81.3422Z" fill="#97826C"/>
<path d="M95.424 76.3091L97.7235 75.9392V76.5503L97.3054 77.4507H96.614L96.2763 76.9844L96.5979 77.4186L96.3245 79.8949L95.2632 82.3552L94.6844 82.4356L93.8964 80.8276V79.0105L94.2823 78.2226C95.6331 78.1744 94.6522 76.7271 95.424 76.3091Z" fill="#8A7865"/>
<path d="M72.1078 96.0072L71.1912 94.7207L71.9952 93.9811C73.5228 91.5208 74.8736 88.9158 77.7037 87.6294V88.6103C77.6758 88.7311 77.6382 88.8494 77.5911 88.964L76.4977 89.9932L76.3851 90.1379C76.1134 90.3875 75.8657 90.662 75.6454 90.958C74.7449 92.566 72.6867 93.3539 72.7028 95.5248L72.1078 96.0072Z" fill="#9E9584"/>
<path d="M95.826 106.685L95.6492 107.119H94.2823V105.157L93.8803 103.79L94.7808 102.825L95.424 101.458L97.2089 98.9661L97.4823 98.4033L98.2541 97.6636C98.1416 99.5771 98.029 101.458 96.0672 102.584C95.8743 102.697 95.9225 103.259 95.9064 103.613C95.9064 104.224 95.9064 104.835 95.9064 105.43L95.826 106.685Z" fill="#8A7865"/>
<path d="M67.4124 125.9L66.6084 125.498L67.0747 124.742L68.5863 123.713L70.2747 122.829L71.3199 122.909C71.0422 123.667 70.6978 124.399 70.2908 125.096C69.5671 126.109 68.6827 127.01 67.8787 127.958V126.704C68.3772 126.093 67.9591 125.964 67.4124 125.9Z" fill="#B3A99A"/>
<path d="M98.5436 90.556L96.9356 93.6112L95.4562 94.7529L94.1537 94.6725L97.6592 90.0093L98.5436 90.556Z" fill="#A09A8B"/>
<path d="M98.5436 90.5559L97.6592 90.0092C98.0451 87.3238 97.8843 86.9057 96.0512 86.0213C97.3215 85.8605 96.2281 85.4264 96.1477 85.1208L96.5497 84.9922C97.097 85.1621 97.5974 85.4569 98.0113 85.8534C98.4253 86.2498 98.7414 86.737 98.9347 87.2766C99.1281 87.8161 99.1934 88.3932 99.1255 88.9623C99.0577 89.5315 98.8584 90.077 98.5436 90.5559Z" fill="#9E9584"/>
<path d="M49.7403 110.495V109.37L49.9011 108.855L49.7564 109.37L48.679 109.772L48.1805 109.016L48.47 107.086H49.3222C49.5956 107.344 49.8207 107.697 50.1423 107.842C50.4639 107.987 50.6408 107.617 50.8981 107.472L51.9433 107.103L52.6347 108.228C51.0267 108.228 50.7533 109.595 50.078 110.576L49.7403 110.495Z" fill="#AE9A7D"/>
<path d="M62.0416 133.989V133.587L60.916 133.265C60.9076 133.142 60.9076 133.018 60.916 132.895L62.1863 131.287L63.2315 130.242C63.2628 130.2 63.3047 130.168 63.3528 130.148C63.4009 130.128 63.4534 130.122 63.5049 130.129L64.936 130.274C64.7266 131.055 64.3625 131.787 63.8653 132.425C63.3681 133.063 62.748 133.594 62.0416 133.989Z" fill="#9E9584"/>
<path d="M94.9256 108.212C94.3949 109.064 93.8643 109.917 93.3176 110.785C92.996 111.332 92.6904 111.894 92.3849 112.393H91.5648C91.2593 111.653 92.2563 110.479 90.8091 110.11V109.675C91.448 109.812 92.1146 109.728 92.699 109.435C93.2835 109.143 93.7512 108.661 94.0251 108.067L94.9256 108.212Z" fill="#8A7865"/>
<path d="M57.4266 105.092V105.929C57.3237 105.971 57.2155 105.998 57.105 106.009L56.6065 105.543L53.8729 104.9L51.9272 104.321C51.9004 104.271 51.8864 104.216 51.8864 104.16C51.8864 104.104 51.9004 104.048 51.9272 103.999L53.1654 102.938L54.7734 103.613L56.2849 103.806L57.4266 105.092Z" fill="#A09A8B"/>
<path d="M82.3509 120.401V121.237C81.6855 121.167 81.0166 121.331 80.459 121.701C79.9014 122.07 79.4901 122.623 79.2957 123.263C79.1831 123.552 78.7811 123.729 78.5238 123.954L78.1379 122.346L78.4434 121.719L80.4052 120.111L82.3509 120.401Z" fill="#978A76"/>
<path d="M90.8251 110.158C92.2723 110.528 91.2754 111.766 91.5809 112.441V114.371L90.809 115.979L89.6352 115.175C90.005 114.178 90.407 113.197 90.6965 112.168C90.6965 112.055 90.2623 111.782 90.0211 111.573V110.576L90.8251 110.158Z" fill="#A09A8B"/>
<path d="M112.405 43.2161C112.697 43.9688 112.748 44.7934 112.552 45.5766C112.357 46.3598 111.923 47.0631 111.311 47.5899L110.411 47.4773H110.057L109.928 47.3647L111.006 45.5638C111.778 45.6603 111.778 45.3226 111.472 44.7758L112.405 43.2161Z" fill="#B3A99A"/>
<path d="M57.4266 105.093L56.3332 103.774L55.3844 102.825L54.7251 103.581L53.1171 102.906L52.8759 102.713C55.0789 100.976 56.5422 102.906 58.2306 103.79L57.8286 104.562L57.4266 105.093Z" fill="#C7C0B3"/>
<path d="M107.693 55.1314C107.774 54.1666 107.388 52.9445 109.301 53.3305C109.751 53.4269 110.411 52.5264 110.99 52.0923L109.14 55.5334L107.693 55.1314Z" fill="#806B56"/>
<path d="M71.3199 122.909L70.2747 122.829V121.671L72.0756 120.915L72.4776 120.176L74.3429 120.304V121.334L71.3199 122.909Z" fill="#806B56"/>
<path d="M113.836 47.0753L115.09 42.4924C116.119 44.8241 115.83 45.6281 113.836 47.0753Z" fill="#806B56"/>
<path d="M77.7841 88.6264V87.6456L80.0836 86.2466L80.7911 87.8546L80.8876 88.6425L78.5881 89.0124L77.7841 88.6264Z" fill="#B3A99A"/>
<path d="M97.7557 75.5694L96.5336 74.7493C96.5412 74.6315 96.5412 74.5133 96.5336 74.3955L97.0642 73.7845L96.5336 73.6397L96.9356 72.498H97.7074L98.4632 72.8679L98.9134 73.8166L98.3185 75.5211L97.7557 75.5694Z" fill="#8A7865"/>
<path d="M48.1966 106.331C47.3443 106.057 47.5051 105.462 47.9232 105.028C48.6147 104.353 49.1614 103.066 50.5121 104.047L49.7403 105.478L49.3061 105.929C48.4217 104.658 48.679 106.508 48.1966 106.331Z" fill="#AE9A7D"/>
<path d="M97.3215 72.466H96.1959L95.826 72.1605L96.8391 70.665L97.7396 69.459H98.4954L98.8974 70.263L98.624 71.0027L98.1094 71.7906L97.3215 72.466Z" fill="#9E9584"/>
<path d="M111.134 51.642C111.465 49.8559 112.416 48.2441 113.82 47.0913L111.134 51.642Z" fill="#806B56"/>
<path d="M95.424 94.753L96.9034 93.6113L97.1125 95.0585L96.6301 96.5862C96.6067 96.7029 96.6067 96.8232 96.6301 96.9399C96.5633 96.9858 96.4857 97.0135 96.4049 97.0203L95.424 96.2806V94.6726V94.753Z" fill="#978A76"/>
<path d="M51.9272 104.321L53.8729 104.899L53.6639 105.527L53.2297 106.266H52.0719L51.5091 105.929L51.2357 105.559V104.465L51.9272 104.321Z" fill="#97826C"/>
<path d="M80.7268 87.8224L80.0193 86.2144L81.6273 84.7993L81.7398 86.4073L81.9167 86.938L80.7268 87.8224Z" fill="#978A76"/>
<path d="M98.4954 69.3944H97.7396L97.4823 69.0246L98.4954 67.095C98.3989 67.9794 98.817 68.3492 99.6853 68.2688L99.2994 69.4105L98.4954 69.3944Z" fill="#8A7865"/>
<path d="M107.693 55.1313L109.14 55.5334L107.741 57.1414H106.616L107.693 55.1313Z" fill="#9E9584"/>
<path d="M109.864 49.4712C111.247 50.243 110.057 50.9827 109.864 51.6259L108.674 50.838L109.864 49.4712Z" fill="#978A76"/>
<path d="M87.7377 80.2005L84.7468 81.8085C84.9398 81.2051 85.3595 80.7003 85.9174 80.4003C86.4754 80.1003 87.128 80.0287 87.7377 80.2005Z" fill="#A09A8B"/>
<path d="M106.616 57.0933H107.79L106.31 59.1676C106.182 58.4601 105.313 57.5917 106.616 57.0933Z" fill="#8A7865"/>
<path d="M74.2465 121.333V120.304C74.2375 120.235 74.2375 120.165 74.2465 120.095H74.745H75.758L75.4042 121.526L74.2465 121.333Z" fill="#9E9584"/>
<path d="M91.597 114.371V112.441H92.417C92.5135 113.261 92.6422 114.065 91.597 114.371Z" fill="#806B56"/>
<path d="M102.58 67.4488C102.58 66.3714 102.419 65.2619 103.721 64.7473L102.58 67.4488Z" fill="#97826C"/>
<path d="M96.6301 96.5862L97.1125 95.0586L98.0773 96.6666L96.6301 96.5862Z" fill="#8A7865"/>
<path d="M96.63 96.5862L98.0773 96.6827L98.2863 97.6796L97.5145 98.4193L96.9356 97.8887L96.5336 96.9399C96.5411 96.8167 96.574 96.6962 96.63 96.5862Z" fill="#9E9584"/>
<path d="M64.92 130.258L63.4888 130.049L63.6014 129.293L64.3893 128.907L65.5149 129.647L65.0968 130.001C65.1039 130.029 65.1048 130.059 65.0995 130.088C65.0942 130.117 65.0828 130.145 65.0661 130.169C65.0494 130.193 65.0277 130.214 65.0026 130.229C64.9774 130.244 64.9492 130.254 64.92 130.258Z" fill="#97826C"/>
<path d="M96.614 85.0245L96.212 85.1532L95.0864 84.6547L94.9256 84.0115H95.215C96.0994 83.6255 96.7748 83.6577 96.614 85.0245Z" fill="#F4EFE4"/>
<path d="M96.5336 77.4829H97.225L96.2763 79.9914L96.5336 77.4829Z" fill="#A09A8B"/>
<path d="M91.9186 80.8757C91.9186 81.8084 91.5809 82.4837 90.5196 82.4837L91.9186 80.8757Z" fill="#A09A8B"/>
<path d="M97.4823 69.0247L97.7396 69.3945L96.8391 70.6005L97.4823 69.0247Z" fill="#B3A99A"/>
<path d="M104.172 70.4398L105.362 69.4429L105.748 69.7966L104.686 70.9383L104.172 70.4398Z" fill="#F4EFE4"/>
<path d="M104.751 76.1965C104.413 76.4377 104.188 76.6789 104.075 76.6468C103.777 76.4838 103.497 76.2898 103.239 76.0679C103.384 75.9071 103.577 75.6015 103.673 75.6337C104.052 75.7803 104.414 75.9691 104.751 76.1965Z" fill="#F4EFE4"/>
<path d="M94.9256 108.212H93.9607L93.8803 107.826L94.2984 107.086H95.6652L94.9256 108.212Z" fill="#806B56"/>
<path d="M48.1966 106.331C48.679 106.507 48.4217 104.723 49.3061 105.929L49.4508 106.62L49.3222 107.07H48.47L48.1966 106.331Z" fill="#C99B6B"/>
<path d="M51.3001 104.417V105.51C51.1996 105.534 51.095 105.534 50.9945 105.51H50.4157L49.7403 105.398L50.5121 103.967L51.3001 104.417Z" fill="#B3A99A"/>
<path d="M52.8759 102.713L53.2297 102.906L51.9915 103.967L52.0719 102.359L52.8759 102.713Z" fill="#B3A99A"/>
<path d="M88.9438 118.278C88.8151 117.378 88.8634 116.67 90.0854 116.67L88.9438 118.278Z" fill="#9E9584"/>
<path d="M110.845 48.3133L109.703 48.6832C109.382 48.1847 109.108 47.7023 109.928 47.4128L110.057 47.5254L110.427 47.9435L110.845 48.3133Z" fill="#B3A99A"/>
<path d="M95.8261 72.1604L96.1959 72.5302V73.3182L95.3276 73.6237L95.8261 72.1604Z" fill="#B3A99A"/>
<path d="M94.6843 82.4998L95.2632 82.4194L95.1346 84.0275H94.9255C94.8189 84.0431 94.7106 84.0431 94.6039 84.0275L94.6843 82.4998Z" fill="#A09A8B"/>
<path d="M97.7557 75.5693H98.3506L97.6913 76.6145V76.0035C97.7396 75.8105 97.7396 75.698 97.7557 75.5693Z" fill="#A09A8B"/>
<path d="M76.4495 124.951L77.8806 124.855C77.4304 125.321 76.9801 125.788 76.4495 124.951Z" fill="#9E9584"/>
<path d="M114.639 40.5777H114.109L114.382 40L114.639 40.5777Z" fill="#806B56"/>
<path d="M88.9437 84.4777V83.6255L89.394 83.722L88.9437 84.4777Z" fill="#A09A8B"/>
<path d="M47.8899 110.624L47.6011 111.314C47.4245 110.977 46.9592 110.528 47.8899 110.624Z" fill="#C7C0B3"/>
<path d="M111.536 44.824C111.842 45.3707 111.842 45.7084 111.07 45.6119L111.536 44.824Z" fill="#97826C"/>
<path d="M48.1805 109.016L48.678 109.77H48.4533L48.1805 109.016Z" fill="#C7C0B3"/>
<path d="M52.071 102.439L51.6378 102.279C51.6378 102.279 51.7501 102.279 51.7822 102.279C51.8143 102.279 51.9587 102.439 52.055 102.519L52.071 102.439Z" fill="#B3A99A"/>
<path d="M47.4569 116.3H49.3222C49.1563 116.902 49.0751 117.525 49.081 118.15C49.2257 119.307 49.5473 120.433 49.8046 121.575L50.1101 122.459L49.0488 123.183C47.6499 121.076 47.9072 118.6 47.4569 116.3Z" fill="#B3A99A"/>
<path d="M57.8447 131.882C57.8447 132.782 57.9733 133.184 56.4457 133.313C54.6448 133.474 54.3714 132.477 53.5674 131.705L54.0015 130.917L54.3714 130.531H54.8056L55.9794 131.303C57.0246 131.93 56.6548 131.046 56.7191 130.628H57.4105L57.8447 131.882Z" fill="#F0E2C0"/>
<path d="M60.2889 128.441L58.8417 127.91H58.6165L58.1502 126.302L57.0728 123.617V122.893L57.3784 121.736L57.7482 122.138L59.2437 124.823L59.6296 125.209L59.9834 125.981L60.2889 128.441Z" fill="#B3A99A"/>
<path d="M60.2889 128.441L60.0798 126.013L60.8999 124.405L61.3019 125.193L61.6396 126.688C60.8999 127.444 61.4788 127.894 62.0095 128.296V129.406V130.274L61.6879 130.74C60.2567 130.515 60.6105 129.261 60.2889 128.441Z" fill="#BA8F5D"/>
<path d="M58.6166 127.798H58.8417C58.9864 129.213 59.115 130.644 59.2437 132.059C59.2437 132.059 59.2437 132.059 59.1311 132.059H58.9542L57.8447 130.097L56.9764 127.83L58.6166 127.798Z" fill="#F4D180"/>
<path d="M54.7251 130.451H54.291L53.9211 130.837H53.4387L52.7151 129.695L53.1493 128.907H53.7925V128.602L53.2136 128.843H52.7634V128.746V127.026H53.101L53.889 127.444L54.7251 130.451Z" fill="#DAC795"/>
<path d="M49.0489 123.167L50.1101 122.443L50.5282 125.096V126.624C49.6277 125.643 48.679 124.678 49.0489 123.167Z" fill="#C7C0B3"/>
<path d="M52.8277 127.058V128.779L51.3644 127.026V126.608C51.4081 126.584 51.4447 126.55 51.4701 126.507C51.4956 126.465 51.5091 126.416 51.5091 126.366L52.1201 126.27H52.49L52.8277 127.058Z" fill="#C8B382"/>
<path d="M57.8447 130.129L58.9542 132.091L57.8447 131.882L57.3944 130.612L57.8447 130.129Z" fill="#F1CA72"/>
<path d="M51.284 126.608V127.026L50.4478 126.624V125.096H50.8659L51.3483 125.579V126.383C51.3529 126.423 51.3496 126.463 51.3386 126.502C51.3275 126.54 51.309 126.576 51.284 126.608Z" fill="#F4EFE4"/>
<path d="M61.6879 130.772L62.0095 130.306H63.2155L62.1703 131.351L61.6879 130.772Z" fill="#B3A99A"/>
<path d="M52.7473 128.939H53.1975L52.7634 129.727L52.7473 128.939Z" fill="#C8B382"/>
<path d="M53.5031 130.917H54.0005L53.5672 131.655L53.5031 130.917Z" fill="#C8B382"/>
<path d="M99.2994 69.4105L99.6853 68.2688L100.666 66.9824L100.907 67.1754L98.4954 72.8517L97.7396 72.4818L98.1255 71.6939L98.6401 70.906L98.9134 70.1663L99.2994 69.4105Z" fill="#AE9A7D"/>
<path d="M100.666 66.9826L101.358 64.7957L102.049 65.1012L100.891 67.1755L100.666 66.9826Z" fill="#AE9A7D"/>
<path d="M102.805 62.1906C102.596 62.9303 103.014 63.9594 101.599 64.1846L102.66 62.0459L102.805 62.1906Z" fill="#AE9A7D"/>
<path d="M102.66 62.0458L103.384 60.5825L103.866 60.9041L102.805 62.1905L102.66 62.0458Z" fill="#AE9A7D"/>
<path d="M110.845 48.3135L110.427 47.9437V47.4934L111.327 47.606L110.845 48.3135Z" fill="#DAC795"/>
<path d="M104.107 58.8942V59.0386H103.898C103.883 58.9862 103.883 58.9306 103.898 58.8782L104.107 58.8942Z" fill="#806B56"/>
<path d="M87.0945 87.2115C87.0786 87.3073 87.0786 87.4051 87.0945 87.5009L85.9046 87.6617L85.2775 89.2697C84.4736 89.7116 83.7654 90.3087 83.194 91.0264C82.6226 91.7441 82.1994 92.5681 81.9489 93.4506C81.0805 94.8013 80.1801 96.136 79.4082 97.551C79.1992 97.9048 79.0062 98.757 80.0675 98.6927C80.2155 99.1048 80.3232 99.5302 80.3891 99.963L79.3278 101.571L78.958 102.343L77.8002 103.742C76.9158 104.819 76.0153 105.897 75.1309 106.958L74.745 107.698L73.9731 108.084L72.6385 109.241H72.0596V108.148L74.3912 105.43L75.5168 103.501L75.8867 102.761C77.3339 101.941 77.7519 100.317 78.4273 99.0143C78.8314 97.7203 78.9949 96.3633 78.9097 95.0103L80.1479 92.727C81.2174 92.0212 82.0605 91.0217 82.576 89.8486C83.3873 88.5945 84.3425 87.4396 85.4222 86.4075C85.6867 86.1965 85.986 86.0332 86.3066 85.925L86.9659 86.52L87.0945 87.2115Z" fill="#DAC795"/>
<path d="M96.1155 86.0215C97.8843 86.9059 98.0451 87.324 97.7235 90.0094L94.1537 94.6726L93.1889 94.8817L93.5266 93.6113C94.218 92.2124 94.8934 90.7973 95.617 89.4144C96.4693 87.8064 96.3085 87.2918 94.5075 86.6165C94.218 86.5039 93.9125 86.4235 93.6231 86.327L93.4944 85.5391L94.2663 84.9602L94.7004 85.1692L95.0864 85.5552L96.1155 86.0215Z" fill="#F4EFE4"/>
<path d="M89.3136 92.534C89.3293 92.4166 89.3293 92.2976 89.3136 92.1802L90.8251 91.3119C91.059 91.2972 91.2869 91.2315 91.4928 91.1195C91.6987 91.0075 91.8776 90.8518 92.017 90.6634C92.1564 90.475 92.2529 90.2584 92.2998 90.0288C92.3467 89.7991 92.3428 89.562 92.2884 89.334V88.6265V87.8547L92.8191 86.7612L93.3176 86.6326L94.1698 87.3723V87.8064C93.414 89.5752 93.1407 91.5853 91.4683 92.8878C91.2271 93.0646 91.2432 93.5792 91.1467 93.933H90.4392L90.0533 94.2867L89.6352 94.6405L87.7538 93.9008C88.1558 93.3862 89.5709 93.8526 89.3136 92.534Z" fill="#C8B382"/>
<path d="M81.9167 93.5471C82.171 92.6618 82.5992 91.8362 83.1762 91.1183C83.7532 90.4005 84.4676 89.8048 85.2775 89.3662L86.6604 89.7843V90.5401L85.2132 91.3119L86.2744 91.6978C86.2665 91.8264 86.2665 91.9552 86.2744 92.0838L85.5187 92.4536L83.9107 93.2415L82.3991 93.9973L81.9167 93.5471Z" fill="#97826C"/>
<path d="M86.6282 89.8486L85.2775 89.3662L85.9046 87.7582L87.0945 87.5974C87.3518 88.3371 87.9468 89.2537 86.6282 89.8486Z" fill="#806B56"/>
<path d="M89.3136 92.5339C89.5709 93.8525 88.1558 93.3862 87.7056 93.9972V94.6887C87.5935 94.7039 87.4799 94.7039 87.3679 94.6887H86.596C86.6122 94.5659 86.6122 94.4416 86.596 94.3188V93.5631L87.3518 93.1932L89.3136 92.5339Z" fill="#AE9A7D"/>
<path d="M92.3849 84.0597L91.211 86.3913V85.9089C91.3397 85.1209 90.4874 84.0597 91.8703 83.6255H92.0472L92.3849 84.0597Z" fill="#978A76"/>
<path d="M92.3367 89.334C92.391 89.562 92.3949 89.7991 92.348 90.0287C92.3011 90.2584 92.2046 90.475 92.0652 90.6634C91.9258 90.8518 91.7469 91.0075 91.541 91.1195C91.3352 91.2315 91.1073 91.2971 90.8734 91.3118L90.793 90.9098L92.3367 89.334Z" fill="#C7C0B3"/>
<path d="M91.1628 85.9089V86.3913L90.7769 87.8225H90.3588C89.6995 86.8416 90.005 86.2145 91.1628 85.9089Z" fill="#806B56"/>
<path d="M86.2423 91.6978L85.181 91.3119L86.6282 90.54L86.2423 91.6978Z" fill="#806B56"/>
<path d="M87.0945 87.2114L86.9659 86.6325V85.8767H86.8855L88.1719 85.9571L87.0945 87.2114Z" fill="#A09A8B"/>
<path d="M91.8221 83.6254C91.8506 83.5054 91.8996 83.3912 91.9668 83.2877C92.2241 82.9822 92.5135 82.6928 92.7869 82.4033L92.4492 83.6897L91.999 83.6093L91.8221 83.6254Z" fill="#DAC795"/>
<path d="M93.8964 79.0105V80.908H93.1407L93.8964 79.0105Z" fill="#B3A99A"/>
<path d="M90.793 90.9099L90.8734 91.3119L89.3618 92.1802C89.2332 91.0707 89.9568 90.926 90.793 90.9099Z" fill="#8A7865"/>
<path d="M93.3175 86.6325L92.7708 86.7289C92.2563 85.941 92.2884 85.4264 93.414 85.4908L93.5427 86.2787L93.3175 86.6325Z" fill="#97826C"/>
<path d="M94.6683 85.1531L94.2341 85.0245L94.5236 84.1079C94.6302 84.1235 94.7385 84.1235 94.8452 84.1079L95.0864 84.719C95.1017 84.7878 95.1017 84.8592 95.0864 84.928L94.6683 85.1531Z" fill="#8A7865"/>
<path d="M85.4541 92.4536L86.2099 92.0837L86.5958 92.8717V93.0003L85.5184 92.9038L85.4541 92.4536Z" fill="#8A7865"/>
<path d="M87.3502 93.2567L86.596 93.6258V93V92.8716L87.3502 93.2567Z" fill="#9E9584"/>
<path d="M90.5035 88.6263L90.198 89.6876L89.8764 89.559L90.4231 88.562L90.5035 88.6263Z" fill="#978A76"/>
<path d="M90.407 87.8545H90.8251L90.5035 88.6585H90.4231L90.407 87.8545Z" fill="#8A7865"/>
<path d="M91.999 83.6094L92.4483 83.6896C92.4635 83.8122 92.4635 83.9361 92.4483 84.0587L91.999 83.6094Z" fill="#B3A99A"/>
<path d="M64.7592 111.782V112.248L65.4345 113.969L65.8044 118.214C65.6436 118.471 65.3541 118.712 65.3381 118.97C65.3439 119.472 65.3977 119.973 65.4989 120.465C63.2959 121.124 65.5953 121.768 65.4989 122.411L64.2768 123.247L63.1833 121.285C63.8104 120.272 63.5853 119.597 62.3793 119.323V119.034L61.2698 113.969L60.8999 112.795V112.441C60.8999 111.46 61.9773 110.19 60.1602 109.691V108.614V106.266H60.5462C61.318 106.54 62.3472 107.874 62.524 105.752C62.524 105.655 62.9582 105.591 63.1833 105.51L64.0838 108.566V109.338L64.7592 111.782ZM63.4888 112.602L63.9712 112.473L63.4888 111.219L63.1672 111.315L63.4888 112.602Z" fill="#F4D180"/>
<path d="M72.0274 120.915L70.2264 121.671L69.8405 121.494L69.0043 120.111L68.5541 118.97C67.7822 116.654 66.9461 114.371 66.2868 112.023C66.166 111.143 66.166 110.25 66.2868 109.37L66.9943 110.174L67.0908 111.283C67.5401 112.609 68.0773 113.904 68.6988 115.159C69.2134 116.091 69.5189 117.426 71.0143 117.394L71.352 117.764L72.0113 120.401L72.0274 120.915Z" fill="#97826C"/>
<path d="M70.9661 117.394C69.4706 117.394 69.1651 116.091 68.6506 115.159C68.0291 113.904 67.4919 112.609 67.0425 111.283L67.6536 110.077L66.9461 110.174L66.2385 109.37C66.1821 108.427 66.1821 107.482 66.2385 106.54C66.2385 106.282 66.8335 106.089 67.1551 105.864L68.7631 109.772L68.8596 113.245C68.8353 113.478 68.8579 113.713 68.926 113.937C68.9941 114.161 69.1065 114.369 69.2564 114.549C69.4063 114.729 69.5907 114.877 69.7987 114.985C70.0067 115.092 70.2342 115.157 70.4676 115.175L70.8053 115.577L70.9661 117.394Z" fill="#C8B382"/>
<path d="M68.8114 109.772L67.2034 105.864V104.771H68.5863C68.5299 105.531 68.5299 106.294 68.5863 107.054C68.5863 107.456 69.0043 107.81 69.2295 108.18L70.4033 108.952L70.532 113.197H70.4355H70.0817L69.7119 112.811L68.8114 109.772Z" fill="#F0E2C0"/>
<path d="M65.8044 118.23L65.4345 113.969H65.8365L67.8626 118.214L68.6023 120.111L67.7983 120.931C66.5923 120.079 66.6245 120.079 66.4637 118.873C66.4315 118.648 65.9813 118.455 65.8044 118.23Z" fill="#F4EFE4"/>
<path d="M63.1351 105.527C62.9099 105.527 62.4758 105.671 62.4758 105.768C62.2989 107.89 61.2698 106.556 60.4979 106.282L60.0316 105.511C60.9321 103.903 62.0577 104.53 63.2476 105.157C63.2007 105.277 63.1631 105.401 63.1351 105.527Z" fill="#F4EFE4"/>
<path d="M65.8365 113.969H65.4345L64.7431 112.232C64.9302 112.272 65.1075 112.349 65.2644 112.458C65.4213 112.568 65.5547 112.708 65.6567 112.87C65.7586 113.031 65.827 113.212 65.8579 113.401C65.8888 113.59 65.8815 113.783 65.8365 113.969Z" fill="#F0E2C0"/>
<path d="M68.6023 120.127L67.8626 118.23L68.5541 118.97L69.0043 120.111L68.6023 120.127Z" fill="#DAC795"/>
<path d="M64.7592 111.782L63.9713 109.354C64.094 109.37 64.2184 109.37 64.3411 109.354L64.7592 111.782Z" fill="#F0E2C0"/>
<path d="M66.6245 103.999L67.0425 103.211H67.3963V104.707H67.1873L66.6245 103.999Z" fill="#C8B382"/>
<path d="M64.3732 109.386C64.2505 109.402 64.1261 109.402 64.0034 109.386V108.614L64.3732 109.386Z" fill="#B3A99A"/>
<path d="M70.8053 115.577L70.532 115.207V113.229H70.6284L72.0917 112.875H73.2013H73.6354C73.6354 113.727 73.6354 114.58 74.6646 114.757C74.7771 114.757 75.0344 113.953 75.2113 113.535C75.3341 113.55 75.4583 113.55 75.5811 113.535C75.5811 114.805 75.9831 115.593 77.4464 115.143L77.9128 115.882L76.5138 118.487L75.1309 118.584C74.8414 118.117 74.6646 117.474 74.2465 117.217C73.1048 116.606 71.8988 116.107 70.8053 115.577Z" fill="#F7EBD0"/>
<path d="M82.3509 120.401L80.4534 120.208V119.725L80.6464 118.97V117.86L85.2292 118.214L84.6825 119.677L82.3509 120.401Z" fill="#F4EFE4"/>
<path d="M79.6494 115.577H78.9258L77.3178 114.387L76.8997 113.615V112.843L78.5077 113.213H78.8615L81.579 113.583V115.577H79.6494Z" fill="#C8B382"/>
<path d="M85.0523 118.214L80.4534 117.86L80.0514 116.252H81.2413C81.9328 116.381 82.6403 116.542 83.3317 116.638L86.2101 116.992C86.3066 117.892 85.9528 118.327 85.0523 118.214Z" fill="#97826C"/>
<path d="M78.4756 121.8L78.17 122.427L77.4786 122.7L76.7389 122.974C76.7389 122.732 76.6103 122.443 76.7389 122.25C77.3339 121.012 77.9771 119.79 78.6042 118.568L79.1349 118.793L78.4756 121.8Z" fill="#AE9A7D"/>
<path d="M77.3821 114.371L78.9901 115.561L77.8967 115.931L77.4304 115.191L77.3821 114.371Z" fill="#97826C"/>
<path d="M81.2574 116.284H80.0675L79.6494 115.577H81.6112L81.2574 116.284Z" fill="#AE9A7D"/>
<path d="M86.3066 86.0536C85.986 86.1618 85.6867 86.325 85.4222 86.536C84.3425 87.5681 83.3873 88.723 82.576 89.9772C82.0605 91.1503 81.2174 92.1497 80.1479 92.8555L77.7841 94.4635C77.8914 93.7977 78.086 93.1489 78.363 92.5339C79.1187 91.2153 79.971 89.9611 80.8393 88.6908C82.2061 88.2405 82.3348 88.0636 81.9328 87.0827L81.7559 86.5521L83.3639 86.2626L85.0523 85.2014L87.0463 84.8154L86.8855 85.9089H86.9659L86.3066 86.0536Z" fill="#F4EFE4"/>
<path d="M87.0463 84.7671L85.0524 85.153H84.6021C85.39 84.14 86.2101 83.0787 86.982 82.1139C87.384 81.6636 87.4644 81.744 87.7056 82.8536L87.384 83.6576V84.0274L87.0463 84.7671Z" fill="#C7C0B3"/>
<path d="M84.6021 85.1208H85.0523L83.3639 86.1821L84.6021 85.1208Z" fill="#F0E2C0"/>
<path d="M87.3679 84.0107V83.6416C87.3759 83.7645 87.3759 83.8878 87.3679 84.0107Z" fill="#A09A8B"/>
<path d="M80.8393 88.6104C80.0032 89.8807 79.1187 91.1349 78.363 92.4535C78.086 93.0685 77.8914 93.7173 77.7841 94.3831L77.0766 95.2675C75.758 96.8756 74.3912 98.564 73.153 100.285C72.8957 100.638 73.0404 101.298 73.0083 101.893C73.346 101.571 73.7158 101.282 74.0213 100.944L78.8454 95.2032C78.9305 96.5561 78.767 97.9132 78.363 99.2072C77.6876 100.51 77.2695 102.134 75.8223 102.954C75.4846 102.729 75.1148 102.262 74.8414 102.327C74.5681 102.391 74.2786 102.906 74.0053 103.227L75.4525 103.694L74.3269 105.623L71.1108 107.135L70.2907 107.907H69.551C69.551 107.537 69.6958 107.167 69.7601 106.797C69.84 105.735 69.6229 104.671 69.133 103.726L69.1973 101.185V101.008L68.9239 100.526L69.2294 99.7057C69.9531 99.7057 70.9179 100.027 71.3842 99.7057C72.349 98.9821 72.1882 97.8243 71.7058 96.7791L72.0917 96.0394L72.7671 95.5731C73.3781 95.0103 74.1821 94.5761 74.552 93.9651C75.2113 92.759 77.0122 92.0997 76.4494 90.2666L76.562 90.1219C77.2052 90.2344 77.9288 90.5078 78.17 89.4948L78.5559 89.0928L80.8393 88.6104ZM71.9309 103.581L71.8344 103.452C71.8344 103.452 71.7219 103.549 71.7379 103.565L71.8827 103.726L71.9309 103.581Z" fill="#F7EBD0"/>
<path d="M69.1973 101.185L69.3098 103.597L68.6023 104.771H67.4285V103.275L67.7983 102.825C67.7032 102.368 67.7679 101.891 67.9815 101.476C68.1952 101.06 68.5448 100.731 68.9722 100.542L69.2455 101.024L69.133 101.105L69.1973 101.185Z" fill="#DAC795"/>
<path d="M71.3199 97.0847L70.8053 97.8887L70.1943 97.551L71.3199 97.0847Z" fill="#9E9584"/>
<path d="M67.7646 102.809L67.3956 103.258H67.0425L67.7646 102.809Z" fill="#F0E2C0"/>
<path d="M63.1994 121.301L64.3732 123.263V123.938L61.9773 123.15C61.9087 123.167 61.8369 123.167 61.7683 123.15L61.4788 122.411L61.3823 121.382C61.8487 120.754 61.6718 120.369 60.9643 120.143L60.514 117.458L60.9321 116.686C60.9233 116.595 60.9233 116.504 60.9321 116.413L62.3954 119.082V119.372C62.5401 120.047 62.0095 121.028 63.1994 121.301Z" fill="#F4EFE4"/>
<path d="M67.0747 124.743L66.6084 125.498C65.9813 125.884 65.6114 127.557 64.5984 125.9C64.6302 125.853 64.6471 125.797 64.6471 125.74C64.6471 125.682 64.6302 125.626 64.5984 125.579C65.0004 124.566 65.3702 123.52 66.7209 123.488L67.0747 124.743Z" fill="#F4EFE4"/>
<path d="M66.6727 123.488C65.322 123.488 64.9521 124.565 64.5501 125.579H64.3732V123.971V123.295L65.5953 122.459L66.3189 122.105L66.6727 123.488Z" fill="#C7C0B3"/>
<path d="M62.0738 129.438V128.328V127.042H62.7652L63.5853 127.138V127.315V129.341L62.0738 129.438Z" fill="#B3A99A"/>
<path d="M61.4467 122.379L61.7361 123.118L62.4115 124.357C62.8778 125.82 61.6557 124.855 61.3019 125.144L60.8999 124.357C60.9159 124.234 60.9159 124.109 60.8999 123.987L61.4467 122.379Z" fill="#B3A99A"/>
<path d="M63.5853 129.39V127.331L64.3893 128.939L63.5853 129.39Z" fill="#F0E2C0"/>
<path d="M62.0738 127.042V128.328C61.5431 127.846 60.9643 127.396 61.7039 126.72L62.0738 127.042Z" fill="#C7C0B3"/>
<path d="M63.6014 127.155L62.7652 127.058L63.3924 126.125L63.6014 127.155Z" fill="#F4EFE4"/>
<path d="M67.4124 125.9C67.9591 125.9 68.3772 126.093 67.8144 126.704H67.4285L67.4124 125.9Z" fill="#97826C"/>
<path d="M62.4115 124.357L61.7361 123.118C61.8047 123.135 61.8765 123.135 61.9451 123.118L62.4115 124.357Z" fill="#C7C0B3"/>
<path d="M64.3732 125.579H64.5979C64.6296 125.626 64.6466 125.682 64.6466 125.739C64.6466 125.796 64.6296 125.852 64.5979 125.9L64.3732 125.579Z" fill="#B3A99A"/>
<path d="M67.428 126.688L67.2194 126.849L67.3799 126.656L67.428 126.688Z" fill="#97826C"/>
<path d="M67.0903 128.344L66.8496 128.135L67.1545 128.28L67.0903 128.344Z" fill="#97826C"/>
<path d="M50.078 110.56C50.7533 109.579 51.0106 108.148 52.6347 108.212H53.294H53.6317V108.469V110.56L53.2458 110.914L52.2006 111.364L53.1975 112.055V114.355C52.6672 116.777 52.7612 119.295 53.4709 121.671C54.098 124.148 55.0789 126.495 55.9151 128.972L53.9855 127.364C53.9855 126.865 54.1623 126.238 53.9855 125.884C52.8051 123.677 51.97 121.301 51.5091 118.841C51.5091 118.664 50.9785 118.616 50.7051 118.503C50.5604 117.603 51.284 116.558 50.2549 115.802C50.2388 115.695 50.2388 115.587 50.2549 115.48V114.644V114.29L50.078 110.56Z" fill="#F1CA72"/>
<path d="M50.1584 115.882C51.1875 116.638 50.4639 117.683 50.6086 118.584L50.496 120.192L49.8046 121.623C49.5473 120.481 49.2257 119.356 49.081 118.198C49.0751 117.573 49.1563 116.951 49.3222 116.349L50.1584 115.882Z" fill="#F4EFE4"/>
<path d="M50.078 110.56V114.371L49.7403 110.495L50.078 110.56Z" fill="#C7C0B3"/>
<path d="M90.1015 111.525C90.3427 111.734 90.8251 112.007 90.7769 112.12C90.4874 113.149 90.0854 114.13 89.7156 115.127L89.0402 115.706L85.9046 115.336V114.339C86.6925 114.226 87.5126 114.162 88.2844 114.001C88.6081 113.856 88.9066 113.661 89.1688 113.422L88.2362 112.457L90.1015 111.525Z" fill="#F4EFE4"/>
<path d="M85.8403 115.336L88.9759 115.706L87.3679 117.04H86.2423L83.3639 116.686C82.6725 116.59 81.9649 116.429 81.2735 116.301L81.6273 115.609H82.4474H84.3126L85.8403 115.336Z" fill="#A09A8B"/>
<path d="M86.2264 117.024H87.352C87.2395 119.034 86.6928 119.549 84.5059 119.661L85.0526 118.198C85.9531 118.326 86.3068 117.892 86.2264 117.024Z" fill="#8A7865"/>
<path d="M60.0316 108.678V109.756C58.9221 110.817 60.5462 111.525 60.3693 112.473L59.6296 113.245L58.8095 112.071L57.7321 110.142V108.984L57.9412 108.598C57.9964 108.572 58.0452 108.534 58.0841 108.486C58.123 108.439 58.1511 108.384 58.1663 108.325V107.826L57.9412 107.537V106.877L58.2306 106.765H59.0025L59.7743 108.695L60.0316 108.678Z" fill="#97826C"/>
<path d="M59.7261 108.63L58.9542 106.7L60.0316 105.51L60.4979 106.282H60.112L59.7261 108.63Z" fill="#C7C0B3"/>
<path d="M58.1824 106.684L57.9412 106.797L57.2015 106.62V105.977C57.3119 105.965 57.4202 105.938 57.5231 105.896L58.1824 106.684Z" fill="#F7EBD0"/>
<path d="M95.424 76.309C94.6522 76.7271 95.6331 78.1743 94.2823 78.2547L95.424 75.5532V76.309Z" fill="#AE9A7D"/>
<path d="M96.1959 73.2537V72.4658H96.9677L96.5657 73.6075L96.1959 73.2537Z" fill="#978A76"/>
<path d="M95.424 75.5534L95.5848 74.6689C95.5848 74.6689 95.7456 74.7654 95.7296 74.7815C95.6331 75.0388 95.5366 75.2961 95.424 75.5534Z" fill="#AE9A7D"/>
<path d="M96.5336 73.6396L97.0471 73.7841L96.5175 74.3938L96.5336 73.6396Z" fill="#776049"/>
<path d="M96.5336 74.3955C96.5412 74.5131 96.5412 74.631 96.5336 74.7485V74.3955Z" fill="#776049"/>
<path d="M96.5329 77.4821L96.212 77.0488L96.5169 77.4821H96.5329Z" fill="#97826C"/>
<path d="M76.4655 90.1541C77.0283 91.9872 75.2274 92.6465 74.5681 93.8525C74.1982 94.5439 73.3942 94.9781 72.7832 95.4605C72.7832 93.2897 74.8254 92.4696 75.7258 90.8937C75.95 90.6257 76.1975 90.3782 76.4655 90.1541Z" fill="#B3A99A"/>
<path d="M78.1539 89.3822C77.9449 90.3953 77.2213 90.1219 76.5459 90.0094L77.6394 88.9802L78.1539 89.3822Z" fill="#B3A99A"/>
<path d="M78.1539 89.3822L77.6715 88.9802C77.7186 88.8656 77.7562 88.7472 77.7841 88.6265L78.5399 88.9802L78.1539 89.3822Z" fill="#C7C0B3"/>
<path d="M94.2824 107.07L93.8643 107.81L90.793 109.74L89.5709 110.093L88.9116 110.206L85.4704 110.93C85.6795 109.917 84.8594 108.614 86.387 107.987C88.2684 107.215 90.1176 106.379 91.9829 105.575C91.9829 106.315 92.3688 106.347 92.9316 105.945C93.3706 105.659 93.8271 105.401 94.2984 105.173L94.2824 107.07Z" fill="#F7EBD0"/>
<path d="M95.4562 101.474L94.813 102.841C94.2984 102.97 93.205 102.52 93.9125 103.806L92.7708 104.819C91.1628 104.015 89.9729 105.334 88.5739 105.591L87.7377 104.723L90.8412 103.034C91.806 102.664 92.7708 102.262 93.7517 101.925C94.2984 101.716 94.9256 101.619 95.4562 101.474Z" fill="#9E9584"/>
<path d="M95.4562 101.474C94.8773 101.619 94.2984 101.716 93.7356 101.909C92.7548 102.246 91.7899 102.648 90.8251 103.018C91.0804 102.667 91.3774 102.349 91.7095 102.069C92.9638 101.169 94.7165 100.992 95.4723 99.3839L97.2733 98.9819L95.4562 101.474Z" fill="#F4EFE4"/>
<path d="M97.2411 98.9819L95.4401 99.3839H93.4301L93.9768 97.8724L96.3567 97.0523C96.4375 97.0455 96.515 97.0178 96.5818 96.9719L96.9195 97.8885L96.4371 98.0332V98.1779L96.8552 97.9207L97.4341 98.4513L97.2411 98.9819Z" fill="#F7EBD0"/>
<path d="M92.7547 104.803L93.8964 103.79L94.2984 105.157C93.8271 105.385 93.3706 105.643 92.9316 105.929C92.3688 106.331 92.0633 106.299 91.9829 105.559L92.7547 104.803Z" fill="#F4EFE4"/>
<path d="M93.9125 103.806C93.1889 102.52 94.2984 102.97 94.813 102.841L93.9125 103.806Z" fill="#C7C0B3"/>
<path d="M66.6727 123.488L66.2385 122.009C67.2998 120.867 65.4184 121.092 65.4988 120.401C65.3977 119.909 65.3438 119.408 65.338 118.905C65.338 118.648 65.6436 118.407 65.8044 118.15C66.0295 118.375 66.4315 118.568 66.4637 118.809C66.6245 120.015 66.5923 120.015 67.7983 120.867L68.2164 122.041L68.5862 123.649L67.0747 124.678L66.6727 123.488Z" fill="#DAC795"/>
<path d="M68.5862 123.713L68.2164 122.105L69.8244 121.478L70.2103 121.655V122.813L68.5862 123.713Z" fill="#F4EFE4"/>
<path d="M95.4241 94.7531V95.943L94.5879 96.4897L94.2502 96.6666L93.5588 97.149C93.5497 97.256 93.5497 97.3636 93.5588 97.4706L92.0311 98.4676L91.0824 98.9822H90.9859H90.1176L87.1106 99.754L86.6765 99.3198L88.2845 98.1621H88.4935L88.9759 97.8083H89.5709C91.0181 97.4545 92.6261 97.4224 93.2211 95.6375C93.7517 95.541 94.4753 95.6375 94.1859 94.7048L95.4241 94.7531Z" fill="#97826C"/>
<path d="M96.1155 86.0215L95.0542 85.5391V84.8316C95.0695 84.7628 95.0695 84.6914 95.0542 84.6226L96.1798 85.121C96.2924 85.4266 97.3858 85.8607 96.1155 86.0215Z" fill="#776049"/>
<path d="M50.4157 105.591H50.9946L51.5091 105.929L52.0076 106.283L51.879 107.135L50.8981 107.537L50.1423 106.765L50.4157 105.591Z" fill="#C8B382"/>
<path d="M51.9433 107.086L52.0719 106.234H53.2297V108.244H52.5704L51.9433 107.086Z" fill="#F0E2C0"/>
<path d="M50.1423 106.684L50.8981 107.456C50.6408 107.601 50.3031 107.89 50.1423 107.826C49.9815 107.762 49.5956 107.328 49.3222 107.07L49.4508 106.62L50.1423 106.684Z" fill="#C7C0B3"/>
<path d="M62.0738 129.438H63.6014L63.4888 130.194C63.4374 130.186 63.3848 130.193 63.3367 130.213C63.2886 130.232 63.2467 130.265 63.2155 130.306H62.0095L62.0738 129.438Z" fill="#F4EFE4"/>
<path d="M90.793 109.74L93.8643 107.81L93.9447 108.196C93.663 108.765 93.2013 109.225 92.6313 109.504C92.0613 109.783 91.415 109.866 90.793 109.74Z" fill="#9E9584"/>
<path d="M89.5709 110.077L90.793 109.724V110.158L90.0372 110.528L89.5709 110.077Z" fill="#9E9584"/>
<path d="M57.105 105.929V106.572L57.9412 107.537L58.1824 107.907V108.405C58.1672 108.464 58.1391 108.52 58.1002 108.567C58.0613 108.614 58.0125 108.652 57.9573 108.678L57.4105 109.016L57.2015 110.624H57.0889H55.9151L55.4648 108.614V108.421L55.8186 106.652L56.6387 105.607L57.105 105.929Z" fill="#BA8F5D"/>
<path d="M56.6065 105.511L55.7864 106.556C54.5483 107.263 54.4839 105.607 53.6638 105.495L53.8729 104.867L56.6065 105.511Z" fill="#F4EFE4"/>
<path d="M89.5709 110.077L90.0694 110.528V111.525L88.1719 112.457L86.2905 112.891L81.6594 113.615L78.8454 113.245L79.2474 111.637C79.7728 111.815 80.3102 111.954 80.8554 112.055C81.0645 112.055 81.3057 111.75 81.5469 111.573L84.184 111.219H85.3579C85.9789 111.424 86.6491 111.425 87.2709 111.223C87.8928 111.02 88.4337 110.625 88.8151 110.093L89.5709 110.077Z" fill="#978A76"/>
<path d="M110.41 47.4934V47.9427L110.041 47.5255L110.41 47.4934Z" fill="#978A76"/>
<path d="M75.0505 118.632L74.8736 120.24H74.3751C74.3662 120.309 74.3662 120.38 74.3751 120.449L72.4133 120.176L71.9952 120.465L71.2877 117.764L75.0666 118.632H75.0505Z" fill="#DAC795"/>
<path d="M72.0113 120.4L72.4285 120.111L72.0274 120.849L72.0113 120.4Z" fill="#9E9584"/>
<path d="M81.9167 87.0344C82.3187 87.9832 82.1901 88.16 80.8233 88.6424L80.7268 87.8545L81.9167 87.0344Z" fill="#F7EBD0"/>
<path d="M98.1416 71.6941L97.7557 72.482H97.3376L98.1416 71.6941Z" fill="#806B56"/>
<path d="M50.1423 106.685H49.4508L49.3061 105.929L49.7403 105.479L50.4157 105.591L50.1423 106.685Z" fill="#F4EFE4"/>
<path d="M99.2991 69.4106L98.8971 70.1985L98.4951 69.3945L99.2991 69.4106Z" fill="#806B56"/>
<path d="M94.2502 96.6666L94.5879 96.4897L95.4241 96.345L96.3567 97.0203L93.9768 97.8887L93.4944 97.5188C93.4853 97.4118 93.4853 97.3042 93.4944 97.1972L94.2502 96.6666Z" fill="#F4EFE4"/>
<path d="M95.4241 96.2807L94.5879 96.4254L95.4241 95.8787V96.2807Z" fill="#B3A99A"/>
<path d="M53.6639 105.495C54.4839 105.607 54.5483 107.263 55.7864 106.556L55.4327 108.325L54.2106 107.199L53.6317 108.228H53.294V106.218L53.6639 105.495Z" fill="#C8B382"/>
<path d="M51.5079 105.928L50.9302 105.623C51.0305 105.647 51.1349 105.647 51.2351 105.623L51.5079 105.928Z" fill="#F4EFE4"/>
<path d="M49.8046 121.559L50.4961 120.127L52.1041 124.614L50.882 125.08H50.5282L50.1101 122.427L49.8046 121.559Z" fill="#C8B382"/>
<path d="M55.899 128.988C55.0628 126.56 54.0819 124.164 53.4548 121.687C52.7238 119.317 52.6076 116.799 53.1171 114.371L53.5834 115.609L54.1302 116.767V117.828V117.957C54.2011 118.036 54.2763 118.111 54.3553 118.182L54.7251 119.436C54.6855 119.54 54.6855 119.654 54.7251 119.758V120.53C54.5592 122.704 55.1252 124.872 56.3332 126.688L57.0407 127.83L57.909 130.129L57.4588 130.612H56.7673L55.9955 129.004L55.899 128.988Z" fill="#C99B6B"/>
<path d="M53.9694 127.46L55.899 129.068L56.6708 130.676C56.6708 131.094 56.9764 131.978 55.9311 131.351L54.7251 130.451L53.9694 127.46Z" fill="#C99B6B"/>
<path d="M60.8999 123.987C60.9159 124.11 60.9159 124.234 60.8999 124.357L60.0798 125.965L59.7261 125.225L59.3401 124.839L58.9542 122.218H59.7743L60.8999 123.987Z" fill="#C99B6B"/>
<path d="M56.9764 127.83L56.3332 126.688L57.105 126.318L58.2145 126.222L58.6809 127.83H56.9764Z" fill="#DAC795"/>
<path d="M58.9381 122.137L59.3241 124.758L57.8286 122.009H58.5683C58.6992 122.025 58.8252 122.069 58.9381 122.137Z" fill="#BA8F5D"/>
<path d="M58.1502 126.222L57.0407 126.318V124.083V123.552L58.1502 126.222Z" fill="#F4EFE4"/>
<path d="M57.1533 122.829C56.494 122.395 56.1241 121.912 56.7995 121.221L57.3784 121.35C57.371 121.462 57.371 121.575 57.3784 121.687L57.1533 122.829Z" fill="#C7C0B3"/>
<path d="M57.4588 121.671C57.4514 121.559 57.4514 121.446 57.4588 121.333H58.6326V122.009H57.8286L57.4588 121.671Z" fill="#C99B6B"/>
<path d="M52.088 124.614L50.48 120.128L50.5925 118.52C50.8659 118.632 51.3322 118.68 51.3966 118.857C51.8574 121.318 52.6926 123.693 53.8729 125.9C54.1141 126.254 53.8729 126.881 53.8729 127.38L53.1171 127.026L52.3935 126.286L52.0076 125.514L52.088 124.614Z" fill="#C99B6B"/>
<path d="M52.4418 126.286L53.1639 127.024H52.8269L52.4418 126.286Z" fill="#F0E2C0"/>
<path d="M53.1974 128.987L53.7751 128.746V129.051H53.1332L53.1974 128.987Z" fill="#F4EFE4"/>
<path d="M51.284 126.367V125.562H52.0076V126.318L51.5091 126.367H51.284Z" fill="#DAC795"/>
<path d="M52.0719 126.27V125.514L52.4578 126.286H52.0719V126.27Z" fill="#F0E2C0"/>
<path d="M52.0719 125.498H51.3483L50.8659 125.016L52.088 124.55L52.0719 125.498Z" fill="#F0E2C0"/>
<path d="M81.6434 111.621C81.4022 111.798 81.161 112.12 80.9519 112.104C80.4067 112.003 79.8693 111.863 79.3439 111.685L78.1057 112.104C76.7871 112.104 76.7871 112.104 76.9801 112.827V113.599L76.2726 113.969L75.8867 111.332L76.2565 110.93C76.4816 110.833 76.7228 110.64 76.9479 110.656C77.3181 110.738 77.679 110.856 78.0253 111.01C77.9819 110.599 77.9121 110.19 77.8163 109.788C77.7203 109.526 77.5906 109.277 77.4304 109.048L76.2404 110.126C76.5992 108.971 77.0733 107.856 77.6555 106.797C78.1218 106.122 79.569 105.864 79.7137 105.189C79.8585 104.514 79.2153 103.34 78.9258 102.407L79.2957 101.635L80.3569 100.027H81.563L83.9428 101.266C83.2031 101.491 82.4474 101.684 81.7398 101.973C81.3057 102.15 80.7268 102.391 80.5981 102.729C80.5407 102.964 80.5414 103.211 80.6002 103.446C80.659 103.681 80.7742 103.899 80.9358 104.08C81.5123 104.561 82.1375 104.982 82.8011 105.334L85.0202 104.996L85.8081 105.093L84.6825 106.701H83.2353C82.4795 106.524 81.3539 105.945 81.0484 106.234C80.2122 107.006 78.6685 107.601 79.3439 109.273V110.415H79.7137H80.4695L81.6594 111.155C81.6923 111.309 81.6868 111.469 81.6434 111.621Z" fill="#97826C"/>
<path d="M78.9258 102.455C79.2152 103.388 79.8906 104.417 79.7137 105.237C79.5368 106.057 78.1057 106.122 77.6555 106.845C77.0733 107.904 76.5992 109.02 76.2404 110.174H75.8545L75.4686 111.348C75.4525 111.454 75.4525 111.563 75.4686 111.669L73.555 112.924H73.1209L73.0405 112.039L72.7993 110.753L72.4133 110.528L72.5581 109.386L73.8927 108.228H74.6485L75.0344 107.842V107.102C75.9188 106.009 76.8193 104.932 77.7037 103.886L78.9258 102.455Z" fill="#9E9584"/>
<path d="M81.563 100.14H80.3569C80.2911 99.7071 80.1834 99.2816 80.0353 98.8696C78.974 98.8696 79.167 98.0817 79.3761 97.7279C80.1479 96.3128 80.9841 94.9782 81.9167 93.6274L82.3991 94.0777L82.0614 98.2585V99.7701L81.563 100.14Z" fill="#A09A8B"/>
<path d="M72.0596 108.276L71.2556 107.07L74.4716 105.559L72.0596 108.276Z" fill="#F4EFE4"/>
<path d="M72.0274 112.457V109.37H72.6063L72.4616 110.512L72.7993 110.801L73.0405 111.975L72.0274 112.457Z" fill="#F7EBD0"/>
<path d="M75.5168 103.629L74.0696 103.163C74.3429 102.841 74.5841 102.327 74.9057 102.262C75.2273 102.198 75.549 102.664 75.8866 102.89L75.5168 103.629Z" fill="#F4EFE4"/>
<path d="M86.3066 86.0533L86.9645 85.8928V86.631L86.3066 86.0533Z" fill="#8A7865"/>
<path d="M74.6967 108.228H74.0213L74.7932 107.842C74.7128 107.971 74.6967 108.1 74.6967 108.228Z" fill="#AE9A7D"/>
<path d="M75.098 107.103V107.841H74.7289L75.098 107.103Z" fill="#AE9A7D"/>
<path d="M93.3175 86.6326L93.5427 86.2788C93.8321 86.3753 94.1376 86.4557 94.4271 86.5682C96.2281 87.2436 96.3889 87.7099 95.5366 89.3662C94.813 90.7491 94.1376 92.1642 93.4462 93.5631L91.0985 93.933C91.195 93.5792 91.1789 93.0646 91.4201 92.8878C93.0281 91.5853 93.3658 89.5752 94.1216 87.8064V87.3723L93.3175 86.6326Z" fill="#F0E2C0"/>
<path d="M91.1467 93.9651L93.4944 93.5952L93.1567 94.8655C93.1282 94.9707 93.079 95.0691 93.012 95.155L92.3688 95.6052L89.6834 96.6987L88.2845 96.8112L88.5257 95.9429L89.6352 94.7369L90.0533 94.3831L90.4392 94.0294L91.1467 93.9651Z" fill="#F7EBD0"/>
<path d="M93.012 95.155C93.079 95.0691 93.1282 94.9707 93.1567 94.8655L94.1216 94.6565C94.411 95.5891 93.6874 95.4927 93.1567 95.5891L93.0281 95.4444C93.0467 95.3481 93.0412 95.2487 93.012 95.155Z" fill="#A09A8B"/>
<path d="M95.0534 84.8315V85.5376L94.6683 85.1525L95.0534 84.8315Z" fill="#806B56"/>
<path d="M89.6352 94.6726L88.5257 95.8787L86.596 96.2324V94.6244H87.3679V95.3802L87.8664 95.2837L87.7056 94.6726V93.9812L89.6352 94.6726Z" fill="#DAC795"/>
<path d="M82.0614 98.2585L82.4634 93.9972L83.975 93.2415V94.0133L82.978 96.0555L82.8172 96.6826V98.2906L82.0614 98.2585Z" fill="#776049"/>
<path d="M83.9106 94.0134V93.2415L85.5187 92.4536V92.9039L85.1488 94.0134H83.9106Z" fill="#806B56"/>
<path d="M86.596 94.753V96.361L83.9107 96.0072C83.8943 95.8845 83.8943 95.7601 83.9107 95.6374L84.2966 95.2836L85.4865 94.8977L85.8242 94.5439H86.596C86.6012 94.6135 86.6012 94.6834 86.596 94.753Z" fill="#C8B382"/>
<path d="M85.8242 94.4153L85.4865 94.7691L85.1167 94.0133L85.4865 92.9038L86.5639 93.0003V93.6274V93.9973L85.8242 94.4153Z" fill="#B3A99A"/>
<path d="M87.7056 94.6726L87.9146 95.3962L87.4161 95.4927V94.7369C87.5148 94.727 87.612 94.7054 87.7056 94.6726Z" fill="#F0E2C0"/>
<path d="M85.8242 94.4154L86.596 93.9973V94.3832L85.8242 94.4154Z" fill="#9E9584"/>
<path d="M58.8899 112.071L59.71 113.245C60.3532 113.856 60.723 113.647 60.8999 112.859L61.2698 114.033L60.8517 114.708L60.5783 115.914H59.7421L59.3401 115.159L58.8899 112.071Z" fill="#C99B6B"/>
<path d="M60.8517 114.708L61.2698 113.969L62.3954 118.986L60.9321 116.381C60.8261 116.358 60.7165 116.358 60.6105 116.381L60.4497 115.979H60.5783L60.8517 114.708Z" fill="#C7C0B3"/>
<path d="M60.4497 112.473C60.6266 111.525 59.0025 110.865 60.112 109.756C61.9291 110.254 60.8195 111.525 60.8517 112.506L60.4497 112.473Z" fill="#C8B382"/>
<path d="M65.4989 120.481C65.4989 121.157 67.2998 120.931 66.2386 122.089L65.5149 122.443C65.5953 121.784 63.2959 121.14 65.4989 120.481Z" fill="#F0E2C0"/>
<path d="M63.1994 121.301C62.0095 121.028 62.5401 120.047 62.3954 119.34C63.6014 119.613 63.8265 120.288 63.1994 121.301Z" fill="#C7C0B3"/>
<path d="M60.4497 112.473H60.8517V112.827C60.6748 113.615 60.3049 113.824 59.6617 113.213L60.4497 112.473Z" fill="#8A7865"/>
<path d="M63.4888 112.602L63.1672 111.315L63.4888 111.219L63.9712 112.473L63.4888 112.602Z" fill="#F0E2C0"/>
<path d="M59.7261 108.63L60.112 106.331V108.678L59.7261 108.63Z" fill="#C8B382"/>
<path d="M69.8405 121.494L68.2325 122.121L67.8144 120.948L68.6184 120.127H69.0204L69.8405 121.494Z" fill="#C7C0B3"/>
<path d="M66.9782 110.174L67.6858 110.077L67.0747 111.283L66.9782 110.174Z" fill="#DAC795"/>
<path d="M68.8114 109.772L69.7279 112.843V113.213H68.9561L68.8114 109.772Z" fill="#F4EFE4"/>
<path d="M68.9079 113.245H69.6797H70.0978L70.4676 114.387V115.207C70.2354 115.183 70.0103 115.113 69.8055 115.001C69.6007 114.889 69.4203 114.737 69.275 114.554C69.1297 114.371 69.0224 114.161 68.9593 113.937C68.8963 113.712 68.8788 113.477 68.9079 113.245Z" fill="#F0E2C0"/>
<path d="M68.5702 104.771L69.2777 103.597C69.7676 104.543 69.9848 105.606 69.9048 106.668C69.9048 107.038 69.7762 107.408 69.6958 107.778L69.1973 108.18C68.9722 107.81 68.6023 107.456 68.5541 107.054C68.5031 106.294 68.5084 105.531 68.5702 104.771Z" fill="#F4EFE4"/>
<path d="M69.1973 108.18L69.6475 107.778H70.3872V108.887L69.1973 108.18Z" fill="#DAC795"/>
<path d="M70.4676 114.355L70.0978 113.213H70.4515L70.4676 114.355Z" fill="#DAC795"/>
<path d="M70.0969 113.228H69.6797V112.859L70.0969 113.228Z" fill="#DAC795"/>
<path d="M76.2726 113.969L76.964 113.599L77.3821 114.371V115.191C75.9188 115.657 75.5168 114.869 75.5168 113.583L76.2726 113.969Z" fill="#AE9A7D"/>
<path d="M76.2726 113.969L75.5007 113.599C75.3779 113.615 75.2537 113.615 75.1309 113.599L75.4686 111.685C75.4525 111.579 75.4525 111.47 75.4686 111.364H75.8867L76.2726 113.969Z" fill="#B3A99A"/>
<path d="M72.0274 112.457L73.0404 111.991L73.1208 112.875H72.0113C72.0073 112.736 72.0126 112.596 72.0274 112.457Z" fill="#C7C0B3"/>
<path d="M81.6273 113.615L86.2583 112.891L85.8081 114.339L84.2966 114.741L82.4473 115.48H81.6273V113.615Z" fill="#DAC795"/>
<path d="M76.9479 112.827C76.755 112.055 76.755 112.055 78.0735 112.104L78.556 113.197L76.9479 112.827Z" fill="#AE9A7D"/>
<path d="M78.556 113.197L78.0735 112.103L79.3117 111.685L78.9097 113.293L78.556 113.197Z" fill="#806B56"/>
<path d="M69.165 101.185L69.1008 101.088L69.2131 101.008L69.165 101.185Z" fill="#B3A99A"/>
<path d="M59.3401 115.159L59.7422 115.914C59.8547 116.445 59.2919 117.297 60.4014 117.346H60.4818L60.9321 120.031H59.9834H58.9703L58.8738 119.918L58.5844 119.291V117.49C58.5844 117.378 58.5844 117.265 58.5844 117.137V115.529L59.3401 115.159Z" fill="#B3A99A"/>
<path d="M60.8999 123.987L59.7582 122.009V121.253H60.1602L61.3502 121.366L61.4467 122.395L60.8999 123.987Z" fill="#BA8F5D"/>
<path d="M61.3502 121.35L60.1602 121.237L60.0477 120.755V120.192H60.9964C61.6396 120.401 61.8165 120.723 61.3502 121.35Z" fill="#A09A8B"/>
<path d="M60.8999 116.654L60.4818 117.426H60.4014L60.6266 116.702L60.8999 116.654Z" fill="#B3A99A"/>
<path d="M60.8993 116.654H60.6265C60.5864 116.556 60.5864 116.446 60.6265 116.349C60.7323 116.326 60.8416 116.326 60.9474 116.349C60.9203 116.448 60.9041 116.55 60.8993 116.654Z" fill="#F0E2C0"/>
<path d="M54.9663 116.767C54.8788 116.756 54.7956 116.723 54.7251 116.67L53.6478 115.577L53.1171 114.371V112.071V110.93L53.5031 110.576L53.9211 108.968L54.6447 110.447L54.9985 110.946V112.827V114.322L55.3362 115.93L54.9663 116.767Z" fill="#BA8F5D"/>
<path d="M54.7251 110.447L54.0015 108.968L53.6478 108.485V108.228L54.2267 107.199L55.4487 108.325V108.518L55.1111 110.126C55.1111 110.126 55.1111 110.286 55.1111 110.383L54.7251 110.447Z" fill="#806B56"/>
<path d="M53.2297 110.93V112.071L52.2327 111.38L53.2297 110.93Z" fill="#F4D180"/>
<path d="M53.6799 108.485L54.0337 108.968L53.6156 110.576L53.6799 108.485Z" fill="#C8B382"/>
<path d="M85.8081 114.339L86.2584 112.891L88.1397 112.457L89.0724 113.422C88.8101 113.661 88.5116 113.856 88.188 114.001C87.4161 114.162 86.596 114.226 85.8081 114.339Z" fill="#F7EBD0"/>
<path d="M84.2805 114.741L85.792 114.339V115.336L84.184 115.48L84.2805 114.741Z" fill="#F7EBD0"/>
<path d="M84.2805 114.741V115.48H82.4313L84.2805 114.741Z" fill="#F0E2C0"/>
<path d="M59.3402 115.159L58.6648 115.48L58.2628 114.741C58.102 114.29 57.909 113.824 57.7804 113.358C57.5392 112.425 57.3141 111.492 57.0889 110.576H57.1854L57.4909 110.158H57.8125L58.8899 112.087L59.3402 115.159Z" fill="#F4EFE4"/>
<path d="M57.9412 107.537L57.1372 106.7L57.8769 106.877L57.9412 107.537Z" fill="#DAC795"/>
<path d="M57.8125 110.142H57.4909L57.3944 108.952H57.7964L57.8125 110.142Z" fill="#F0E2C0"/>
<path d="M57.8117 108.983H57.4105L57.9401 108.598L57.8117 108.983Z" fill="#DAC795"/>
<path d="M83.2353 106.797H84.6825C85.369 106.952 86.0845 106.921 86.7547 106.706C87.4249 106.491 88.0253 106.1 88.4935 105.575C89.8925 105.318 91.0985 103.967 92.6904 104.803L91.9186 105.559C90.0533 106.363 88.204 107.167 86.3227 107.971C84.7146 108.598 85.6151 109.9 85.4061 110.913V111.315H84.2322L84.4574 110.077L82.3026 110.576H81.5629L82.0614 108.63V108.228H82.3991L82.5599 108.743L82.7046 108.646L82.4152 108.212L83.2353 106.797Z" fill="#DAC795"/>
<path d="M85.4541 111.316V110.914L88.8953 110.19C88.5149 110.718 87.9766 111.111 87.3582 111.314C86.7397 111.516 86.073 111.517 85.4541 111.316Z" fill="#9E9584"/>
<path d="M93.4301 99.3518H95.4401C94.6843 100.96 92.9316 101.137 91.6774 102.037C91.3565 102.318 91.0704 102.637 90.8251 102.986L87.7216 104.674L86.6282 104.771H86.1297V103.983L89.2493 101.265L93.4301 99.3518Z" fill="#F0E2C0"/>
<path d="M86.6282 104.803L87.7216 104.707L88.5578 105.575C88.0803 106.106 87.4675 106.497 86.785 106.707C86.1024 106.916 85.3756 106.936 84.6825 106.765L85.8081 105.157L86.6282 104.803Z" fill="#AE9A7D"/>
<path d="M93.4301 99.3519L89.2975 101.282V100.912V100.526L90.9055 98.9178H91.002L91.9507 98.4032L93.4784 97.4062L93.9608 97.7761L93.4301 99.3519Z" fill="#C8B382"/>
<path d="M96.9347 97.8885L96.5175 98.1453V98.0009L96.9989 97.8564L96.9347 97.8885Z" fill="#F4EFE4"/>
<path d="M81.5629 100.14L81.9971 99.7701C82.1091 99.7859 82.2228 99.7859 82.3348 99.7701H82.785L83.0905 98.9821C84.2322 97.3741 85.0523 97.3741 85.985 98.9821C86.0815 99.159 86.4031 99.2073 86.6121 99.3037L87.0463 99.7379L86.9659 100.864L83.9428 101.346L81.5629 100.14Z" fill="#776049"/>
<path d="M86.6121 99.3359C86.4031 99.2394 86.0815 99.1912 85.985 99.0143C85.0523 97.4063 84.2322 97.4063 83.0906 99.0143L82.769 98.3229V96.7148H84.377L86.194 97.149L88.2201 98.2264L86.6121 99.3359Z" fill="#9E9584"/>
<path d="M88.1397 98.178L86.1136 97.1007L86.596 96.3128L88.5256 95.959L88.2844 96.8273L89.6834 96.7148L89.5065 97.776H88.9116L88.4292 98.1298H88.1397V98.178Z" fill="#F0E2C0"/>
<path d="M86.9659 100.896L87.0463 99.7699L90.1015 98.998L89.3297 100.606L88.5739 100.992L87.4483 101.426L86.9659 100.896Z" fill="#9E9584"/>
<path d="M89.5065 97.7599L89.6834 96.6986L92.3688 95.6051L93.0281 95.4443L93.1567 95.5891C92.5618 97.374 90.9537 97.4061 89.5065 97.7599Z" fill="#9E9584"/>
<path d="M89.2814 100.526L90.0533 98.9177H90.9216L89.2814 100.526Z" fill="#C7C0B3"/>
<path d="M57.0889 110.576C57.314 111.492 57.5392 112.425 57.7804 113.358C57.909 113.824 58.102 114.29 58.2628 114.741C56.1724 114.644 57.7964 116.107 57.4266 116.718L56.6869 117.378L55.8347 117.619L54.9663 116.767L55.5291 115.898C56.9764 115.641 55.5291 114.805 55.8507 114.29L55.4809 112.843L55.1271 111.637V110.913L55.9311 110.495L57.0889 110.576Z" fill="#C99B6B"/>
<path d="M55.9151 110.528L55.1111 110.946L54.7251 110.447H55.0146H55.2879L55.095 110.254L55.4327 108.646L55.9151 110.528Z" fill="#C8B382"/>
<path d="M57.3944 108.968L57.4909 110.158L57.1854 110.576L57.3944 108.968Z" fill="#C7C0B3"/>
<path d="M82.3509 110.528L84.5056 110.029L84.2805 111.267L81.6433 111.621C81.6596 111.52 81.6596 111.417 81.6433 111.315L82.3509 110.528Z" fill="#F0E2C0"/>
<path d="M57.0246 124.083V126.318L56.3332 126.688C55.1252 124.872 54.5592 122.704 54.7251 120.529C54.8322 120.52 54.9397 120.52 55.0467 120.529C55.3362 122.009 55.4327 123.44 57.0246 124.083Z" fill="#F4D180"/>
<path d="M53.6478 115.577L54.7573 116.638L54.1945 116.735L53.6478 115.577Z" fill="#F0E2C0"/>
<path d="M55.0467 120.578C54.9397 120.569 54.8321 120.569 54.7251 120.578V119.758L55.0467 120.578Z" fill="#F0E2C0"/>
<path d="M54.2426 117.828L54.387 118.181C54.3081 118.11 54.2331 118.035 54.1623 117.956L54.2426 117.828Z" fill="#F0E2C0"/>
<path d="M58.5522 121.285H57.3784L56.7995 121.157C56.2756 120.741 55.8991 120.169 55.7254 119.523C55.5517 118.877 55.59 118.193 55.8347 117.571L56.6548 117.796V118.616L57.4266 118.97C57.4266 119.79 57.5874 120.433 58.5683 120.497L58.5522 121.285Z" fill="#BA8F5D"/>
<path d="M56.6548 117.844L55.8347 117.619L56.6869 117.378L56.6548 117.844Z" fill="#F0E2C0"/>
<path d="M58.5522 121.285V120.529L58.8578 120.015L58.9542 120.127L59.6778 120.883V121.301V122.009H58.8578C58.7357 121.985 58.61 121.985 58.4879 122.009L58.5522 121.285Z" fill="#DAC795"/>
<path d="M86.9659 100.896L87.3839 101.33V101.683C86.596 102.246 85.6794 102.745 86.1779 103.999V104.787L85.8885 105.125L85.1006 105.028C84.2966 104.674 83.4925 104.112 82.8815 105.366C82.2178 105.014 81.5927 104.593 81.0162 104.112C80.8546 103.931 80.7394 103.713 80.6806 103.478C80.6217 103.243 80.621 102.996 80.6785 102.761C80.8072 102.423 81.386 102.182 81.8202 102.005C82.5277 101.716 83.2835 101.523 84.0232 101.298L86.9659 100.896Z" fill="#C8B382"/>
<path d="M83.2353 106.797L82.3991 108.228H80.7911V108.518L82.0293 108.63L81.6433 110.495H80.4856H79.7298L79.376 109.354C78.7007 107.746 80.2444 107.086 81.0805 106.315C81.3539 106.041 82.4795 106.62 83.2353 106.797Z" fill="#C99B6B"/>
<path d="M75.8545 110.142H76.2404L77.4304 109.064C77.5906 109.293 77.7203 109.542 77.8163 109.804C77.9121 110.206 77.9819 110.615 78.0253 111.026C77.679 110.872 77.3181 110.754 76.9479 110.672C76.7228 110.672 76.4816 110.849 76.2565 110.946L75.8545 110.142Z" fill="#AE9A7D"/>
<path d="M82.8011 105.446C83.3639 104.192 84.2162 104.755 85.0202 105.109L82.8011 105.446Z" fill="#DAC795"/>
<path d="M80.4534 110.576H81.6112H82.3509L81.6433 111.364L80.4534 110.576Z" fill="#978A76"/>
<path d="M75.8545 110.142L76.2565 110.93L75.8867 111.332H75.4686L75.8545 110.142Z" fill="#C7C0B3"/>
<path d="M79.3439 109.37L79.6976 110.512H79.3278L79.3439 109.37Z" fill="#AE9A7D"/>
<path d="M74.7128 107.858H75.0818L74.6967 108.244C74.6967 108.099 74.7128 107.971 74.7128 107.858Z" fill="#A09A8B"/>
<path d="M82.769 98.3066L83.0906 98.998L82.785 99.7859H82.3348C82.2228 99.8018 82.1091 99.8018 81.9971 99.7859V98.2744L82.769 98.3066Z" fill="#B3A99A"/>
<path d="M93.0267 95.4439L92.3688 95.6043L93.0107 95.155C93.0397 95.2485 93.0453 95.3477 93.0267 95.4439Z" fill="#F4EFE4"/>
<path d="M85.1166 94.0132L85.4865 94.769L84.2966 95.1549L83.9106 95.5086C83.8943 95.6314 83.8943 95.7557 83.9106 95.8785L82.8976 96.0554L83.8946 94.0132H85.1166Z" fill="#9E9584"/>
<path d="M82.9137 96.0555L83.9267 95.8787L84.3126 96.5862H82.7046L82.9137 96.0555Z" fill="#F0E2C0"/>
<path d="M84.2966 96.6665L83.9106 95.959L86.596 96.3128L86.1136 97.1007L84.2966 96.6665Z" fill="#DAC795"/>
<path d="M60.6105 116.317C60.5703 116.414 60.5703 116.524 60.6105 116.622L60.3854 117.346C59.2758 117.346 59.8386 116.445 59.7261 115.915H60.4336L60.6105 116.317Z" fill="#BA8F5D"/>
<path d="M57.4266 116.718C57.7965 116.107 56.1724 114.644 58.2628 114.741L58.6648 115.48V117.088L57.4266 116.718Z" fill="#BA8F5D"/>
<path d="M58.8738 120.015L58.5683 120.529C57.5874 120.529 57.3944 119.822 57.4266 119.002V118.584H57.8286L58.6005 119.372L58.8738 120.015Z" fill="#C99B6B"/>
<path d="M57.8125 118.6H57.4105L56.6548 117.828V117.362L57.3944 116.702L58.5683 117.12C58.5683 117.249 58.5683 117.362 58.5683 117.474L57.8125 118.6Z" fill="#C8B382"/>
<path d="M57.8125 118.6L58.5683 117.49V119.388L57.8125 118.6Z" fill="#DAC795"/>
<path d="M59.6939 120.883L58.9703 120.127H59.9834V120.69L59.6939 120.883Z" fill="#F7EBD0"/>
<path d="M59.6939 120.883L60.0469 120.755L60.1593 121.236H59.7581L59.6939 120.883Z" fill="#C99B6B"/>
<path d="M55.8508 114.323C55.5935 114.805 56.9764 115.641 55.5292 115.931L55.1915 114.323H55.8508Z" fill="#C8B382"/>
<path d="M55.8508 114.323H55.1915V112.827H55.5613L55.8508 114.323Z" fill="#F0E2C0"/>
<path d="M55.4809 112.875H55.1111V111.718L55.4809 112.875Z" fill="#C8B382"/>
<path d="M55.127 110.158L55.3195 110.35H55.0468C55.0788 110.318 55.0949 110.238 55.127 110.158Z" fill="#BA8F5D"/>
<path d="M82.0614 108.63L80.8232 108.518V108.228H82.0614V108.63Z" fill="#AE9A7D"/>
<path d="M82.3991 108.228L82.6879 108.662L82.5435 108.758L82.383 108.244L82.3991 108.228Z" fill="#F0E2C0"/>
<path d="M86.1779 103.999C85.6795 102.745 86.596 102.246 87.384 101.683L88.5096 100.896H89.2975V101.265L86.1779 103.999Z" fill="#DAC795"/>
<path d="M85.8403 105.125L86.1297 104.787H86.6282L85.8403 105.125Z" fill="#DAC795"/>
<path d="M89.2975 100.912H88.4935L89.2493 100.526L89.2975 100.912Z" fill="#C7C0B3"/>
<path d="M88.4935 100.896L87.3679 101.683V101.33L88.4935 100.896Z" fill="#C7C0B3"/>
<path d="M56.6548 117.828L57.4089 118.582H56.6548V117.828Z" fill="#F0E2C0"/>
<path d="M56.6548 118.648H57.4089V119.065L56.6548 118.648Z" fill="#C8B382"/>
</g>
<defs>
<clipPath id="clip0_746_45709">
<rect width="69" height="94.7443" fill="white" transform="translate(46.6851 40)"/>
</clipPath>
</defs>
</svg>
