<svg width="166" height="94" viewBox="0 0 166 94" fill="none" xmlns="http://www.w3.org/2000/svg">
<path d="M8.55086 73.4538L11.3596 79.3931L15.3376 74.1783L13.1583 80.3794L19.6293 79.5286L13.7387 82.3589L18.9122 86.3704L12.7607 84.172L13.6061 90.696L10.7974 84.7566L6.81941 89.9714L8.99868 83.7703L2.52763 84.6211L8.41831 81.7908L3.24481 77.7793L9.39624 79.9777L8.55086 73.4538Z" fill="#19191B"/>
<path d="M152.396 73.4526L155.204 79.392L159.183 74.1764L157.003 80.3782L163.473 79.5266L157.583 82.3578L162.755 86.369L156.605 84.1711L157.449 90.6955L154.641 84.756L150.663 89.9716L152.843 83.7699L146.372 84.6215L152.263 81.7903L147.09 77.779L153.241 79.9769L152.396 73.4526Z" fill="#19191B"/>
<path d="M14.3101 63.7424C14.9605 63.9455 15.3436 63.8362 15.4718 63.4186C15.6641 62.792 15.3657 62.0123 14.484 61.2927L8.72749 56.6546C8.25172 56.2772 8.04876 56.1062 8.17321 55.7008L8.19584 55.627L8.09768 55.5964L7.44903 57.7094L7.55946 57.7439L7.73293 57.1788C7.87247 56.7242 8.0895 56.6304 8.31037 56.6994C8.4208 56.7339 8.54445 56.8129 8.65207 56.9003L12.5045 59.988L12.5027 60.0817L12.4781 60.074C12.4045 60.051 12.1308 59.979 11.9364 59.9991L7.36873 60.5114C7.1177 60.5407 6.78173 60.5839 6.66759 60.7367L6.64305 60.7291L6.9108 59.8568L6.80037 59.8224L6.07253 62.1933L6.18296 62.2278L6.23952 62.0435C6.36775 61.6258 6.59047 61.6012 7.22654 61.544L13.1796 60.8989C13.3296 60.8919 13.4599 60.9056 13.5826 60.9439C13.693 60.9784 13.7959 61.0374 13.8705 61.1011L14.0734 61.2722C14.587 61.7018 14.8863 62.1722 14.6072 63.0813C14.5544 63.2533 14.3998 63.5819 14.3101 63.7424Z" fill="#19191B"/>
<path d="M17.6733 56.6253L18.9885 53.7508L18.8836 53.702L18.7446 54.0058C18.488 54.5667 18.2927 54.5608 17.7333 54.3005L14.26 52.6845L15.7249 49.4828L19.1981 51.0989C19.7576 51.3592 19.894 51.4935 19.6374 52.0544L19.4931 52.3699L19.598 52.4187L20.9185 49.5325L20.8136 49.4837L20.6211 49.9044C20.3645 50.4653 20.1746 50.4478 19.6151 50.1874L12.8901 47.0583C12.3307 46.798 12.1942 46.6637 12.4508 46.1028L12.6433 45.6821L12.5384 45.6333L11.2179 48.5195L11.3228 48.5683L11.4618 48.2645C11.7184 47.7036 11.9136 47.7094 12.4731 47.9698L15.5151 49.3852L14.0502 52.5868L11.0082 51.1714C10.4488 50.9111 10.3177 50.7651 10.5743 50.2042L10.7133 49.9004L10.6084 49.8516L9.29324 52.7261L9.39813 52.7749L9.58525 52.3659C9.84187 51.805 10.0318 51.8225 10.5912 52.0828L17.3163 55.212C17.8757 55.4723 18.0122 55.6066 17.7555 56.1675L17.5684 56.5765L17.6733 56.6253Z" fill="#19191B"/>
<path d="M21.8266 48.132L22.9012 46.44L17.8272 38.8193L24.0909 42.8644C24.6092 43.1991 24.726 43.351 24.3953 43.8716L24.2093 44.1645L24.3065 44.2273L26.008 41.5481L25.9109 41.4854L25.6629 41.8758C25.3322 42.3965 25.1466 42.3531 24.6282 42.0183L18.3969 37.9942C17.8785 37.6595 17.7618 37.5076 18.0924 36.9869L18.3404 36.5965L18.2432 36.5337L17.1617 38.2366L22.2357 45.8573L15.9721 41.8122C15.4537 41.4775 15.3438 41.3148 15.6745 40.7941L15.8536 40.5121L15.7564 40.4493L14.0618 43.1176L14.159 43.1804L14.4001 42.8007C14.7307 42.2801 14.9164 42.3235 15.4347 42.6583L21.666 46.6824C22.1844 47.0171 22.3011 47.169 21.9705 47.6896L21.7294 48.0693L21.8266 48.132Z" fill="#19191B"/>
<path d="M27.1193 40.2819L29.224 37.7708L29.1359 37.6958L28.847 38.0404C28.4508 38.5131 28.3426 38.5222 27.7946 38.0552L24.3503 35.1201L24.4494 35.0019C25.5966 33.6331 26.9622 34.4254 28.2804 35.1942C29.427 35.8675 30.4969 36.4922 31.2975 35.537C31.5038 35.2908 31.6175 34.915 31.604 34.4308L31.6036 34.2111L31.4856 34.2118L31.486 34.4316C31.4744 34.7256 31.3913 34.9248 31.2757 35.0627C30.7887 35.6437 30.1063 35.1971 29.2507 34.6369C28.0099 33.8158 26.5908 32.9273 24.9164 34.1845L24.869 34.161L24.2146 30.9192C24.0426 30.0637 24.3895 29.3296 24.7527 28.8963L24.8517 28.7781L24.7637 28.7031L22.9396 30.8794L23.0277 30.9544L23.102 30.8658C23.3578 30.5605 23.6192 30.4288 23.8051 30.5872C23.8932 30.6622 23.9709 30.8297 24.0186 31.073L24.6618 34.2882C24.6966 34.4868 24.5594 34.6905 24.2623 35.045L22.0606 33.1689C21.591 32.7687 21.5916 32.6679 21.9877 32.1952L22.062 32.1066L21.9739 32.0315L20.0839 34.2866L20.1719 34.3617L20.4608 34.017C20.857 33.5443 20.9472 33.5368 21.4169 33.937L27.1509 38.8233C27.6988 39.2903 27.7163 39.3895 27.3201 39.8622L27.0312 40.2069L27.1193 40.2819Z" fill="#19191B"/>
<path d="M33.0675 27.2113L32.3318 27.8919C30.8132 29.2966 30.5308 31.029 31.6037 32.2081C32.4602 33.1494 33.7866 33.0608 34.8053 32.1184C35.4844 31.4902 35.7435 30.515 34.9882 29.1122L35.0825 29.0249C35.221 29.1771 35.4569 29.3791 35.7204 29.5732C36.0444 29.8338 36.3952 30.1048 36.6028 30.333L36.6721 30.4091C36.8583 30.0792 37.0909 29.7239 37.5004 29.2575L37.4225 29.172L37.2708 29.3298C37.2708 29.3298 37.1474 29.4615 37.0908 29.5138C36.8079 29.7756 36.6844 29.6972 36.3383 29.3168L32.0641 24.6195C31.1556 23.6211 30.0211 23.6724 28.8043 24.7979C28.2384 25.3215 27.9768 25.9312 27.8834 26.4204C27.8606 26.529 27.915 26.7415 27.9315 26.7787L27.8482 26.8208C27.8064 26.7368 27.7207 26.6234 27.609 26.4816L27.1787 25.9515L27.0844 26.0387L29.0226 28.3787L29.1924 28.2217L28.6748 27.6147C28.0463 26.8476 28.0357 25.8242 28.9695 24.9604C29.6863 24.2972 30.4805 24.3682 31.2159 25.1764L33.0675 27.2113ZM33.2232 27.3825L34.2615 28.5235C35.4988 29.8833 35.3451 31.1462 34.6849 31.757C34.034 32.359 33.1424 32.2382 32.4242 31.449C31.4379 30.365 31.4783 28.9966 32.5347 28.0194L33.2232 27.3825Z" fill="#19191B"/>
<path d="M34.9729 19.8244L35.0388 19.9195L35.2698 19.7566C36.0049 19.2382 36.1182 19.2212 36.6312 19.9606L38.1187 22.1049C39.5664 24.2144 39.5212 26.4485 39.2236 27.6651L40.3236 27.9434C40.6168 26.8557 40.1723 24.4792 38.2158 21.6589L36.4279 19.0815L38.885 17.3488L43.5015 24.0035C43.8532 24.5105 43.9033 24.6954 43.3992 25.0509L43.1157 25.2508L43.1817 25.3459L45.7753 23.5169L45.7094 23.4218L45.3314 23.6884C44.8273 24.0438 44.6722 23.9329 44.3205 23.4259L40.0925 17.331C39.7407 16.824 39.6906 16.6391 40.1947 16.2837L40.5727 16.0171L40.5068 15.922L38.7531 17.1586L35.8759 19.1876L34.9729 19.8244Z" fill="#19191B"/>
<path d="M47.2657 22.7858L50.0215 21.3453C51.7638 20.4346 52.4903 18.9815 51.8377 17.7125C51.1852 16.4435 49.5886 16.2046 47.8463 17.1153L46.9808 17.5677L45.2994 14.298C45.0172 13.7493 45.0503 13.645 45.5969 13.3593L45.9954 13.1509L45.9425 13.048L43.0387 14.5658L43.0916 14.6687L43.4901 14.4604C44.0368 14.1747 44.1172 14.1907 44.3994 14.7394L47.8974 21.5417C48.1796 22.0905 48.152 22.1774 47.6054 22.4631L47.2069 22.6714L47.2657 22.7858ZM47.0807 17.7621L47.7298 17.4228C49.1077 16.7026 50.2062 16.9842 50.847 18.2304C51.4878 19.4765 51.0772 20.5324 49.6993 21.2526L48.8566 21.6931L48.8448 21.6702C48.9109 21.4616 48.8738 21.2489 48.7386 20.986L47.0807 17.7621Z" fill="#19191B"/>
<path d="M55.0428 18.9596L58.0135 17.8791L57.9746 17.7701L57.6606 17.8843C57.0809 18.0952 56.9478 17.9521 56.7399 17.3711L55.4491 13.7644L58.758 12.561L60.0488 16.1677C60.2567 16.7486 60.2569 16.94 59.6773 17.1509L59.3512 17.2694L59.3902 17.3784L62.373 16.2935L62.334 16.1846L61.8993 16.3427C61.3196 16.5535 61.1986 16.406 60.9907 15.8251L58.4914 8.8416C58.2835 8.26066 58.2832 8.06925 58.8629 7.85843L59.2976 7.70031L59.2586 7.59138L56.2758 8.67625L56.3148 8.78518L56.6288 8.67098C57.2084 8.46016 57.3415 8.60325 57.5495 9.18419L58.68 12.3431L55.3711 13.5466L54.2406 10.3877C54.0327 9.8067 54.0445 9.61091 54.6242 9.40008L54.9381 9.28589L54.8992 9.17696L51.9284 10.2574L51.9674 10.3664L52.3901 10.2126C52.9697 10.0018 53.0908 10.1493 53.2987 10.7302L55.798 17.7137C56.0059 18.2947 56.0062 18.4861 55.4265 18.6969L55.0038 18.8506L55.0428 18.9596Z" fill="#19191B"/>
<path d="M70.3282 14.6554L73.54 14.0047L73.5173 13.8912L73.0765 13.9805C72.4719 14.103 72.3863 14.0679 72.2656 13.4628L70.7698 5.96242C70.6491 5.35734 70.7147 5.29161 71.3192 5.16913L71.76 5.07982L71.7324 4.94116L68.5207 5.59184L68.5433 5.70529L68.9841 5.61598C69.5887 5.4935 69.6617 5.53117 69.7824 6.13624L71.2832 13.6619C71.4039 14.2669 71.351 14.3301 70.7464 14.4526L70.3056 14.5419L70.3282 14.6554ZM63.9174 15.9542L66.9653 15.3367C68.8924 14.9463 69.991 13.7532 69.712 12.3539C69.4329 10.9547 67.9622 10.2821 66.0352 10.6725L65.0779 10.8665L64.3589 7.26123C64.2383 6.65616 64.2988 6.56521 64.9033 6.44273L65.3441 6.35342L65.3215 6.23997L62.1098 6.89066L62.1324 7.00411L62.5732 6.9148C63.1778 6.79232 63.2508 6.82998 63.3715 7.43506L64.8673 14.9355C64.988 15.5405 64.9376 15.6163 64.333 15.7388L63.8922 15.8281L63.9174 15.9542ZM65.1207 11.0808L65.8386 10.9353C67.3626 10.6266 68.3422 11.2019 68.6162 12.5759C68.8903 13.9499 68.2048 14.8495 66.6808 15.1582L65.7488 15.3471L65.7437 15.3219C65.8647 15.14 65.8875 14.9255 65.8296 14.6356L65.1207 11.0808Z" fill="#19191B"/>
<path d="M75.7157 9.02953L83.0209 8.69701C83.2391 8.68708 83.4119 8.52482 83.4021 8.30654L83.3992 8.24234C83.2948 5.9183 81.35 4.43714 79.116 4.53883C76.2659 4.66856 74.4628 6.6291 74.5892 9.44106C74.7173 12.2915 76.8183 14.1001 79.5145 13.9774C81.3247 13.895 82.728 13.0591 83.4652 11.7132L83.2662 11.5808C82.5781 12.873 81.263 13.6662 79.5426 13.7445C77.3472 13.8444 75.8611 12.2652 75.7226 9.18361C75.7203 9.13225 75.718 9.08089 75.7157 9.02953ZM75.7053 8.79841C75.7083 6.28936 76.8797 4.87222 79.0751 4.77229C80.8853 4.68989 82.1579 6.09871 82.2566 8.29435C82.2601 8.37139 82.2233 8.41166 82.1591 8.41458L75.7053 8.79841Z" fill="#19191B"/>
<path d="M91.0833 14.5173L93.5096 15.0347L93.5333 14.9215L93.0807 14.825C92.3893 14.6775 92.3052 14.515 92.3685 14.2132C92.3843 14.1377 92.4179 14.0398 92.4542 13.9292L94.1524 7.39285C94.2124 7.16912 94.2309 7.08108 94.2546 6.96788L94.3049 6.9786C94.297 7.01633 94.272 7.26067 94.3324 7.53636L96.1138 15.6425L96.1331 15.7386L96.1582 15.744L96.2144 15.664L101.175 8.85084C101.344 8.61083 101.476 8.41577 101.484 8.37803L101.56 8.39412C101.531 8.53247 101.491 8.72114 101.456 8.95023L100.318 15.6324C100.3 15.7205 100.284 15.7959 100.271 15.8588C100.208 16.1607 100.083 16.318 99.404 16.1733L98.9515 16.0768L98.9277 16.19L102.209 16.8896L102.233 16.7764L101.956 16.7174C101.265 16.57 101.213 16.3751 101.339 15.6528L102.523 8.5601C102.537 8.43164 102.56 8.31844 102.582 8.21782C102.658 7.85306 102.786 7.68315 103.402 7.8145L103.829 7.90563L103.853 7.79243L101.967 7.39036L97.2007 13.9033C97.0731 14.0732 96.9271 14.3311 96.9113 14.4066L96.8485 14.3932C96.8643 14.3177 96.8337 14.0878 96.7732 13.8121L95.0277 5.91071L93.1798 5.51668L93.156 5.62988L93.6589 5.7371C94.1994 5.85236 94.2485 5.99422 94.1905 6.27094C94.1721 6.35898 94.1536 6.44703 94.1352 6.53507L92.2748 13.7202C92.0895 14.4165 91.9493 14.5837 91.3082 14.447L91.1071 14.4041L91.0833 14.5173Z" fill="#19191B"/>
<path d="M108.383 14.5647L107.445 14.2124C105.507 13.4853 103.845 14.0148 103.294 15.5097C102.854 16.7032 103.539 17.8527 104.839 18.3404C105.706 18.6656 106.687 18.4573 107.582 17.1461L107.702 17.1912C107.631 17.3841 107.56 17.687 107.509 18.011C107.427 18.4194 107.348 18.8564 107.241 19.1457L107.206 19.2422C107.583 19.2601 108.003 19.3082 108.603 19.4647L108.643 19.3562L108.434 19.2915C108.434 19.2915 108.261 19.2403 108.189 19.2132C107.828 19.0777 107.841 18.9315 108.019 18.4493L110.216 12.4937C110.683 11.2278 110.118 10.2335 108.566 9.65095C107.844 9.37998 107.185 9.42089 106.709 9.55818C106.603 9.58684 106.44 9.73155 106.414 9.76321L106.339 9.70748C106.394 9.63212 106.455 9.50402 106.529 9.33976L106.801 8.71434L106.681 8.66918L105.499 11.4647L105.715 11.546L106.015 10.8076C106.406 9.89731 107.306 9.42537 108.498 9.87247C109.412 10.2157 109.713 10.96 109.335 11.9847L108.383 14.5647ZM108.303 14.7817L107.769 16.2284C107.133 17.9524 105.946 18.3852 105.104 18.0691C104.273 17.7575 103.972 16.9032 104.341 15.9026C104.848 14.5282 106.077 13.9462 107.425 14.452L108.303 14.7817Z" fill="#19191B"/>
<path d="M111.512 21.1466L115.308 23.1537L115.361 23.0511L114.521 22.6064C113.975 22.318 113.948 22.2309 114.232 21.6837L118.021 14.3989L118.68 14.7474C119.771 15.3244 120.022 15.7333 119.532 16.8698L119.317 17.3666L119.534 17.452L120.733 14.7284L120.602 14.6737L120.321 15.3535L115.025 12.5531L115.414 11.9159L115.307 11.8444L113.761 14.3992L113.942 14.5241L114.236 14.0693C114.862 13.005 115.361 12.9927 116.452 13.5696L117.134 13.9302L113.346 21.215C113.061 21.7622 112.975 21.7891 112.43 21.5007L111.566 21.044L111.512 21.1466Z" fill="#19191B"/>
<path d="M122.06 21.5514L127.995 25.8268C128.172 25.9546 128.408 25.934 128.534 25.7557L128.571 25.7033C129.915 23.8056 129.299 21.4294 127.484 20.122C125.168 18.4539 122.55 18.8801 120.923 21.1762C119.274 23.5038 119.813 26.2353 122.003 27.8132C123.474 28.8727 125.088 29.0851 126.492 28.4816L126.418 28.2535C125.085 28.8452 123.566 28.6539 122.168 27.647C120.385 26.3621 120.188 24.1935 121.971 21.6772C122 21.6353 122.03 21.5933 122.06 21.5514ZM122.193 21.3627C123.736 19.3858 125.524 18.9957 127.308 20.2806C128.779 21.3401 128.913 23.2417 127.643 25.0345C127.598 25.0975 127.544 25.1064 127.492 25.0688L122.193 21.3627Z" fill="#19191B"/>
<path d="M133.719 25.8536L134.398 26.5014C135.57 27.6194 135.578 28.8881 134.436 30.1063C133.284 31.3339 132.036 31.3864 130.864 30.2684L130.343 29.7715L133.288 26.6323C133.49 26.4168 133.646 26.1569 133.675 25.9005L133.719 25.8536ZM126.179 31.0911L128.458 33.265L128.537 33.1807L128.305 32.9588C127.858 32.5329 127.846 32.4328 128.268 31.983L130.185 29.9402L130.985 30.7033C132.38 32.0343 134.085 32.1152 135.245 30.8782C136.405 29.6413 136.239 27.9205 134.844 26.5895L132.5 24.3535L132.42 24.4378L132.746 24.7484C133.193 25.1743 133.195 25.2655 132.773 25.7153L127.543 31.2909C127.121 31.7407 127.03 31.7432 126.584 31.3173L126.258 31.0068L126.179 31.0911Z" fill="#19191B"/>
<path d="M132.3 37.2536L133.557 38.8166L142.321 36.3691L136.551 41.085C136.073 41.4752 135.894 41.539 135.507 41.058L135.29 40.7875L135.2 40.8607L137.19 43.3356L137.279 43.2624L136.989 42.9017C136.603 42.4207 136.702 42.2568 137.179 41.8665L142.92 37.175C143.397 36.7848 143.577 36.721 143.964 37.202L144.254 37.5627L144.343 37.4895L143.079 35.9164L134.314 38.3639L140.085 33.6481C140.562 33.2578 140.75 33.2041 141.136 33.685L141.346 33.9456L141.435 33.8724L139.454 31.4075L139.364 31.4807L139.646 31.8314C140.033 32.3123 139.934 32.4763 139.456 32.8665L133.716 37.558C133.238 37.9483 133.059 38.012 132.672 37.5311L132.39 37.1804L132.3 37.2536Z" fill="#19191B"/>
<path d="M144.342 46.229L143.822 45.3718C142.748 43.6024 141.116 42.9931 139.76 43.8296C138.677 44.4975 138.507 45.8262 139.227 47.0131C139.707 47.8044 140.607 48.2464 142.119 47.7666L142.186 47.8765C142.011 47.9844 141.768 48.1793 141.528 48.4029C141.212 48.6738 140.88 48.9691 140.617 49.131L140.53 49.1849C140.815 49.4319 141.116 49.7297 141.491 50.2235L141.589 50.1628L141.465 49.9827C141.465 49.9827 141.361 49.8355 141.321 49.7696C141.121 49.4399 141.221 49.3327 141.658 49.0629L147.061 45.7303C148.209 45.022 148.379 43.8901 147.518 42.4724C147.118 41.813 146.575 41.4381 146.117 41.2525C146.015 41.2093 145.798 41.2226 145.758 41.2319L145.734 41.1414C145.824 41.1162 145.95 41.053 146.11 40.9695L146.71 40.645L146.643 40.5351L143.989 42.0062L144.109 42.2041L144.8 41.8078C145.669 41.3323 146.668 41.5168 147.328 42.6048C147.835 43.44 147.612 44.212 146.683 44.7854L144.342 46.229ZM144.145 46.3505L142.833 47.16C141.269 48.1247 140.069 47.7322 139.602 46.9629C139.142 46.2045 139.432 45.3457 140.34 44.7858C141.587 44.0167 142.912 44.3173 143.659 45.5482L144.145 46.3505Z" fill="#19191B"/>
<path d="M151.17 49.5347L151.064 49.5818L151.178 49.8407C151.54 50.6646 151.535 50.7797 150.713 51.1465L148.332 52.2103C145.992 53.2413 143.822 52.7746 142.693 52.2508L142.207 53.2845C143.211 53.7796 145.615 53.7897 148.748 52.3905L151.611 51.1119L152.821 53.8658L145.429 57.1672C144.866 57.4187 144.676 57.4332 144.428 56.8683L144.288 56.5506L144.182 56.5977L145.46 59.5047L145.565 59.4575L145.379 59.0338C145.131 58.4689 145.269 58.3367 145.833 58.0852L152.602 55.0615C153.165 54.81 153.356 54.7954 153.604 55.3604L153.79 55.784L153.896 55.7369L153.032 53.7715L151.615 50.5468L151.17 49.5347Z" fill="#19191B"/>
<path d="M147.629 67.377L148.494 70.5386L148.606 70.5077L148.487 70.0737C148.324 69.4786 148.353 69.3904 148.947 69.2252L156.314 67.1768C156.908 67.0115 156.978 67.0722 157.141 67.6673L157.26 68.1012L157.396 68.0634L156.531 64.9017L156.419 64.9327L156.538 65.3667C156.701 65.9618 156.668 66.0376 156.074 66.2028L148.683 68.2581C148.088 68.4233 148.022 68.3751 147.859 67.78L147.74 67.346L147.629 67.377ZM145.902 61.0662L146.723 64.0666C147.242 65.9636 148.504 66.9735 149.879 66.5913C151.253 66.2092 151.823 64.6898 151.304 62.7928L151.046 61.8505L154.587 60.8659C155.181 60.7007 155.276 60.7544 155.439 61.3495L155.557 61.7835L155.669 61.7525L154.804 58.5909L154.692 58.6219L154.811 59.0558C154.974 59.6509 154.941 59.7267 154.347 59.892L146.98 61.9404C146.386 62.1056 146.307 62.0608 146.144 61.4657L146.026 61.0317L145.902 61.0662ZM150.836 61.9091L151.029 62.6158C151.439 64.116 150.933 65.1374 149.583 65.5127C148.234 65.8879 147.292 65.2693 146.881 63.7691L146.63 62.8516L146.655 62.8447C146.844 62.9522 147.059 62.9591 147.344 62.8799L150.836 61.9091Z" fill="#19191B"/>
</svg>
