<svg width="96" height="90" viewBox="0 0 96 90" fill="none" xmlns="http://www.w3.org/2000/svg">
<path fill-rule="evenodd" clip-rule="evenodd" d="M37.8507 47.1803C37.5904 47.1286 28.1079 46.9152 27.4932 46.9472C27.1915 46.9629 27.1601 47.02 25.1532 51.2232C24.1546 53.3148 17.1527 67.8808 16.2106 69.8266C15.3005 71.7062 15.242 71.8785 15.4897 71.9472C15.6023 71.9785 17.1316 71.945 18.8879 71.873C20.6442 71.8009 22.1153 71.778 22.1569 71.8219C22.1984 71.8659 21.711 72.9541 21.0738 74.2401C20.4367 75.5261 19.5974 77.2294 19.2088 78.0253C17.7372 81.0392 16.7078 83.1405 15.1445 86.3217C14.257 88.1278 13.5272 89.6823 13.5227 89.7761C13.5182 89.87 13.5667 89.9605 13.6304 89.9772C13.694 89.9938 14.86 88.7224 16.2214 87.1518C17.5829 85.5812 20.008 82.7893 21.6106 80.9475C23.2132 79.1057 25.7758 76.1573 27.3054 74.3955C28.8349 72.6337 30.9868 70.1581 32.0875 68.8942C33.1881 67.6304 34.1569 66.5173 34.2404 66.4204C34.3238 66.3236 34.356 66.1772 34.3119 66.0949C34.2679 66.0127 32.4124 65.7975 30.1887 65.6169L26.1458 65.2884L26.5827 64.59C26.8231 64.2059 27.7596 62.7938 28.6638 61.4518C29.5681 60.1099 30.9761 58.0162 31.7927 56.7992C32.6093 55.5821 34.1051 53.3572 35.1167 51.855C37.6173 48.1415 38.0383 47.5045 38.0874 47.3599C38.1105 47.2915 38.004 47.2107 37.8507 47.1803Z" fill="#FFE167"/>
<path fill-rule="evenodd" clip-rule="evenodd" d="M80.6668 7.17078C80.3097 7.10153 67.2995 6.8619 66.4558 6.90899C66.0417 6.93208 65.9985 7.0104 63.2256 12.7653C61.8457 15.6291 52.1718 35.5729 50.8702 38.2372C49.613 40.8108 49.5319 41.0465 49.8715 41.1391C50.0258 41.1812 52.1244 41.1272 54.5346 41.019C56.9449 40.9109 58.9634 40.8716 59.0203 40.9313C59.0771 40.9912 58.4034 42.481 57.5232 44.2419C56.6431 46.0028 55.4837 48.3351 54.9469 49.4249C52.9139 53.5517 51.4919 56.4288 49.3323 60.7847C48.1063 63.2577 47.0978 65.3862 47.0913 65.5144C47.0846 65.6427 47.1507 65.7661 47.2381 65.7886C47.3252 65.811 48.931 64.0671 50.8062 61.9133C52.6815 59.7595 56.0218 55.9308 58.2292 53.405C60.4365 50.8793 63.9663 46.8361 66.0731 44.4201C68.1798 42.004 71.1438 38.6092 72.6598 36.876C74.1759 35.1428 75.5102 33.6164 75.6252 33.4836C75.7402 33.3508 75.785 33.1506 75.7249 33.0384C75.6648 32.9262 73.1198 32.6424 70.0694 32.4077L64.5234 31.981L65.1261 31.0242C65.4577 30.498 66.7492 28.563 67.996 26.7242C69.2429 24.8854 71.1844 22.0165 72.3105 20.3489C73.4365 18.6812 75.4991 15.6325 76.894 13.5741C80.3421 8.48568 80.9226 7.61282 80.9908 7.41493C81.0228 7.32134 80.877 7.21147 80.6668 7.17078Z" fill="#FFE167"/>
</svg>
