<svg width="1200" height="250" viewBox="0 0 1200 250" fill="none" xmlns="http://www.w3.org/2000/svg">
<path d="M-138.265 65.3456C-122.996 80.5591 -105.954 93.3977 -88.855 106.448C-73.5856 118.101 -56.5455 128.476 -39.1721 136.714C-29.3166 141.387 -18.7511 144.264 -8.504 147.918C7.62508 153.668 23.1941 158.875 40.2006 161.633C66.4467 165.889 92.7037 168.892 119.221 169.804C141.162 170.559 163.423 168.296 184.894 162.779C203.128 158.094 223.003 148.327 236.669 135.158C245.096 127.036 252.439 115.285 257.876 104.992C265.836 89.9236 272.44 77.5328 273.027 60.4629C273.124 57.6336 273.007 54.2319 272.569 50.62C271.177 39.1273 264.661 28.5683 254.829 22.4567V22.4567C243.274 15.2747 228.455 18.5591 220.658 28.7573C216.303 35.6015 216.206 40.2294 215.937 48.0326C215.8 52.0332 217.256 60.7 219.438 64.2177C222.167 68.616 226.143 73.1039 230.31 76.1836C244.751 86.8576 264.994 87.2771 282.08 87.8648C307.333 88.7335 401.616 49.5649 401.616 49.5649M1256.05 243.632C1252.46 245.842 1247.33 246.393 1243.13 247.565C1233.73 250.195 1221.54 247.818 1211.98 247.489C1169.94 246.043 1127.18 237.385 1089.38 218.197C1064.48 205.56 1026.57 191.502 1017.5 162.779V162.779C1013 148.55 1006.26 133.83 1010.29 119.462C1010.5 118.709 1010.74 117.926 1011 117.109C1015.72 102.464 1019.96 93.4033 1036.5 93.9724C1042.31 94.1724 1047.59 94.9733 1051.9 96.7854C1067.21 103.214 1068.98 125.935 1063.5 141.609V141.609C1059.3 153.624 1055.57 162.079 1046 169.804C1023.88 187.652 1023.54 179.087 995 176.109C976.668 174.196 946.764 164.995 934.291 151.967C921.508 138.616 910.553 124.871 895.772 113.528C886.835 106.67 874.547 94.6432 862.396 93.9724C845.484 93.0389 826.487 91.4435 811.219 99.8736V99.8736C786.157 113.711 761.789 130.792 733.269 133.276C729.072 133.641 724.727 133.822 720.137 133.805C705.488 133.75 689.568 132.967 676.323 125.929C650.697 112.311 631 80.9735 624.252 53.343V53.343C618.32 29.0529 591.596 11.8285 567.37 5.63801C493.247 -13.3031 426.641 24.5039 401.614 49.4567" stroke="#616161" stroke-linecap="round" stroke-dasharray="10 10"/>
</svg>
