<svg width="19" height="19" viewBox="0 0 19 19" fill="none" xmlns="http://www.w3.org/2000/svg">
<path d="M5.73535 13.4274L8.74305 18.093C8.9609 18.4181 9.43416 18.4376 9.65486 18.1121L13.5014 12.6553C13.5014 12.6553 7.69929 12.0098 7.72856 12.1201C7.77516 12.2404 5.73535 13.4274 5.73535 13.4274Z" fill="#19191B"/>
<path d="M16.2146 0.206502C13.3111 2.36207 3.99816 9.42987 0.473787 12.1182C0.011676 12.4765 0.237421 13.2083 0.819739 13.243L5.72892 13.4699L8.74651 18.0899C8.87011 18.2769 9.06764 18.356 9.27062 18.3458C9.42873 18.3328 8.55621 14.1511 8.55621 14.1511C8.55621 14.1511 14.2567 16.3957 16.9529 17.464C17.6251 17.7243 18.3217 17.2005 18.279 16.4933C18.0213 12.8511 17.3897 3.76453 17.1585 0.65806C17.1195 0.184466 16.5816 -0.0676981 16.2146 0.206502Z" fill="#19191B"/>
<path d="M9.27068 18.3459C9.42932 18.3329 8.55408 14.1409 8.55408 14.1409L14.4205 4.7059C14.4608 4.63634 14.3701 4.57235 14.3261 4.62824L5.73535 13.4682L8.76237 18.0995C8.86897 18.2768 9.0671 18.3561 9.27068 18.3459Z" fill="#AF9E5A"/>
</svg>
