<svg width="21" height="13" viewBox="0 0 21 13" fill="none" xmlns="http://www.w3.org/2000/svg">
<path fill-rule="evenodd" clip-rule="evenodd" d="M20.1293 1.38972C20.2711 0.916941 20.1288 0.569439 19.4522 0.568878L17.2148 0.567291C16.646 0.566866 16.3838 0.866811 16.242 1.19768C16.242 1.19768 15.1062 3.96304 13.4956 5.75861C12.9746 6.27842 12.7377 6.44371 12.4533 6.4435C12.311 6.44339 12.1051 6.27777 12.1048 5.80498L12.1015 1.38384C12.1011 0.816388 11.9358 0.563336 11.4617 0.563025L7.94589 0.560475C7.59042 0.560195 7.37677 0.823376 7.37703 1.07296C7.3774 1.61091 8.18332 1.73553 8.26748 3.24871L8.26994 6.53503C8.27046 7.25554 8.1401 7.38608 7.85566 7.38587C7.09716 7.38535 5.2502 4.60546 4.15358 1.4252C3.9387 0.807161 3.72341 0.557341 3.15166 0.5569L0.914316 0.555248C0.275087 0.554799 0.147479 0.85485 0.147708 1.18585C0.148133 1.77694 0.908792 4.7092 3.68488 8.5885C5.53565 11.2377 8.14143 12.6752 10.5117 12.677C11.9339 12.6778 12.1096 12.3593 12.1093 11.8101L12.1078 9.80895C12.1072 9.17121 12.242 9.04406 12.6922 9.04436C13.0241 9.04464 13.5931 9.21052 14.9214 10.4881C16.4395 12.0024 16.69 12.6815 17.5433 12.682L19.7807 12.6837C20.4198 12.6842 20.7393 12.3655 20.5544 11.7364C20.3521 11.1091 19.6272 10.1988 18.6654 9.11971C18.1434 8.50458 17.3609 7.84212 17.1236 7.51088C16.7913 7.08506 16.886 6.89597 17.1228 6.51789C17.1228 6.51789 19.8458 2.68983 20.1293 1.38972Z" fill="#19191B"/>
</svg>
