<svg width="21" height="21" viewBox="0 0 21 21" fill="none" xmlns="http://www.w3.org/2000/svg">
<path d="M-0.000198364 20.9726L1.43872 15.6296C0.549773 14.0622 0.0828395 12.2841 0.084987 10.4747C0.0873303 4.78933 4.63661 0.164062 10.227 0.164062C12.9398 0.165464 15.4862 1.23914 17.4012 3.18814C19.3162 5.13713 20.3698 7.72775 20.3689 10.483C20.3664 16.1679 15.8164 20.794 10.2269 20.794H10.2225C8.52523 20.7933 6.8575 20.3603 5.37613 19.5388L-0.000198364 20.9726Z" fill="#19191B"/>
<path d="M10.2295 1.90579C5.57973 1.90579 1.79835 5.75008 1.7967 10.4753C1.79441 12.0888 2.24118 13.6701 3.08537 15.0362L3.28593 15.3605L2.43421 18.5228L5.62466 17.672L5.93274 17.8576C7.22664 18.6386 8.71022 19.0516 10.2232 19.0524H10.2263C14.8725 19.0524 18.6539 15.2077 18.6557 10.4822C18.6592 9.35587 18.443 8.24004 18.0196 7.1993C17.5962 6.15855 16.974 5.21356 16.189 4.41902C15.4084 3.62015 14.4798 2.98668 13.4568 2.55528C12.4338 2.12388 11.3369 1.90312 10.2295 1.90579Z" fill="#19191B"/>
<path fill-rule="evenodd" clip-rule="evenodd" d="M7.69273 6.16415C7.50278 5.73504 7.30291 5.72635 7.12248 5.71892L6.63673 5.71289C6.46774 5.71289 6.19316 5.77738 5.96104 6.03532C5.72892 6.29326 5.07404 6.91666 5.07404 8.18463C5.07404 9.45261 5.98213 10.6778 6.10867 10.85C6.2352 11.0221 7.86172 13.7071 10.4375 14.7401C12.5781 15.5986 13.0136 15.4279 13.4784 15.385C13.9432 15.3421 14.9777 14.7616 15.1888 14.1597C15.3998 13.5579 15.3999 13.0423 15.3367 12.9345C15.2734 12.8267 15.1044 12.7627 14.8508 12.6337C14.5971 12.5047 13.3515 11.8813 13.1192 11.7952C12.887 11.7092 12.7181 11.6664 12.549 11.9244C12.3798 12.1823 11.8948 12.7625 11.7469 12.9345C11.599 13.1065 11.4514 13.1281 11.1977 12.9993C10.9441 12.8705 10.1281 12.5982 9.1599 11.7202C8.4066 11.0371 7.89811 10.1935 7.75007 9.93569C7.60203 9.67789 7.73435 9.53826 7.86144 9.40985C7.97516 9.29434 8.11479 9.10888 8.24174 8.95846C8.3687 8.80804 8.41046 8.70052 8.49482 8.52879C8.57918 8.35706 8.53714 8.20622 8.47373 8.07739C8.41032 7.94856 7.91796 6.674 7.69273 6.16429" fill="#FFE167"/>
</svg>
