<svg width="260" height="225" viewBox="0 0 260 225" fill="none" xmlns="http://www.w3.org/2000/svg">
<rect x="-0.000244141" y="0.142822" width="260" height="224" rx="10" fill="white"/>
<mask id="mask0_4477_12" style="mask-type:alpha" maskUnits="userSpaceOnUse" x="100" y="87" width="160" height="138">
<rect x="100.5" y="87.5" width="159" height="137" rx="9.5" fill="white" stroke="#FFE167" stroke-dasharray="10 10"/>
</mask>
<g mask="url(#mask0_4477_12)">
<path fill-rule="evenodd" clip-rule="evenodd" d="M239.902 147.465C240.07 147.235 240.233 147.025 240.355 146.848C240.298 146.661 240.199 146.377 240.085 146.076C239.71 145.048 239.229 143.722 239.707 143.521L239.756 143.498L239.802 143.513C240.152 143.591 240.497 143.69 240.835 143.809C241.415 143.99 242.107 144.206 242.409 144.3C242.617 144.137 242.813 143.96 242.996 143.771C243.549 143.243 244.166 142.647 244.619 142.911C245.072 143.174 244.767 145.179 244.681 145.827L244.668 145.87C244.813 146.062 245.365 146.209 245.851 146.34C246.114 146.4 246.373 146.48 246.624 146.581L246.829 146.674L246.955 146.828C246.835 147.3 246.252 147.663 245.797 147.833C245.667 147.885 245.564 147.929 245.475 147.969C245.297 148.054 245.11 148.121 244.917 148.17C244.808 148.584 244.719 149.004 244.652 149.428C244.528 150.119 244.415 150.733 244.127 150.787L244.104 150.779C243.666 150.824 243.187 150.426 242.701 150.021C242.289 149.678 241.868 149.34 241.635 149.351C241.557 149.357 241.38 149.394 241.16 149.435C240.353 149.605 239.055 149.841 238.781 149.393L238.693 149.252L238.767 149.097C239.102 148.527 239.476 147.98 239.886 147.461" fill="#FFE167"/>
<path fill-rule="evenodd" clip-rule="evenodd" d="M185.979 221.846C186.52 221.108 187.041 220.432 187.434 219.864C187.251 219.266 186.934 218.356 186.565 217.388C185.365 214.092 183.821 209.836 185.353 209.192L185.512 209.119L185.661 209.166C186.782 209.417 187.888 209.735 188.972 210.117C190.833 210.698 193.054 211.391 194.022 211.693C194.688 211.17 195.317 210.603 195.906 209.995C197.679 208.302 199.657 206.39 201.11 207.235C202.563 208.081 201.585 214.512 201.311 216.591L201.269 216.727C201.732 217.345 203.504 217.816 205.062 218.235C205.908 218.427 206.738 218.686 207.544 219.009L208.199 219.308L208.605 219.8C208.219 221.316 206.351 222.478 204.89 223.024C204.472 223.191 204.142 223.332 203.858 223.459C203.285 223.734 202.685 223.95 202.068 224.105C201.716 225.435 201.432 226.782 201.217 228.141C200.819 230.357 200.456 232.327 199.533 232.499L199.458 232.476C198.054 232.619 196.516 231.342 194.958 230.044C193.638 228.942 192.286 227.858 191.54 227.895C191.29 227.912 190.722 228.033 190.015 228.164C187.426 228.709 183.261 229.466 182.385 228.029L182.103 227.576L182.338 227.081C183.414 225.251 184.614 223.496 185.93 221.83" fill="#FFE167"/>
<path fill-rule="evenodd" clip-rule="evenodd" d="M275.595 180.923C274.699 183.539 273.803 185.959 273.18 187.95C274.232 189.512 275.945 191.854 277.853 194.313C284.201 202.745 292.379 213.637 288.562 216.877L288.173 217.228H287.706C284.274 217.512 280.827 217.591 277.386 217.463C271.544 217.463 264.574 217.463 261.536 217.463C260.091 219.571 258.79 221.775 257.642 224.06C254.059 230.54 250.087 237.84 245.18 236.708C240.274 235.576 237.392 216.135 236.34 209.889V209.46C234.471 208.093 228.98 208.328 224.151 208.523C221.559 208.729 218.955 208.729 216.363 208.523L214.221 208.25L212.624 207.196C212.391 202.472 216.713 197.436 220.413 194.547C221.464 193.689 222.282 192.986 222.983 192.361C224.382 191.054 225.909 189.89 227.539 188.887C227.372 184.733 226.995 180.589 226.41 176.473C225.592 169.719 224.891 163.708 227.384 162.38H227.617C231.511 160.702 237.041 163.005 242.649 165.347C247.4 167.338 252.229 169.251 254.332 168.47C255.033 168.197 256.552 167.338 258.46 166.323C265.392 162.419 276.646 156.486 280.423 159.843L281.631 160.897L281.397 162.537C279.932 168.787 278.046 174.93 275.75 180.923" fill="#FFE167"/>
</g>
</svg>
